<?xml version="1.0" encoding="UTF-8"?>
<svg width="604px" height="523px" viewBox="0 0 604 523" version="1.1" xmlns="http://www.w3.org/2000/svg" xmlns:xlink="http://www.w3.org/1999/xlink">
    <!-- Generator: Sketch 59.1 (86144) - https://sketch.com -->
    <title>编组</title>
    <desc>Created with Sketch.</desc>
    <defs>
        <linearGradient x1="28.9039263%" y1="44.4694082%" x2="192.179023%" y2="69.0878528%" id="linearGradient-1">
            <stop stop-color="#4B263C" offset="0%"></stop>
            <stop stop-color="#631C2C" offset="36.7213894%"></stop>
            <stop stop-color="#661B2A" offset="48.3108108%"></stop>
            <stop stop-color="#820F18" offset="99.934016%"></stop>
        </linearGradient>
        <path d="M423.582415,0 C424.585526,6.52144042 426.589425,13.5445301 428.930016,18.8954556 C433.111964,28.0923587 434.948678,37.2892619 437.289269,46.9878143 C438.62675,52.0043069 437.623639,58.3585309 441.134526,61.8700758 C443.310254,63.8766728 446.82114,60.365128 449.660964,58.5257473 C452.335925,63.0405907 456.013997,66.5521355 459.859253,70.3981132 C464.37325,74.7457402 458.354588,79.7622328 460.195946,84.4442926 C461.865474,89.1263524 462.703722,94.142845 464.707621,98.4904719 C465.543546,100.497069 471.062975,101.8348 471.062975,104.008614 C470.893468,115.88098 471.23016,128.087778 476.412897,138.789629 C477.416008,140.963443 481.760498,141.465092 484.604966,143.304473 C486.608865,144.474988 487.77916,146.816018 487.447112,149.49148 C487.447112,148.989831 490.286936,149.99313 490.286936,149.49148 C495.469673,151.665294 496.305599,154.507973 501.153966,157.016219 C506.336703,159.691682 506.336703,169.223018 509.515541,173.236212 C515.367019,181.095384 515.030327,190.793936 517.370918,200.158056 C517.874795,202.331869 520.716941,200.826922 521.216174,202.833519 C521.552866,201.161354 514.695956,196.476972 522.38647,198.151459 C524.894246,198.820325 526.902789,201.997437 528.909009,204.17125 C528.909009,201.83022 529.408243,199.48919 527.738714,197.64981 C529.742613,197.817026 532.250389,198.820325 532.417574,200.325272 C533.090958,205.341765 532.083204,211.027123 532.754266,215.709183 C534.091747,223.066706 540.110409,228.417631 545.125961,235.106288 C545.68131,235.94237 546.936488,235.501104 547.144609,234.65341 L547.154,234.601 L547.174752,234.86027 C547.800629,241.436673 554.323666,245.097711 552.431128,251.938905 L552.314919,252.329579 C555.157065,252.162363 556.826594,254.837826 556.996101,256.175557 C559.671062,271.055496 557.330471,285.438431 559,299.819043 C558.721738,300.106464 558.441533,300.360596 558.159515,300.584392 C558.387563,302.020531 558.694653,303.45866 559,304.896789 C556.999975,305.396757 556.833306,308.245413 555.835608,309.417431 C552.502233,314.103179 552.999924,321.639908 550.335539,326.495413 C549.166542,328.672018 547.999861,332.52061 547.335501,334.197248 C543.166466,344.41055 538.166403,356.298165 528.168591,363.832569 C526.668573,365.004587 526.33292,368.183454 524.99957,369.525229 C522.17083,372.036697 518.832825,374.548165 516.001771,377.39217 C515.332781,378.061895 513.168402,377.227064 512.666081,377.896789 C511.666068,379.233913 514.832775,380.91055 513.501739,382.752294 C512.335058,384.426606 509.835026,384.594037 508.832699,385.766055 C507.666017,387.105505 508.999368,390.119266 508.168338,391.793578 C507.666017,392.965596 505.332654,393.133028 504.668294,394.637583 C503.334944,397.486239 502.832623,401.002294 501.337234,403.34633 C495.168174,413.222445 487.50141,421.931193 488.668092,433.651376 C488.668092,434.617084 488.440208,435.582792 487.988327,436.454837 C489.321522,437.838017 490.660719,439.064171 492,440.047679 C490.829995,441.877547 488.654806,443.042008 487.152835,442.542953 C478.127079,439.714976 471.773299,447.531191 463.585583,445.37093 C461.245572,444.871876 458.234665,443.871456 457.401269,444.871876 C453.3875,450.361479 450.046949,455.352027 442.859773,456.849191 C441.522624,457.181895 445.199784,460.340265 443.862635,462.505146 C443.358883,463.336904 442.188877,463.503256 441.35548,464 C441.689768,461.673388 439.01547,459.84352 440.018331,457.514598 C434.50027,459.175803 430.324001,455.019324 426.143089,453.020794 C422.633073,451.190926 423.970222,449.197017 426.646841,445.537282 C428.4831,443.206049 425.811123,439.215921 424.30683,438.716866 C420.796814,437.885108 422.136284,444.539172 420.293062,445.035917 C412.771598,447.531191 406.587284,457.345936 400.570113,453.522159 C392.881507,448.531611 383.690928,446.535392 376,442.041588 L376.009,441.875 L375.463554,442 C372.788974,440.501053 370.448717,438.666175 368.277943,436.495366 C365.937685,433.99326 363.76459,431.657961 361.756333,428.824558 C358.078786,423.319924 363.929429,417.648484 361.422011,412.14385 C360.586205,410.64027 358.41543,409.641744 357.911625,408.14048 C356.741496,403.300758 359.248915,395.629949 354.905045,394.962721 C349.219241,394.126369 344.875371,399.299705 338.1866,397.796125 C345.708855,391.793387 345.876017,381.951769 340.694019,374.445451 C337.687438,379.447346 336.013504,385.121104 332.50544,389.624895 C329.494216,393.461457 326.318153,390.959351 322.642928,388.621735 C325.484669,389.458088 327.488282,386.955981 328.65841,385.621525 C332.839763,381.117734 330.998667,375.446293 334.344214,369.774853 C338.024082,363.602991 341.197824,353.091828 335.514342,345.921441 C335.012859,352.093302 332.168796,358.098357 328.491249,362.101727 C322.306284,368.607203 314.95119,373.275484 309.936353,381.117734 C308.766224,382.952612 312.111771,384.620682 311.944609,386.119629 C311.610287,388.457245 307.096934,390.292123 306.425967,387.289596 C305.255839,382.785805 306.096288,377.447978 304.08571,373.275484 C300.408163,365.935973 295.897132,360.100042 289.208361,354.595409 C288.207715,353.759056 289.879327,350.758846 289.545005,350.091618 C287.53907,345.085088 282.189911,339.580455 277.509397,340.748104 C272.157916,341.918071 269.149014,337.078349 263.969337,338.581929 C261.294758,339.249158 257.282888,334.912174 253.605341,333.408593 C243.074184,329.574347 231.704899,332.240944 221.677547,335.412595 C221.449205,335.526524 221.220863,335.56264 220.99252,335.627235 L221,335.909597 C208.330106,340.090936 196.498236,345.108543 182.830585,346.613825 C177.161195,347.282839 175.99676,355.31101 170.829721,357.318053 C168.662898,358.321575 165.329325,359.659603 165.329325,360.495871 C164.493617,367.687775 160.99568,376.38496 156.662034,376.886721 C145.327885,378.057496 132.657991,377.555735 120.490448,378.893764 C114.656695,379.562778 108.658578,381.737074 105.32269,386.754681 C104.324933,388.259963 102.491467,390.43426 103.658218,392.943063 C101.655759,393.275248 99.6556149,391.437781 98.6555429,391.937219 C92.4884322,395.451867 87.1570298,399.633206 81.1542828,404.149052 C78.3230604,406.153772 73.9894151,403.312785 69.6557697,405.319827 C64.1553737,407.661377 63.8220163,403.312785 58.3216203,401.974756 C58.1526266,403.480038 53.4879389,401.640249 54.3213323,403.312785 C52.3188733,399.80046 48.6519426,400.634405 45.3183692,400.634405 C46.6541136,395.451867 38.3178652,391.772288 42.9871829,386.587428 C43.4849039,385.918414 45.8207202,386.921935 46.3184412,386.252921 C48.9852999,382.907849 50.9877589,379.058694 50.1543656,374.712424 C49.9853719,373.708903 48.3209002,373.039889 48.1519066,372.036367 C47.8185493,369.527564 48.1519066,366.684253 48.4852639,364.17545 C49.4876509,354.47242 41.3180812,346.948332 37.9845079,338.251146 C34.8199281,330.222975 32.8174692,321.857974 29.3195321,313.832125 C27.8171091,310.152547 23.3191001,308.814518 20.9855987,305.636701 C16.4829597,299.950079 17.9853827,292.590922 14.818488,286.737047 C11.1515573,280.214158 0.817479933,278.374369 0.315128948,269.50993 C0.150765262,267.670141 2.31758794,268.339155 3.81769595,268.171901 C3.81769595,270.343875 8.315705,270.178944 6.31787597,273.354439 C7.64899033,271.349719 10.1491703,277.370848 9.65144932,273.524015 C9.14909834,268.506408 0.648486284,265.830351 2.81530896,260.478237 C3.15098128,260.14373 5.31780396,259.976476 6.31787597,260.645491 C9.65144932,262.819787 6.98227566,266.499366 7.64899033,269.50993 C11.9826357,265.997605 13.1493864,273.354439 16.8163171,272.018733 C13.9850947,268.506408 16.6519534,264.157816 15.1518454,260.478237 C12.816029,254.289855 5.31780396,251.781052 2.98198763,245.927177 C-1.01598541,235.724709 -0.684943058,225.856748 2.14859429,214.818013 C2.31758794,214.483506 0.315128948,213.981745 0.150765262,213.479984 C-0.515949409,206.957095 2.14859429,201.10322 5.14881031,195.416599 C6.81559699,198.594417 6.48223965,202.273995 6.31787597,205.78632 C11.9826357,202.608502 10.4825277,194.747585 15.6518814,191.73702 C18.9831397,189.897231 22.8190641,188.224696 25.3192441,185.715892 C31.8173971,179.862017 37.4867868,173.673635 44.6516546,168.990535 L44.702,168.955 L44.6621381,168.985819 C43.7707981,169.646322 40.6321746,172.227701 43.9872549,173.004621 C44.8206482,173.171874 45.6517266,171.833846 45.3183692,170.663071 C46.1540776,171.332085 46.9874709,172.001099 46.6541136,173.171874 C55.8191253,172.50286 62.988623,166.147225 72.4893071,164.97645 C72.9870281,164.97645 72.1559497,163.471167 71.1535627,162.802153 C75.9872441,156.613771 83.6544628,161.296871 89.1548588,157.450039 C96.3243565,152.432432 104.489296,149.254614 108.325221,141.728204 C112.156515,134.034539 123.993015,129.351439 121.323842,123.163057 C117.323554,113.295097 120.490448,104.263404 129.324418,98.7440364 C129.993447,98.4095293 129.160054,96.2352329 129.824454,95.2317115 C130.491168,93.8936829 132.991348,94.22819 132.991348,95.2317115 C133.493699,101.921854 139.494131,106.604954 138.660738,113.46235 C139.991853,113.46235 141.825318,113.796858 142.158675,113.127843 C143.827777,110.284533 138.327381,107.608476 140.160846,104.430658 C140.32521,104.096151 141.660954,104.096151 142.494348,104.430658 C143.49442,104.765165 144.161134,105.601433 143.827777,106.939461 L147.659071,106.939461 L147.659071,106.939461 C146.992357,102.590868 142.661026,100.082065 138.825102,98.5767828 C135.827201,97.5732614 137.324994,92.7229079 139.991853,91.552133 C141.491961,90.8831187 143.827777,90.7158651 144.827849,91.552133 C147.325714,93.7264293 149.825894,94.0609365 152.82611,93.8936829 C151.659359,88.8760759 156.326362,87.3707937 157.995464,83.5239617 C155.828641,84.0257224 153.328461,87.2035402 151.995032,85.6982581 C150.828281,84.1929759 150.659287,80.3461439 152.995104,78.5063546 C156.995392,75.3285368 159.993293,71.1471976 162.495788,66.9658584 C164.493617,63.4535334 168.662898,61.1119835 172.329829,58.7704335 C173.329901,60.4429692 172.494193,62.9517727 174.994373,63.9552942 C175.494409,60.7774764 175.99676,59.2721942 174.994373,56.0943764 C179.161339,54.7563479 177.661231,49.9059944 180.330405,49.2369801 C188.831017,47.5644444 195.9982,55.090855 201.165239,60.9447299 C204.165455,64.1225477 198.331701,71.1471976 200.831881,77.0010725 C200.662888,71.4817047 205.99892,68.6383941 207.332349,63.9552942 C209.165815,65.4605763 211.499316,64.791562 213.332781,65.1260691 L213.339012,65.3208169 C213.718523,65.3795509 214.077192,65.537904 214.334945,65.7958763 C216.50423,67.9670103 219.338669,68.3010309 221.343404,68.8020619 C223.343503,69.1360825 222.51148,65.4618557 220.006142,64.1257732 C221.841691,63.2907216 221.67714,61.4536082 221.009668,60.4515464 C220.675932,59.7835052 218.673515,61.6206186 218.504329,58.9484536 C218.337461,51.9340206 222.845217,46.756701 225.681974,40.9113402 C226.01571,40.243299 229.183886,41.4123711 230.018226,40.4103093 C231.686907,38.9072165 228.182678,36.2350515 229.353072,34.3979381 C230.854884,32.2268041 232.022961,30.3896907 231.686907,27.7175258 C233.357906,28.0515464 235.858609,31.057732 236.859818,29.0536082 C233.85851,27.3835052 236.361531,24.7113402 235.527191,22.5402062 C238.695366,24.043299 239.03142,30.8907216 242.869386,28.385567 C244.704935,27.2164948 240.032629,20.7030928 243.203122,21.2041237 C250.376132,22.3731959 261.055689,19.0329897 269.234542,18.6989691 C265.394259,16.6948454 269.568279,13.3546392 267.565862,11.3505155 C264.562236,8.67835052 259.553876,8.67835052 255.215306,7.67628866 C253.046021,7.17525773 256.886305,5.00412371 256.3857,3 C259.723062,6.50721649 263.39416,3.16701031 266.228599,5.17113402 C268.064148,6.34020619 271.070091,9.51340206 273.239376,7.00824742 C272.571904,16.1938144 284.083484,13.0206186 289.926184,13.8556701 C293.192538,14.3460408 292.780286,18.0359933 292.604823,21.0111457 L292.593,21.199 L292.618155,20.9491497 C293.087577,16.8746143 297.004728,17.1724485 300.438873,16.0244845 C300.772609,21.2041237 306.276938,23.0412371 309.116013,20.7030928 C311.28298,19.0329897 314.620342,14.857732 316.791945,17.6969072 C317.793153,18.8659794 314.78721,22.5402062 316.289023,23.3752577 C318.29144,24.3773196 317.960021,18.0309278 321.128197,19.0329897 C323.631218,19.8680412 320.296174,23.542268 322.632327,25.0453608 C325.302217,26.7154639 325.633635,22.8742268 327.63837,22.5402062 C326.806347,20.8701031 325.302217,19.7010309 323.800404,18.6989691 C325.469085,18.0309278 327.302316,16.5278351 328.806446,17.5298969 C329.304733,17.8639175 328.637261,19.3670103 329.140182,19.7010309 C331.476336,21.8721649 336.31551,23.7092784 333.645621,25.8804124 C330.806546,28.2185567 329.974523,32.5608247 328.470393,35.2329897 C326.96858,37.571134 324.96848,35.0636598 322.632327,35.2329897 C318.458308,35.5670103 314.620342,44.7525773 322.465459,45.9216495 C318.126889,49.428866 317.457099,55.2742268 313.120847,58.4474227 C310.784694,60.1175258 307.113596,56.1092784 305.778651,60.2845361 C305.611783,60.9525773 306.276938,62.2886598 306.946728,62.6226804 C308.114805,63.1237113 309.781168,62.4556701 310.617826,62.956701 C311.116112,63.2907216 310.784694,64.6268041 310.784694,65.4618557 C314.620342,64.4597938 313.955187,66.7979381 316.122155,69.1360825 C317.290231,70.3051546 318.96123,69.3030928 319.960121,67.9670103 C321.297383,74.6474227 329.974523,73.8123711 332.14149,80.8268041 C332.310676,81.4948454 335.979456,80.4927835 337.81964,81.3278351 C342.055044,83.3808103 346.29356,85.5459465 350.348963,87.9151595 L350.353033,87.788621 C355.034215,90.6313002 359.383348,93.9756286 363.228605,97.9888227 C365.402011,100.329853 367.40591,103.841397 369.581638,106.015211 C374.594868,111.19892 383.455677,113.372733 389.307154,108.523457 C393.152411,105.346345 394.489891,100.329853 396.830482,95.8150092 C401.012431,87.788621 404.35381,79.2605835 406.195168,70.0636804 C408.031882,60.8667772 403.353022,51.8370905 406.027983,42.9746202 C407.028771,39.6302918 406.694401,35.7843141 409.202177,32.2727692 C410.87635,30.0989558 407.028771,28.4267916 408.031882,25.9185452 C411.877138,18.0593735 414.888792,10.8690674 417.728616,2.67546274 C417.895801,2.17381347 419.402789,2.50824631 421.074639,2.50824631 C422.07775,1.17051495 422.244935,0.501649263 423.582415,0 Z M547.12986,234.102989 C547.174752,234.259058 547.183896,234.409181 547.164446,234.549792 L547.154,234.601 L547.14572,234.484866 C547.138206,234.358666 547.132887,234.231388 547.12986,234.102989 Z M44.7148417,168.947073 C44.9298589,168.790301 44.9666787,168.780119 44.6516546,168.990535 L44.702,168.955 Z" id="path-2"></path>
        <filter x="-7.6%" y="-5.7%" width="115.2%" height="118.3%" filterUnits="objectBoundingBox" id="filter-3">
            <feOffset dx="0" dy="16" in="SourceAlpha" result="shadowOffsetOuter1"></feOffset>
            <feGaussianBlur stdDeviation="11.5" in="shadowOffsetOuter1" result="shadowBlurOuter1"></feGaussianBlur>
            <feColorMatrix values="0 0 0 0 0   0 0 0 0 0   0 0 0 0 0  0 0 0 0.5 0" type="matrix" in="shadowBlurOuter1"></feColorMatrix>
        </filter>
    </defs>
    <g id="页面-1" stroke="none" stroke-width="1" fill="none" fill-rule="evenodd">
        <g id="画板备份-7" transform="translate(-90.000000, -2893.000000)">
            <g id="编组" transform="translate(113.000000, 2897.000000)">
                <g id="形状结合">
                    <use fill="black" fill-opacity="1" filter="url(#filter-3)" xlink:href="#path-2"></use>
                    <use fill="url(#linearGradient-1)" fill-rule="evenodd" xlink:href="#path-2"></use>
                </g>
                <path d="M458.434305,480.355335 C455.810324,480.355335 454.235936,481.472586 451.786888,482.031211 C451.439454,482.168928 451.786888,483.705148 451.611956,483.705148 C439.544076,484.682743 430.095318,480.355335 420.126622,474.487827 C418.902098,473.791485 415.57596,473.929202 415.403458,474.350111 C413.82907,478.400146 413.126912,483.705148 415.750892,486.777588 C418.902098,490.55025 420.476487,494.458689 423.100467,498.089754 C421.701011,497.812381 420.653848,498.371007 420.476487,499.208945 C419.774329,506.471076 426.424175,511.638362 430.447611,517.50393 C432.89423,520.995339 437.967259,517.224617 442.168057,517.641647 C442.168057,512.89527 445.139471,510.938141 449.162908,507.727984 C450.737296,507.169358 447.938384,512.196988 454.410868,512.755613 C454.063434,507.727984 453.538638,504.79326 457.387142,500.465852 C458.084441,499.767571 459.136462,500.603569 459.833761,501.443447 C462.282809,496.136505 459.308965,492.226126 463.332401,487.058841 C465.608947,484.126057 461.585511,480.215678 458.434305,480.355335 Z" id="Fill-1" fill="#631C2C"></path>
            </g>
        </g>
    </g>
</svg>