<?xml version="1.0" encoding="UTF-8"?>
<svg width="169px" height="198px" viewBox="0 0 169 198" version="1.1" xmlns="http://www.w3.org/2000/svg" xmlns:xlink="http://www.w3.org/1999/xlink">
    <!-- Generator: Sketch 59.1 (86144) - https://sketch.com -->
    <title>Fill 15</title>
    <desc>Created with Sketch.</desc>
    <defs>
        <linearGradient x1="24.5221725%" y1="42.3109886%" x2="79.3216471%" y2="75.4805317%" id="linearGradient-1">
            <stop stop-color="#FD4750" offset="0%"></stop>
            <stop stop-color="#FE6558" offset="100%"></stop>
            <stop stop-color="#FE6558" offset="100%"></stop>
        </linearGradient>
    </defs>
    <g id="页面-1" stroke="none" stroke-width="1" fill="none" fill-rule="evenodd">
        <g id="画板备份-7" transform="translate(-1623.000000, -2289.000000)" fill="url(#linearGradient-1)" fill-rule="nonzero">
            <g id="编组-11" transform="translate(612.000000, 514.000000)">
                <path d="M1013.67458,1866.5794 L1011.16716,1775.16912 L1011,1775 L1139.87898,1777.004 L1180,1777.67123 L1176.98878,1825.37805 L1172.47774,1906.6131 L1168.46355,1973 C1165.78897,1971.50105 1163.44872,1969.66618 1161.27794,1967.49537 C1158.93769,1964.99326 1156.76459,1962.65796 1154.75633,1959.82456 C1151.07879,1954.31992 1156.92943,1948.64848 1154.42201,1943.14385 C1153.5862,1941.64027 1151.41543,1940.64174 1150.91162,1939.14048 C1149.7415,1934.30076 1152.24891,1926.62995 1147.90504,1925.96272 C1142.21924,1925.12637 1137.87537,1930.29971 1131.1866,1928.79612 C1138.70886,1922.79339 1138.87602,1912.95177 1133.69402,1905.44545 C1130.68744,1910.44735 1129.0135,1916.1211 1125.50544,1920.62489 C1122.49422,1924.46146 1119.31815,1921.95935 1115.64293,1919.62174 C1118.48467,1920.45809 1120.48828,1917.95598 1121.65841,1916.62152 C1125.83976,1912.11773 1123.99867,1906.44629 1127.34421,1900.77485 C1131.02408,1894.60299 1134.19782,1884.09183 1128.51434,1876.92144 C1128.01286,1883.0933 1125.1688,1889.09836 1121.49125,1893.10173 C1115.30628,1899.6072 1107.95119,1904.27548 1102.93635,1912.11773 C1101.76622,1913.95261 1105.11177,1915.62068 1104.94461,1917.11963 C1104.61029,1919.45725 1100.09693,1921.29212 1099.42597,1918.2896 C1098.25584,1913.7858 1099.09629,1908.44798 1097.08571,1904.27548 C1093.40816,1896.93597 1088.89713,1891.10004 1082.20836,1885.59541 C1081.20772,1884.75906 1082.87933,1881.75885 1082.545,1881.09162 C1080.53907,1876.08509 1075.18991,1870.58045 1070.5094,1871.7481 C1065.15792,1872.91807 1062.14901,1868.07835 1056.96934,1869.58193 C1054.29476,1870.24916 1050.28289,1865.91217 1046.60534,1864.40859 C1036.07418,1860.57435 1024.7049,1863.24094 1014.67755,1866.41259 C1014.34322,1866.5794 1014.0089,1866.5794 1013.67458,1866.74621 L1013.67458,1866.5794 Z" id="Fill-15"></path>
            </g>
        </g>
    </g>
</svg>