<?xml version="1.0" encoding="UTF-8"?>
<svg width="183px" height="146px" viewBox="0 0 183 146" version="1.1" xmlns="http://www.w3.org/2000/svg" xmlns:xlink="http://www.w3.org/1999/xlink">
    <!-- Generator: Sketch 59.1 (86144) - https://sketch.com -->
    <title>Fill 11</title>
    <desc>Created with Sketch.</desc>
    <defs>
        <linearGradient x1="82.416856%" y1="53.7640781%" x2="50%" y2="43.9053002%" id="linearGradient-1">
            <stop stop-color="#FEAC58" offset="0%"></stop>
            <stop stop-color="#FB8461" offset="100%"></stop>
        </linearGradient>
    </defs>
    <g id="页面-1" stroke="none" stroke-width="1" fill="none" fill-rule="evenodd">
        <g id="画板备份-7" transform="translate(-2384.000000, -2080.000000)" fill="url(#linearGradient-1)" fill-rule="nonzero">
            <g id="编组-11" transform="translate(612.000000, 514.000000)">
                <path d="M1883.66808,1712 C1876.66568,1706.80963 1869.66559,1703.9633 1863.33217,1697.93345 C1860.83214,1695.59174 1862.83448,1689.06193 1860.33445,1688.72474 C1848.83199,1687.38761 1837.00082,1686.04817 1825.33169,1684.87615 C1823.33398,1684.70872 1819.16495,1685.54587 1818.16494,1684.70872 C1812.9982,1680.02064 1807.1648,1676.67202 1802.50039,1671.81651 C1800.00035,1669.13761 1798.16468,1664.78208 1798.16468,1660.42887 C1793.49796,1660.59862 1787.16454,1662.1055 1785.83351,1656.41284 C1784.33349,1649.2133 1778.33341,1648.20872 1772,1647.53667 L1776.49774,1566 L1886.33709,1574.70642 C1888.99917,1571.52523 1893.66821,1570.68807 1896.83491,1570.51832 C1915.83284,1569.51606 1915.83284,1585.08716 1921.33522,1583.91514 C1925.50194,1585.42202 1931.66637,1574.70642 1937.16644,1573.36697 C1942.83318,1572.02752 1948.6689,1578.22248 1953.83332,1572.86468 C1953.99999,1575.20872 1954.50231,1577.55275 1955,1579.89679 C1952.99997,1580.39676 1952.83331,1583.24541 1951.83561,1584.41743 C1948.50223,1589.10318 1948.99992,1596.63991 1946.33554,1601.49541 C1945.16654,1603.67202 1943.99986,1607.52061 1943.3355,1609.19725 C1939.16647,1619.41055 1934.1664,1631.29817 1924.16859,1638.83257 C1922.66857,1640.00459 1922.33292,1643.18345 1920.99957,1644.52523 C1918.17083,1647.0367 1914.83283,1649.54817 1912.00177,1652.39217 C1911.33278,1653.06189 1909.1684,1652.22706 1908.66608,1652.89679 C1907.66607,1654.23391 1910.83277,1655.91055 1909.50174,1657.75229 C1908.33506,1659.42661 1905.83503,1659.59404 1904.8327,1660.76606 C1903.66602,1662.1055 1904.99937,1665.11927 1904.16834,1666.79358 C1903.66602,1667.9656 1901.33265,1668.13303 1900.66829,1669.63758 C1899.33494,1672.48624 1898.83262,1676.00229 1897.33723,1678.34633 C1891.16817,1688.22245 1883.50141,1696.93119 1884.66809,1708.65138 C1884.66809,1709.82339 1884.33244,1710.99541 1883.66808,1712" id="Fill-11"></path>
            </g>
        </g>
    </g>
</svg>