<?xml version="1.0" encoding="UTF-8"?>
<svg width="140px" height="243px" viewBox="0 0 140 243" version="1.1" xmlns="http://www.w3.org/2000/svg" xmlns:xlink="http://www.w3.org/1999/xlink">
    <!-- Generator: Sketch 59.1 (86144) - https://sketch.com -->
    <title>Fill 7</title>
    <desc>Created with Sketch.</desc>
    <defs>
        <linearGradient x1="50%" y1="86.768516%" x2="50%" y2="40.4247795%" id="linearGradient-1">
            <stop stop-color="#FEAC58" offset="0%"></stop>
            <stop stop-color="#FB8461" offset="100%"></stop>
        </linearGradient>
    </defs>
    <g id="页面-1" stroke="none" stroke-width="1" fill="none" fill-rule="evenodd">
        <g id="画板备份-7" transform="translate(-1805.000000, -1408.000000)" fill="url(#linearGradient-1)" fill-rule="nonzero">
            <g id="编组-11" transform="translate(612.000000, 514.000000)">
                <path d="M1193,956.294845 C1193.49829,956.294845 1194.00121,956.461856 1194.33494,956.795876 C1196.50423,958.96701 1199.33867,959.301031 1201.3434,959.802062 C1203.3435,960.136082 1202.51148,956.461856 1200.00614,955.125773 C1201.84169,954.290722 1201.67714,952.453608 1201.00967,951.451546 C1200.67593,950.783505 1198.67351,952.620619 1198.50433,949.948454 C1198.33746,942.934021 1202.84522,937.756701 1205.68197,931.91134 C1206.01571,931.243299 1209.18389,932.412371 1210.01823,931.410309 C1211.68691,929.907216 1208.18268,927.235052 1209.35307,925.397938 C1210.85488,923.226804 1212.02296,921.389691 1211.68691,918.717526 C1213.35791,919.051546 1215.85861,922.057732 1216.85982,920.053608 C1213.85851,918.383505 1216.36153,915.71134 1215.52719,913.540206 C1218.69537,915.043299 1219.03142,921.890722 1222.86939,919.385567 C1224.70493,918.216495 1220.03263,911.703093 1223.20312,912.204124 C1230.37613,913.373196 1241.05569,910.03299 1249.23454,909.698969 C1245.39426,907.694845 1249.56828,904.354639 1247.56586,902.350515 C1244.56224,899.678351 1239.55388,899.678351 1235.21531,898.676289 C1233.04602,898.175258 1236.8863,896.004124 1236.3857,894 C1239.72306,897.507216 1243.39416,894.16701 1246.2286,896.171134 C1248.06415,897.340206 1251.07009,900.513402 1253.23938,898.008247 C1252.5719,907.193814 1264.08348,904.020619 1269.92618,904.85567 C1273.26355,905.356701 1272.76062,909.197938 1272.59376,912.204124 C1272.92749,907.861856 1276.93464,908.195876 1280.43887,907.024485 C1280.77261,912.204124 1286.27694,914.041237 1289.11601,911.703093 C1291.28298,910.03299 1294.62034,905.857732 1296.79194,908.696907 C1297.79315,909.865979 1294.78721,913.540206 1296.28902,914.375258 C1298.29144,915.37732 1297.96002,909.030928 1301.1282,910.03299 C1303.63122,910.868041 1300.29617,914.542268 1302.63233,916.045361 C1305.30222,917.715464 1305.63364,913.874227 1307.63837,913.540206 C1306.80635,911.870103 1305.30222,910.701031 1303.8004,909.698969 C1305.46908,909.030928 1307.30232,907.527835 1308.80645,908.529897 C1309.30473,908.863918 1308.63726,910.36701 1309.14018,910.701031 C1311.47634,912.872165 1316.31551,914.709278 1313.64562,916.880412 C1310.80655,919.218557 1309.97452,923.560825 1308.47039,926.23299 C1306.96858,928.571134 1304.96848,926.06366 1302.63233,926.23299 C1298.45831,926.56701 1294.62034,935.752577 1302.46546,936.921649 C1298.12689,940.428866 1297.4571,946.274227 1293.12085,949.447423 C1290.78469,951.117526 1287.1136,947.109278 1285.77865,951.284536 C1285.61178,951.952577 1286.27694,953.28866 1286.94673,953.62268 C1288.1148,954.123711 1289.78117,953.45567 1290.61783,953.956701 C1291.11611,954.290722 1290.78469,955.626804 1290.78469,956.461856 C1294.62034,955.459794 1293.95519,957.797938 1296.12215,960.136082 C1297.29023,961.305155 1298.96123,960.303093 1299.96012,958.96701 C1301.29738,965.647423 1309.97452,964.812371 1312.14149,971.826804 C1312.31068,972.494845 1315.97946,971.492784 1317.81964,972.327835 C1322.98792,974.83299 1328.16083,977.505155 1333,980.51134 L1326.65901,1137 L1198.00604,1134.99588 L1193,956.294845 Z" id="Fill-7"></path>
            </g>
        </g>
    </g>
</svg>