<?xml version="1.0" encoding="UTF-8"?>
<svg width="215px" height="311px" viewBox="0 0 215 311" version="1.1" xmlns="http://www.w3.org/2000/svg" xmlns:xlink="http://www.w3.org/1999/xlink">
    <!-- Generator: Sketch 59.1 (86144) - https://sketch.com -->
    <title>Fill 13</title>
    <desc>Created with Sketch.</desc>
    <defs>
        <linearGradient x1="33.2861883%" y1="42.3109886%" x2="69.2354113%" y2="75.4805317%" id="linearGradient-1">
            <stop stop-color="#FD4750" offset="0%"></stop>
            <stop stop-color="#FE6558" offset="100%"></stop>
            <stop stop-color="#FE6558" offset="100%"></stop>
        </linearGradient>
    </defs>
    <g id="页面-1" stroke="none" stroke-width="1" fill="none" fill-rule="evenodd">
        <g id="画板备份-7" transform="translate(-2194.000000, -1496.000000)" fill="url(#linearGradient-1)" fill-rule="nonzero">
            <g id="编组-11" transform="translate(612.000000, 514.000000)">
                <path d="M1619.11509,1274.96317 L1729.29469,1283.65842 C1731.96501,1280.48131 1736.64851,1279.64523 1739.82503,1279.47569 C1758.8818,1278.47471 1758.8818,1294.02584 1764.40123,1292.85533 C1768.58086,1294.36027 1774.76439,1283.65842 1780.28149,1282.32069 C1785.96579,1280.98296 1791.81958,1287.16997 1797,1281.81904 C1795.33047,1267.43843 1797.67106,1253.0555 1794.9961,1238.17556 C1794.82659,1236.83783 1793.15707,1234.16236 1790.31492,1234.32958 C1792.65551,1226.97206 1785.29937,1223.2933 1785.12986,1216.10299 C1785.46655,1217.2735 1783.79238,1218.10959 1783.12596,1217.10629 C1778.11041,1210.41763 1772.09175,1205.06671 1770.75427,1197.70918 C1770.0832,1193.02712 1771.09096,1187.34176 1770.41757,1182.32527 C1770.25039,1180.82032 1767.74261,1179.81703 1765.73871,1179.64981 C1767.40824,1181.48919 1766.90901,1183.83022 1766.90901,1186.17125 C1764.90279,1183.99744 1762.89425,1180.82032 1760.38647,1180.15146 C1752.69596,1178.47697 1759.55287,1183.16135 1759.21617,1184.83352 C1758.71694,1182.82692 1755.87479,1184.33187 1755.37092,1182.15806 C1753.03033,1172.79394 1753.36702,1163.09538 1747.51554,1155.23621 C1744.3367,1151.22302 1744.3367,1141.69168 1739.15397,1139.01622 C1734.3056,1136.50797 1733.46967,1133.66529 1728.28694,1131.49148 C1728.28694,1131.99313 1725.44711,1130.98983 1725.44711,1131.49148 C1725.77916,1128.81602 1724.60886,1126.47499 1722.60497,1125.30447 C1719.7605,1123.46509 1715.41601,1122.96344 1714.4129,1120.78963 C1709.23016,1110.08778 1708.89347,1097.88098 1709.06298,1086.00861 C1709.06298,1083.8348 1703.54355,1082.49707 1702.70762,1080.49047 C1700.70372,1076.14285 1699.86547,1071.12635 1698.19595,1066.44429 C1696.35459,1061.76223 1702.37325,1056.74574 1697.85925,1052.39811 C1694.014,1048.55214 1690.33593,1045.04059 1687.66096,1040.52575 C1684.82114,1042.36513 1681.31025,1045.87667 1679.13453,1043.87008 C1675.62364,1040.35853 1676.62675,1034.00431 1675.28927,1028.98781 C1672.94868,1019.28926 1671.11196,1010.09236 1666.93002,1000.89546 C1664.58942,995.54453 1662.58553,988.52144 1661.58242,982 C1660.24493,982.501649 1660.07775,983.170515 1659.07464,984.508246 C1657.40279,984.508246 1655.8958,984.173813 1655.72862,984.675463 C1652.88879,992.869067 1649.87714,1000.05937 1646.03188,1007.91855 C1645.02877,1010.42679 1648.87635,1012.09896 1647.20218,1014.27277 C1644.6944,1017.78431 1645.02877,1021.63029 1644.02798,1024.97462 C1641.35302,1033.83709 1646.03188,1042.86678 1644.19517,1052.06368 C1642.35381,1061.26058 1639.01243,1069.78862 1634.83048,1077.81501 C1632.48989,1082.32985 1631.15241,1087.34635 1627.30715,1090.52346 C1621.45568,1095.37273 1612.59487,1093.19892 1607.58164,1088.01521 C1605.40591,1085.8414 1603.40201,1082.32985 1601.22861,1079.98882 C1597.38335,1075.97563 1593.03421,1072.6313 1588.35303,1069.78862 L1582,1226.47041 L1622.12674,1226.97206 L1619.11509,1274.96317 Z" id="Fill-13"></path>
            </g>
        </g>
    </g>
</svg>