<?xml version="1.0" encoding="UTF-8"?>
<svg width="50px" height="45px" viewBox="0 0 50 45" version="1.1" xmlns="http://www.w3.org/2000/svg" xmlns:xlink="http://www.w3.org/1999/xlink">
    <!-- Generator: Sketch 59.1 (86144) - https://sketch.com -->
    <title>Fill 1</title>
    <desc>Created with Sketch.</desc>
    <defs>
        <linearGradient x1="65.7507113%" y1="114.64978%" x2="40.7459319%" y2="55.0447628%" id="linearGradient-1">
            <stop stop-color="#D4DE7C" offset="0%"></stop>
            <stop stop-color="#78B67C" offset="100%"></stop>
        </linearGradient>
        <path d="M2025.4343,2444.35533 C2022.81032,2444.35533 2021.23594,2445.47259 2018.78689,2446.03121 C2018.43945,2446.16893 2018.78689,2447.70515 2018.61196,2447.70515 C2006.54408,2448.68274 1997.09532,2444.35533 1987.12662,2438.48783 C1985.9021,2437.79149 1982.57596,2437.9292 1982.40346,2438.35011 C1980.82907,2442.40015 1980.12691,2447.70515 1982.75089,2450.77759 C1985.9021,2454.55025 1987.47649,2458.45869 1990.10047,2462.08975 C1988.70101,2461.81238 1987.65385,2462.37101 1987.47649,2463.20895 C1986.77433,2470.47108 1993.42418,2475.63836 1997.44761,2481.50393 C1999.89423,2484.99534 2004.96726,2481.22462 2009.16806,2481.64165 C2009.16806,2476.89527 2012.13947,2474.93814 2016.16291,2471.72798 C2017.7373,2471.16936 2014.93838,2476.19699 2021.41087,2476.75561 C2021.06343,2471.72798 2020.53864,2468.79326 2024.38714,2464.46585 C2025.08444,2463.76757 2026.13646,2464.60357 2026.83376,2465.44345 C2029.28281,2460.1365 2026.30896,2456.22613 2030.3324,2451.05884 C2032.60895,2448.12606 2028.58551,2444.21568 2025.4343,2444.35533 Z" id="path-2"></path>
    </defs>
    <g id="页面-1" stroke="none" stroke-width="1" fill="none" fill-rule="evenodd">
        <g id="画板备份-7" transform="translate(-1981.000000, -2438.000000)">
            <g id="Fill-1">
                <use fill="#631C2C" xlink:href="#path-2"></use>
                <use fill="url(#linearGradient-1)" xlink:href="#path-2"></use>
            </g>
        </g>
    </g>
</svg>