<?xml version="1.0" encoding="UTF-8"?>
<svg width="116px" height="88px" viewBox="0 0 116 88" version="1.1" xmlns="http://www.w3.org/2000/svg" xmlns:xlink="http://www.w3.org/1999/xlink">
    <!-- Generator: Sketch 59.1 (86144) - https://sketch.com -->
    <title>Fill 3</title>
    <desc>Created with Sketch.</desc>
    <defs>
        <linearGradient x1="65.7507113%" y1="95.9336964%" x2="40.7459319%" y2="53.5843061%" id="linearGradient-1">
            <stop stop-color="#D4DE7C" offset="0%"></stop>
            <stop stop-color="#78B67C" offset="100%"></stop>
        </linearGradient>
    </defs>
    <g id="页面-1" stroke="none" stroke-width="1" fill="none" fill-rule="evenodd">
        <g id="画板备份-7" transform="translate(-2092.000000, -2373.000000)" fill="url(#linearGradient-1)" fill-rule="nonzero">
            <g id="编组-11" transform="translate(612.000000, 514.000000)">
                <g id="编组" transform="translate(668.000000, 1294.000000)">
                    <path d="M928,629.047679 C926.829995,630.877547 924.654806,632.042008 923.152835,631.542953 C914.127079,628.714976 907.773299,636.531191 899.585583,634.37093 C897.245572,633.871876 894.234665,632.871456 893.401269,633.871876 C889.3875,639.361479 886.046949,644.352027 878.859773,645.849191 C877.522624,646.181895 881.199784,649.340265 879.862635,651.505146 C879.358883,652.336904 878.188877,652.503256 877.35548,653 C877.689768,650.673388 875.01547,648.84352 876.018331,646.514598 C870.50027,648.175803 866.324001,644.019324 862.143089,642.020794 C858.633073,640.190926 859.970222,638.197017 862.646841,634.537282 C864.4831,632.206049 861.811123,628.215921 860.30683,627.716866 C856.796814,626.885108 858.136284,633.539172 856.293062,634.035917 C848.771598,636.531191 842.587284,646.345936 836.570113,642.522159 C828.881507,637.531611 819.690928,635.535392 812,631.041588 L816.013769,565 C822.365226,565.667717 828.382397,566.665827 829.88669,573.818946 C831.221517,579.4749 837.572975,577.977736 842.252997,577.809074 C842.252997,582.134216 844.093898,586.461668 846.601053,589.123293 C851.278753,593.94749 857.12878,597.274522 862.310232,601.932367 C863.313094,602.764125 867.494006,601.932367 869.497408,602.098719 C881.199784,603.26318 893.06466,604.593993 904.599892,605.922495 C907.107046,606.257509 905.099001,612.745222 907.606156,615.071834 C913.957614,621.062802 920.977646,623.890779 928,629.047679 Z" id="Fill-3"></path>
                </g>
            </g>
        </g>
    </g>
</svg>