<svg xmlns="http://www.w3.org/2000/svg" viewBox="0 0 496.51 119.78"><defs><style>.cls-1{fill:#FFF;}</style></defs><title>fame-logo</title><g id="Layer_2" data-name="Layer 2"><g id="Layer_1-2" data-name="Layer 1"><path class="cls-1" d="M68.43,18.6a8.53,8.53,0,0,0,0-17.05H9.4A9.3,9.3,0,0,0,0,10.95V95.56a8.71,8.71,0,0,0,8.76,8.84,8.7,8.7,0,0,0,8.74-8.84V60.85H61.92a8.53,8.53,0,1,0,0-17.05H17.5V18.6Z"/><path class="cls-1" d="M202,91.51,164.43,7.59c-2.21-4.9-6-7.48-10.95-7.48h-.87c-5,0-8.91,2.66-11.09,7.48L103.9,91.5a9.38,9.38,0,0,0-1.2,4.23,8.58,8.58,0,0,0,8.67,8.67,9,9,0,0,0,8.64-5.9l8.42-19.28h48.64l8.13,18.7c1.77,4.18,5,6.48,9.07,6.48a8.79,8.79,0,0,0,8.82-9A8.17,8.17,0,0,0,202,91.51Zm-32.14-28.9h-34.3l17.15-39.46Z"/><path class="cls-1" d="M488.12,86.92H436.63V60.56h44.26a8.32,8.32,0,0,0,8.38-8.24,8.46,8.46,0,0,0-8.38-8.53H436.63V18.31H487.4a8.39,8.39,0,0,0,8.38-8.38,8.49,8.49,0,0,0-8.38-8.38H428.51a9.29,9.29,0,0,0-9.39,9.4V94.29a9.29,9.29,0,0,0,9.39,9.39h59.61a8.39,8.39,0,0,0,8.38-8.38A8.49,8.49,0,0,0,488.12,86.92Z"/><path class="cls-1" d="M353.72,22.87V79.8l17,17V13.19A13.09,13.09,0,0,0,357.48,0a12.81,12.81,0,0,0-9.21,3.88L313,39.11l12.22,12.22Z"/><path class="cls-1" d="M254.94,3.88A12.8,12.8,0,0,0,245.73,0a13.09,13.09,0,0,0-13.26,13.19V50.67a69.18,69.18,0,0,0,69.11,69.11h69.26Zm74.43,98.89H301.58c-28.24,0-52.1-23.86-52.1-52.1V22.87Z"/><polygon class="cls-1" points="333.85 60.66 341.89 52.61 341.89 68.7 333.85 60.66"/></g></g></svg>