<svg width="191" height="57" viewBox="0 0 191 57" xmlns="http://www.w3.org/2000/svg" xmlns:xlink="http://www.w3.org/1999/xlink">
  <title>
    1C9D2A1B-42BF-4005-B272-DFDE64898F35
  </title>
  <defs>
    <path id="a" d="M95.3197606 55.9133488h95.3197604V0H0v55.9133488z"/>
  </defs>
  <g transform="translate(0 .61)" fill="none" fill-rule="evenodd">
    <mask id="b" fill="#fff">
      <use xlink:href="#a"/>
    </mask>
    <path d="M89.9162092 26.6248605l.9913169-2.6855349h.1654436l.9913169 2.6855349h-2.1480774zm.363169-8.2710698l-5.7353803 12.4322326H88.21335l.6281479-1.425721h4.2975l.6281479 1.425721h3.6693521l-5.7353803-12.4322326h-1.4217394z" fill="#FFF" mask="url(#b)"/>
    <path d="M23.5239366 30.7813023h3.3694014V18.3571628h-3.3694014v12.4241395zM52.7281056-.26218605H0L8.78061972 18.3625581h3.73929578l3.1393944 6.777907 3.1407394-6.777907h3.7675422L16.9156056 30.792093h-2.273169l11.7209437 24.8590698 11.9280845-25.296093c-.9630704.4626511-2.0485423.7081395-3.1878169.7081395-3.5025634 0-6.6406127-2.7988372-6.6406127-6.4933023s3.1380493-6.4946512 6.6406127-6.4946512c2.3619436 0 4.4925352 1.044 5.7811127 2.9323721l-2.8085071 1.723814c-.6268028-.861907-1.5185845-1.441907-2.808507-1.441907-1.717655 0-3.2039578 1.574093-3.2039578 3.2803721 0 1.706279 1.4863028 3.2803721 3.2039578 3.2803721 1.2899225 0 2.1817042-.58 2.808507-1.441907l1.6100493.9873488 2.8246479-5.990186h2.4211268v9.3757674h3.3694014v-9.3757674h3.3868873v-3.0483721H43.948831L52.7281056-.26218605z" fill="#FFF" mask="url(#b)"/>
    <path d="M59.1220324 27.8497395c-1.8010493 0-3.2712113-1.474279-3.2712113-3.2803721 0-1.806093 1.470162-3.2790232 3.2712113-3.2790232s3.2712113 1.4729302 3.2712113 3.2790232c0 1.8060931-1.470162 3.2803721-3.2712113 3.2803721m0-9.7736744c-3.6841479 0-6.8719648 2.7988372-6.8719648 6.4933023 0 3.6944652 3.1878169 6.4933024 6.8719648 6.4933024 3.6841479 0 6.8719648-2.7988372 6.8719648-6.4933024 0-3.6944651-3.1878169-6.4933023-6.8719648-6.4933023" fill="#FFF" mask="url(#b)"/>
    <path d="M73.0800972 24.3543628h-2.1480775v-2.9485581h2.1480775c.7599648 0 1.2549507.8619069 1.2549507 1.474279 0 .6123721-.4949859 1.4742791-1.2549507 1.4742791m4.7911408-1.4742791c0-2.6005581-2.0660281-4.5226511-4.6754648-4.5226511h-5.6331549v12.4241395h3.3694014v-3.3788372h1.585838l1.5374155 3.3788372h3.7823381l-2.0983099-4.1746512c1.1903873-.828186 2.1319366-2.054279 2.1319366-3.7268372" fill="#FFF" mask="url(#b)"/>
    <path fill="#FFF" mask="url(#b)" d="M79.5219085 30.7813023h3.3694014V18.3571628h-3.3694014"/>
    <path d="M44.5810141 40.2242419l1.1782817-.4707442c.1883098.5570697.6402535.8052558 1.2468803.8052558.6671549 0 1.0168732-.3169768 1.0168732-.7283721 0-.3250698-.153338-.522-.6658099-.6258605l-1.127169-.2306511c-.6832958-.1375814-1.5037887-.522-1.5037887-1.6442326 0-1.0278139.8366338-1.7467442 2.177669-1.7467442.9819014 0 1.7674225.4532093 2.1184859 1.2153023l-1.1110281.3682326c-.1869648-.3587907-.5797254-.5826977-1.0330141-.5826977-.5810705 0-.9307888.3264186-.9307888.7108372 0 .2913489.1277817.4882791.571655.5826977l1.1446549.2481861c.9307887.2063721 1.5037887.754 1.5037887 1.6442325 0 1.1141396-.9146479 1.8074419-2.2718239 1.8074419-1.0679859 0-2.0162606-.4451163-2.3148662-1.3528837" fill="#FFF" mask="url(#b)"/>
    <path d="M53.1215387 41.2604186c-.4438732.240093-.7518943.3169767-1.1096831.3169767-1.0088028 0-1.6746126-.5314418-1.6746126-1.7049302V38.100093h-.9133029v-.9253023h.9133029v-1.292186h1.127169v1.292186h1.3921479v.9253023H51.464412v1.6873954c0 .5139069.2474929.7364651.6241126.7364651.1963803 0 .4869155-.0849768.7088522-.2050233l.3241619.9414884z" fill="#FFF" mask="url(#b)"/>
    <path d="M56.7167775 39.3164744c0-.7877209-.6066268-1.284093-1.2132536-1.284093-.6832957 0-1.1957676.4963721-1.1957676 1.284093s.5124719 1.276 1.1957676 1.276c.6066268 0 1.2132536-.4882791 1.2132536-1.276zm1.127169-2.1406046v4.2731162h-1.127169v-.3345116c-.3591338.2913489-.8285634.4626512-1.4096338.4626512-1.0841268 0-2.0915845-.9158605-2.0915845-2.2606512s1.0074577-2.270093 2.0915845-2.270093c.5810704 0 1.0505.1713023 1.4096338.472093v-.3426046h1.127169z" fill="#FFF" mask="url(#b)"/>
    <path d="M61.969143 41.2604186c-.4438733.240093-.7518944.3169767-1.1096831.3169767-1.0088029 0-1.6746127-.5314418-1.6746127-1.7049302V38.100093h-.9133028v-.9253023h.9133028v-1.292186h1.127169v1.292186h1.3921479v.9253023h-1.3921479v1.6873954c0 .5139069.247493.7364651.6241127.7364651.1963803 0 .4869155-.0849768.7088521-.2050233l.324162.9414884z" fill="#FFF" mask="url(#b)"/>
    <path d="M63.2156197 38.8198326h2.0579578c-.1533381-.5476279-.5555141-.787721-1.0074578-.787721-.4263873 0-.9133028.2562791-1.0505.787721zm3.2106831.7958139H63.181993c.1102957.6177675.554169.994093 1.1096831.994093.3416478 0 .7169225-.0606976 1.0155281-.4275814l.897162.4451163c-.4089014.6420465-1.0760563.9495814-1.9126901.9495814-1.2468803 0-2.2287817-.9158605-2.2287817-2.2606511 0-1.3447907.9819014-2.2687442 2.2032253-2.2687442 1.1352395 0 2.1184859.8821395 2.1601831 2.1837674v.3844186z" fill="#FFF" mask="url(#b)"/>
    <path d="M50.405438 46.5706558c0 1.7049302-1.2119084 2.9809302-2.904007 2.9809302-1.7068944 0-3.0398592-1.3110697-3.0398592-2.9984651 0-1.6779535 1.3585212-2.9971162 3.0398592-2.9971162.897162 0 1.700169.3506976 2.2287817.9846511l-.9563451.6595814c-.324162-.3763256-.7761056-.5476279-1.2724366-.5476279-1.0249437 0-1.8615775.8133488-1.8615775 1.9005116 0 1.0885117.8285634 1.9099535 1.8965493 1.9099535.8702606 0 1.5199296-.513907 1.7163099-1.3272558h-1.4943733v-1.0615349h2.6215423c.0174859.1969303.0255563.3601396.0255563.4963721" fill="#FFF" mask="url(#b)"/>
    <path d="M54.3599451 47.2902605c0-.7971628-.6146972-1.276-1.2038381-1.276-.6146971 0-1.2307394.4788372-1.2307394 1.276 0 .7958139.6160423 1.276 1.2307394 1.276.5891409 0 1.2038381-.4801861 1.2038381-1.276m1.0935422 0c0 1.3447907-1.0505 2.2444651-2.2973803 2.2444651-1.2724366 0-2.3229366-.8996744-2.3229366-2.2444651 0-1.3447907 1.0505-2.2444652 2.3229366-2.2444652 1.2468803 0 2.2973803.8996745 2.2973803 2.2444652" fill="#FFF" mask="url(#b)"/>
    <path fill="#FFF" mask="url(#b)" d="M60.3722754 45.1403488l-1.775493 4.2825582h-1.1971127l-1.7754929-4.2825582h1.2119084l1.1621409 2.9040465 1.1621408-2.9040465"/>
    <path d="M61.6960937 46.7933488h2.0579577c-.153338-.5476279-.5555141-.7877209-1.0074577-.7877209-.4263874 0-.9133029.2562791-1.0505.7877209zm3.2106831.795814h-3.2443099c.1102958.6177674.554169.994093 1.1096831.994093.3416479 0 .7169225-.0606977 1.0155282-.4275814l.8971619.4451163c-.4089014.6420465-1.0760563.9495814-1.9126901.9495814-1.2468803 0-2.2287817-.9158605-2.2287817-2.2606512s.9819014-2.2687442 2.2032254-2.2687442c1.1352394 0 2.1184859.8821396 2.1601831 2.1837675v.3844186z" fill="#FFF" mask="url(#b)"/>
    <path d="M68.5457303 45.1233535l-.0591831 1.0871628h-.248838c-1.0410846 0-1.5199296.6420465-1.5199296 1.8330697v1.3785117h-1.127169v-4.2731163h1.127169v.7796279c.3416479-.4963721.8366338-.8389767 1.529345-.8389767.1102958 0 .1963803 0 .2986057.0337209" fill="#FFF" mask="url(#b)"/>
    <path d="M73.2599331 46.8191116v2.6032558h-1.127169v-2.3631627c0-.6002326-.3416479-1.0021861-.8621902-1.0021861-.6415985 0-1.0599154.4275814-1.0599154 1.4729302v1.8924186h-1.1271691v-4.2731162h1.1271691v.3857674c.3335774-.3345116.7774507-.513907 1.3410352-.513907 1.0249436 0 1.7082394.7351163 1.7082394 1.798" fill="#FFF" mask="url(#b)"/>
    <path d="M81.185357 46.7503209v2.6720465h-1.1190985v-2.4400465c0-.5746046-.3672043-.9253023-.8366339-.9253023-.5972112 0-.9913169.4113954-.9913169 1.3097209v2.0556279h-1.127169v-2.4400465c0-.5746046-.3672042-.9253023-.8366338-.9253023-.5972112 0-.973831.4113954-.973831 1.3097209v2.0556279h-1.127169v-4.2731162h1.127169v.3506976c.2986057-.2994418.7182676-.4788372 1.2724367-.4788372.573 0 1.0935422.2481861 1.4015633.7013954.3497184-.4370233.8702606-.7013954 1.5535564-.7013954.8877465 0 1.6571267.6838605 1.6571267 1.7292093" fill="#FFF" mask="url(#b)"/>
    <path d="M82.9188838 46.7933488h2.0579577c-.153338-.5476279-.555514-.7877209-1.0074577-.7877209-.4263873 0-.9133028.2562791-1.0505.7877209zm3.2106831.795814H82.885257c.1102958.6177674.5541691.994093 1.1096831.994093.3416479 0 .7169226-.0606977 1.0168733-.4275814l.8958169.4451163c-.4089014.6420465-1.0760564.9495814-1.9126902.9495814-1.2468802 0-2.2287816-.9158605-2.2287816-2.2606512s.9819014-2.2687442 2.2032253-2.2687442c1.1352394 0 2.1184859.8821396 2.1601831 2.1837675v.3844186z" fill="#FFF" mask="url(#b)"/>
    <path d="M90.9897099 46.8191116v2.6032558h-1.1271691v-2.3631627c0-.6002326-.3416478-1.0021861-.8621901-1.0021861-.6415986 0-1.0599155.4275814-1.0599155 1.4729302v1.8924186h-1.127169v-4.2731162h1.127169v.3857674c.3335775-.3345116.7774507-.513907 1.3410352-.513907 1.0249437 0 1.7082395.7351163 1.7082395 1.798" fill="#FFF" mask="url(#b)"/>
    <path d="M95.0038035 49.2340698c-.4438732.240093-.7518943.3169767-1.1096831.3169767-1.0088028 0-1.6746127-.5314418-1.6746127-1.7049302v-1.7723721h-.9133028v-.9253023h.9133028v-1.2921861h1.1271691v1.2921861h1.3921478v.9253023h-1.3921478v1.6873953c0 .513907.2474929.7364652.6241126.7364652.1950352 0 .4855705-.0849768.7075071-.2050233l.325507.9414884z" fill="#FFF" mask="url(#b)"/>
    <path fill="#FFF" mask="url(#b)" d="M110.446423 49.4303256h.259598V18.3490698h-.259598"/>
    <path fill="#FFF" mask="url(#b)" d="M129.012833 24.7193581v.7661396h-5.190627v-7.1299535h5.179867v.7553488h-4.340543v2.4157675h4.032521v.7553488h-4.032521v2.4373488"/>
    <path d="M135.060135 22.3460791v3.140093h-.807042V22.4958c0-.9792558-.582416-1.640186-1.452676-1.640186-1.093542 0-1.815845.7459069-1.815845 2.1082325v2.5223256h-.805697v-5.2469768h.805697v.861907c.425042-.6285581 1.104303-.9900465 1.974563-.9900465 1.263021 0 2.101.9050698 2.101 2.2350233" fill="#FFF" mask="url(#b)"/>
    <path fill="#FFF" mask="url(#b)" d="M141.214908 20.2387907l-2.313521 5.2469767h-.881021l-2.313521-5.2469767h.881021l1.866958 4.300093 1.879063-4.300093"/>
    <path d="M142.231782 25.4857674h.817803v-5.2469767h-.817803v5.2469767zm.96576-6.8332093c0 .3088838-.244803.5435814-.562239.5435814-.317437 0-.552824-.2346976-.552824-.5435814 0-.2873023.235387-.5422325.552824-.5422325.317436 0 .562239.2549302.562239.5422325z" fill="#FFF" mask="url(#b)"/>
    <path d="M148.101265 20.2282698l-.063218.7769302c-.096845-.0107907-.212521-.0107907-.308021-.0107907-1.390803 0-2.101 1.0534419-2.101 2.4697209v2.021907h-.817803v-5.2469767h.817803v1.2975814c.423697-.7769303 1.123134-1.3515349 2.101-1.3515349.126437 0 .221937 0 .371239.0431628" fill="#FFF" mask="url(#b)"/>
    <path d="M153.13008 22.8568837c0-1.2031628-.902542-2.021907-1.973218-2.021907-1.082782 0-1.996085.8187442-1.996085 2.021907 0 1.2139535.913303 2.0434884 1.996085 2.0434884 1.070676 0 1.973218-.8295349 1.973218-2.0434884m.796282 0c0 1.6064651-1.230739 2.7570233-2.7695 2.7570233-1.560282 0-2.781606-1.1505582-2.781606-2.7570233s1.221324-2.7354418 2.781606-2.7354418c1.538761 0 2.7695 1.1289767 2.7695 2.7354418" fill="#FFF" mask="url(#b)"/>
    <path d="M159.995589 22.3460791v3.140093h-.807043V22.4958c0-.9792558-.582415-1.640186-1.454021-1.640186-1.093542 0-1.8145.7459069-1.8145 2.1082325v2.5223256h-.805697v-5.2469768h.805697v.861907c.425043-.6285581 1.102958-.9900465 1.973219-.9900465 1.264366 0 2.102345.9050698 2.102345 2.2350233" fill="#FFF" mask="url(#b)"/>
    <path d="M169.630194 22.0906093v3.3950233h-.807043v-3.2574419c0-.8295349-.562239-1.3717674-1.34776-1.3717674-.965761 0-1.601979.712186-1.601979 1.9477209v2.6814884h-.807042v-3.2574419c0-.8295349-.560895-1.3717674-1.337-1.3717674-.965761 0-1.591219.712186-1.591219 1.9477209v2.6814884h-.807042v-5.2469768h.807042v.7877209c.37124-.5638139.965761-.9158604 1.782219-.9158604.807042 0 1.475542.3938604 1.783563 1.0750232.402176-.6595814 1.081437-1.0750232 1.973218-1.0750232 1.104303 0 1.953043.7877209 1.953043 1.980093" fill="#FFF" mask="url(#b)"/>
    <path d="M171.517596 22.4206698h3.639761c-.147958-1.0318605-.870261-1.5956745-1.749937-1.5956745-.850084 0-1.731105.5732559-1.889824 1.5956745zm4.457564.6069767h-4.489845c.073979 1.1815814.977866 1.8829768 1.911345 1.8829768.657739 0 1.272436-.2225582 1.675958-.8079535l.648324.3291162c-.478846.787721-1.306064 1.1923721-2.324282 1.1923721-1.412324 0-2.695521-1.0750232-2.695521-2.7462325 0-1.6806512 1.261676-2.7664651 2.706281-2.7664651 1.410979 0 2.513937 1.0642325 2.56774 2.618093v.298093z" fill="#FFF" mask="url(#b)"/>
    <path d="M182.055013 22.3460791v3.140093h-.807043V22.4958c0-.9792558-.582415-1.640186-1.454021-1.640186-1.093542 0-1.8145.7459069-1.8145 2.1082325v2.5223256h-.805697v-5.2469768h.805697v.861907c.425043-.6285581 1.102958-.9900465 1.974564-.9900465 1.263021 0 2.101.9050698 2.101 2.2350233" fill="#FFF" mask="url(#b)"/>
    <path d="M186.743928 25.2088512c-.423697.298093-.785521.4154418-1.209218.4154418-1.03974 0-1.729761-.6177674-1.729761-1.7777674v-2.9269768h-1.135239v-.6811628h1.135239v-1.6712093h.816458v1.6712093h1.868303v.6811628h-1.868303v2.8743721c0 .6811628.382 1.0642326.967106 1.0642326.295915 0 .625457-.1281395.890436-.3196744l.264979.6703721z" fill="#FFF" mask="url(#b)"/>
    <path fill="#FFF" mask="url(#b)" d="M187.773445 26.8904465h-.637563l.700781-2.7988372h.956345v.0215814"/>
    <path fill="#FFF" mask="url(#b)" d="M128.73669 36.3571256v.7661395h-4.913542v-7.1299535h.837979v6.363814"/>
    <path d="M134.010039 34.6651442v-.3196744c-.08474-1.16-1.007458-1.8829768-1.951697-1.8829768-1.082782 0-1.953043.7863721-1.953043 2.0421396 0 1.2463255.870261 2.0340465 1.953043 2.0340465.944239 0 1.866957-.7243256 1.951697-1.8735349zm.807042-2.7880465v5.2469767h-.807042v-.820093c-.476155.6069767-1.209219.9576744-2.080824.9576744-1.389458 0-2.609437-1.0966046-2.609437-2.7570232 0-1.6590698 1.219979-2.7556745 2.609437-2.7556745.871605 0 1.604669.3506977 2.080824.9576745v-.8295349h.807042z" fill="#FFF" mask="url(#b)"/>
    <path d="M141.16124 33.9838465v3.140093h-.805697v-2.9917209c0-.977907-.583761-1.6388372-1.454021-1.6388372-1.093542 0-1.8145.745907-1.8145 2.1082326v2.5223255h-.807042v-5.2469767h.807042v.861907c.423697-.6285582 1.102958-.9900465 1.973218-.9900465 1.263021 0 2.101.9050697 2.101 2.2350232" fill="#FFF" mask="url(#b)"/>
    <path d="M146.923791 34.6651442v-.3196744c-.08474-1.16-1.008803-1.8829768-1.953042-1.8829768-1.082782 0-1.953043.7863721-1.953043 2.0421396 0 1.2463255.870261 2.0340465 1.953043 2.0340465.944239 0 1.868302-.7243256 1.953042-1.8735349zm.807042-5.203814v7.6627442h-.807042v-.820093c-.4775.6069767-1.210564.9576744-2.080824.9576744-1.389458 0-2.609437-1.0966046-2.609437-2.7570232 0-1.6590698 1.219979-2.7556745 2.609437-2.7556745.87026 0 1.603324.3506977 2.080824.9576745v-3.2453024h.807042z" fill="#FFF" mask="url(#b)"/>
    <path fill="#FFF" mask="url(#b)" d="M149.267307 38.5279442h-.637563l.700781-2.7988372h.956345v.0215814"/>
    <path fill="#FFF" mask="url(#b)" d="M162.92569 29.9927721l-2.185739 7.1313023h-.882366l-1.80374-5.7905581-1.8145 5.7905581h-.87026L153.182 29.9927721h.871606l1.772802 5.8431628 1.813155-5.8431628h.817803l1.8145 5.8431628 1.772803-5.8431628"/>
    <path d="M167.635992 34.6651442v-.3196744c-.084739-1.16-1.008803-1.8829768-1.953042-1.8829768-1.082782 0-1.953042.7863721-1.953042 2.0421396 0 1.2463255.87026 2.0340465 1.953042 2.0340465.944239 0 1.868303-.7243256 1.953042-1.8735349zm.807043-2.7880465v5.2469767h-.807043v-.820093c-.4775.6069767-1.210563.9576744-2.080824.9576744-1.389457 0-2.609436-1.0966046-2.609436-2.7570232 0-1.6590698 1.219979-2.7556745 2.609436-2.7556745.870261 0 1.603324.3506977 2.080824.9576745v-.8295349h.807043z" fill="#FFF" mask="url(#b)"/>
    <path d="M173.258925 36.8467535c-.423698.298093-.785521.4154418-1.209219.4154418-1.041084 0-1.72976-.6177674-1.72976-1.7777674v-2.9269767h-1.136585v-.6811628h1.136585v-1.6712093h.816458v1.6712093h1.868302v.6811628h-1.868302v2.8743721c0 .6811627.382 1.0642325.96576 1.0642325.297261 0 .626803-.1281395.891782-.3196744l.264979.6703721z" fill="#FFF" mask="url(#b)"/>
    <path d="M174.287365 34.0583023h3.639761c-.147958-1.0332093-.870261-1.5970232-1.749937-1.5970232-.850084 0-1.731105.5746046-1.889824 1.5970232zm4.457564.6069768h-4.489845c.075324 1.1815814.977866 1.8829767 1.911345 1.8829767.657739 0 1.272436-.2225581 1.675958-.8079535l.648324.3291163c-.478846.7877209-1.304719 1.1923721-2.324282 1.1923721-1.412324 0-2.695521-1.0750233-2.695521-2.7462326 0-1.6806511 1.261676-2.7664651 2.706281-2.7664651 1.410979 0 2.513937 1.0642326 2.56774 2.618093v.2980931z" fill="#FFF" mask="url(#b)"/>
    <path d="M183.233429 31.8659023l-.063218.7769303c-.096846-.0107907-.212522-.0107907-.308022-.0107907-1.390802 0-2.102345 1.0534418-2.102345 2.4697209v2.021907h-.816457V31.876693h.816457v1.2989303c.425043-.7782791 1.124479-1.3515349 2.102345-1.3515349.126437 0 .221937 0 .37124.0418139" fill="#FFF" mask="url(#b)"/>
    <path d="M127.983585 46.3027767v-.3196744c-.084739-1.16-1.007458-1.8829767-1.953042-1.8829767-1.082782 0-1.953042.7863721-1.953042 2.0421395 0 1.2463256.87026 2.0340465 1.953042 2.0340465.945584 0 1.868303-.7243256 1.953042-1.8735349zm.807042-2.7880465v5.2469768h-.807042v-.820093c-.4775.6069767-1.210563.9576744-2.080824.9576744-1.389457 0-2.609436-1.0966047-2.609436-2.7570233 0-1.6590698 1.219979-2.7556744 2.609436-2.7556744.870261 0 1.603324.3506977 2.080824.9576744v-.8295349h.807042z" fill="#FFF" mask="url(#b)"/>
    <path d="M135.560232 45.621614v3.140093h-.807042v-2.991721c0-.9792558-.58376-1.6388372-1.454021-1.6388372-1.093542 0-1.8145.745907-1.8145 2.1082326v2.5223256h-.807042v-5.2469768h.807042v.861907c.423697-.6285581 1.102958-.9900465 1.973218-.9900465 1.263021 0 2.102345.9050698 2.102345 2.2350233" fill="#FFF" mask="url(#b)"/>
    <path d="M141.533287 46.3027767v-.3196744c-.08474-1.16-1.008803-1.8829767-1.953043-1.8829767-1.082781 0-1.953042.7863721-1.953042 2.0421395 0 1.2463256.870261 2.0340465 1.953042 2.0340465.94424 0 1.868303-.7243256 1.953043-1.8735349zm.807042-5.2038139v7.6627442h-.807042v-.820093c-.4775.6069767-1.210564.9576744-2.080824.9576744-1.389458 0-2.609437-1.0966047-2.609437-2.7570233 0-1.6590698 1.219979-2.7556744 2.609437-2.7556744.87026 0 1.603324.3506977 2.080824.9576744v-3.2453023h.807042z" fill="#FFF" mask="url(#b)"/>
    <path d="M152.091282 43.8441163c0-.8511163-.626802-1.458093-1.646366-1.458093h-2.259718v2.916186h2.259718c1.019564 0 1.646366-.6069767 1.646366-1.458093m.827219 0c0 1.3097209-.955 2.2134418-2.473585 2.2134418h-2.259718v2.7030698h-.837979v-7.1299535h3.097697c1.518585 0 2.473585.9037209 2.473585 2.2134419" fill="#FFF" mask="url(#b)"/>
    <path fill="#FFF" mask="url(#b)" d="M154.275542 48.7613023h.807043v-7.6627442h-.807043"/>
    <path d="M161.131097 46.3027767v-.3196744c-.084739-1.16-1.007458-1.8829767-1.953042-1.8829767-1.082782 0-1.953042.7863721-1.953042 2.0421395 0 1.2463256.87026 2.0340465 1.953042 2.0340465.945584 0 1.868303-.7243256 1.953042-1.8735349zm.807042-2.7880465v5.2469768h-.807042v-.820093c-.4775.6069767-1.210563.9576744-2.080824.9576744-1.389458 0-2.609436-1.0966047-2.609436-2.7570233 0-1.6590698 1.219978-2.7556744 2.609436-2.7556744.870261 0 1.603324.3506977 2.080824.9576744v-.8295349h.807042z" fill="#FFF" mask="url(#b)"/>
    <path d="M168.495089 45.621614v3.140093h-.807043v-2.991721c0-.9792558-.582415-1.6388372-1.454021-1.6388372-1.092197 0-1.8145.745907-1.8145 2.1082326v2.5223256h-.805697v-5.2469768h.805697v.861907c.425043-.6285581 1.102958-.9900465 1.974564-.9900465 1.263021 0 2.101.9050698 2.101 2.2350233" fill="#FFF" mask="url(#b)"/>
    <path d="M174.925198 45.621614v3.140093h-.807042v-2.991721c0-.9792558-.582416-1.6388372-1.454021-1.6388372-1.093543 0-1.8145.745907-1.8145 2.1082326v2.5223256h-.805698v-5.2469768h.805698v.861907c.425042-.6285581 1.102957-.9900465 1.973218-.9900465 1.264366 0 2.102345.9050698 2.102345 2.2350233" fill="#FFF" mask="url(#b)"/>
    <path d="M176.557979 48.7613023h.817803v-5.2469767h-.817803v5.2469767zm.96576-6.8332093c0 .3088837-.243457.5435814-.562239.5435814s-.552824-.2346977-.552824-.5435814c0-.2873023.234042-.5422325.552824-.5422325s.562239.2549302.562239.5422325z" fill="#FFF" mask="url(#b)"/>
    <path d="M184.229992 45.621614v3.140093h-.805698v-2.991721c0-.9792558-.58376-1.6388372-1.454021-1.6388372-1.093542 0-1.815845.745907-1.815845 2.1082326v2.5223256h-.805697v-5.2469768h.805697v.861907c.425042-.6285581 1.104303-.9900465 1.974564-.9900465 1.263021 0 2.101.9050698 2.101 2.2350233" fill="#FFF" mask="url(#b)"/>
    <path d="M189.843374 45.9086465c0-1.1168372-.870261-1.8195814-1.845437-1.8195814-1.062605 0-1.911345.7027442-1.911345 1.8195814 0 1.1181861.84874 1.8411628 1.911345 1.8411628.975176 0 1.845437-.7229767 1.845437-1.8411628zm.796282 2.4265582c-.010761 1.532279-1.156761 2.4481395-2.738564 2.4481395-.985936 0-1.803739-.3304651-2.270479-.9050698l.540719-.596186c.382.4680465.955.7661395 1.719.7661395 1.124479 0 1.953042-.7013953 1.953042-1.8195814v-.638c-.423697.5530233-1.093542.861907-1.963803.861907-1.378697 0-2.5785-1.0534419-2.5785-2.543907 0-1.4783256 1.199803-2.5223256 2.5785-2.5223256.870261 0 1.540106.3196744 1.963803.861907v-.7337674h.785521l.010761 4.8207442z" fill="#FFF" mask="url(#b)"/>
  </g>
</svg>