<svg id="Layer_1" fill="#fff" data-name="Layer 1" xmlns="http://www.w3.org/2000/svg" viewBox="0 0 140 157.5"><path d="M57.7,117.6a1.76,1.76,0,0,0-1.6,1.1L52.8,127l-.3.9-.3-1-2.5-8.1v-.1h0a1.71,1.71,0,0,0-1.6-1.2H44a1.83,1.83,0,0,0-1.7,1.7,3.71,3.71,0,0,0,.2.9L43,122l-2,5.1-.3.9-.3-.9L37.9,119v-.1h0a1.71,1.71,0,0,0-1.6-1.2H32.2a1.83,1.83,0,0,0-1.7,1.7,3.71,3.71,0,0,0,.2.9l6.1,18.3a1.71,1.71,0,0,0,1.7,1.3,1.62,1.62,0,0,0,1.6-1.2l4.3-10.9.3-1,.3,1,3.6,10.8a1.71,1.71,0,0,0,1.7,1.3,1.8,1.8,0,0,0,1.7-1.3L59.3,120a1.62,1.62,0,0,0-1.6-2.4"/><path d="M88.4,117.6a1.76,1.76,0,0,0-1.6,1.1L83.5,127l-.3.9-.2-1-2.6-8.1v-.1h0a1.71,1.71,0,0,0-1.6-1.2H74.7a1.73,1.73,0,0,0-1.6,1.7,3.71,3.71,0,0,0,.2.9l.5,1.7-2,5.1-.3.9-.2-.9-2.5-8.1v-.1h0a1.71,1.71,0,0,0-1.6-1.2H63.1a1.83,1.83,0,0,0-1.7,1.7,3.71,3.71,0,0,0,.2.9l6.2,18.3a1.71,1.71,0,0,0,1.7,1.3,1.62,1.62,0,0,0,1.6-1.2l4.3-10.9.3-1,.3,1,3.6,10.8a1.76,1.76,0,0,0,3.4,0l7.3-18.6a1.85,1.85,0,0,0,.2-.7,2.74,2.74,0,0,0-2.1-1.5"/><path d="M108.3,117.7H93.9a1.54,1.54,0,0,0-1.5,1.5h0v19.1h0a1.58,1.58,0,0,0,1.6,1.6h4.1a1.58,1.58,0,0,0,1.6-1.6v-8.9h5.9a1.5,1.5,0,0,0,1.5-1.6,1.58,1.58,0,0,0-1.6-1.6H99.7v-5.1h8.7a1.67,1.67,0,0,0,1.6-1.7,1.69,1.69,0,0,0-1.7-1.7"/><path d="M86,56.8c2.6,2.9,2.9,11.6,9.5,8.2,4-2.1,3.9-10.9-1.4-14-4.3-2.5-6.6.9-8.1,5-.2.3-.2.7,0,.8"/><path d="M75.8,55.4c-2.7,2.3-4.6,8.5-9.7,6.4-4.1-2.1-4.5-10.2,2.6-13.9,4.9-2.3,7.4,2.2,7.4,7a1.33,1.33,0,0,1-.3.5"/><path d="M82.5,71.4c2.7-.3,2.1-2.8,0-3.4a19.67,19.67,0,0,0-6.5-.9c-3.5.1-3.4,2.7-1.6,3.2,1.4.5,2.3.6,3.4,2.2,1.1,2,.7-.7,4.7-1.1"/><path d="M95.4,26.3c3.4-5.7,9.3-4.6,12.3-1.7,3.3,3.1,3.8,6.6,2.5,9.1-1.7,3.3-6.1,7.4-8.9,3.5a16.65,16.65,0,0,0-5.4-4.4c-2.2-1-2.6-3-.5-6.5"/><path d="M82.8,77.3c-1.5,3.9-9.2,2.6-9.4-1.2,0-.2.2-.1.3-.1a42.13,42.13,0,0,0,8.9,1.2c0-.1.2-.1.2.1m26.1-26c-.3-1-.8-.9-.8-.1.3,10.3-5.9,21.4-19.1,21.5-3.4,0-2.4,5.4-8.5,2.7-4.4-3-7,2.9-10.2-3.4a4.09,4.09,0,0,0-3.1-2.9c-13-3.3-17.2-21.2-5.7-35.7,2.3,1.4,3.1,1.6,5.5-.7a16.92,16.92,0,0,1,4.5-2.9c2.8-1.1,4.3-2.2,1.9-7.5-3.1-6.8-9.4-4.9-12.2-2.5-3.2,2.7-5.5,7-1.3,12.1-11.7,7.9-13.7,17.6-13.4,26,.3,9-2,8.2.8,17.3.3.8-.3.8-.7.5-12.2-7.8-18.8-31.6.2-44.7.4-.4.3-.9-1.3,0-16.4,8.7-18,25.5-15.2,36.9,1.3,5.5-.7,6.5,1.4,13.7,4.9,15,9.1,16.2,15,16.7,10.7,0,3.5-5.9,3.8-13.3,0-.4.5-.6.8.2,5.9,13.2,10.1,25.3,25.6,24.2,9-1.2,4-5.6,3.5-8.2-6.6-21.9,9.4-27.1,4.9-5.7-3,12.2,6.5,11,13.1,6.6,6.9-4.5,15.5-34.4,10.5-50.8"/><path d="M45.5,100.4a3.45,3.45,0,0,0,0,6.9,3.4,3.4,0,0,0,3.4-3.5,3.44,3.44,0,0,0-3.4-3.4m2.9,3.4a2.9,2.9,0,1,1-2.9-2.9,3,3,0,0,1,2.9,2.9"/><path d="M46.5,104.4a.88.88,0,0,1-.9.7,1.16,1.16,0,0,1-1.1-1.3,1.08,1.08,0,0,1,1.1-1.2.88.88,0,0,1,.9.7H47a1.32,1.32,0,0,0-1.4-1.2,1.7,1.7,0,0,0,0,3.4,1.4,1.4,0,0,0,1.4-1.2h-.5Z"/><path d="M106,108.6a3.4,3.4,0,1,0,3.4,3.4,3.37,3.37,0,0,0-3.4-3.4m2.8,3.5a2.9,2.9,0,1,1-2.9-2.9,2.9,2.9,0,0,1,2.9,2.9"/><path d="M105.4,111.9v-1h.7c.3,0,.7.1.7.5s-.4.5-.8.5Zm0,.4h.6l.9,1.4h.5l-.9-1.4c.5-.1.8-.3.8-.9s-.4-.9-1.1-.9h-1.3v3.2h.5Z"/></svg>