<svg xmlns="http://www.w3.org/2000/svg" xmlns:xlink="http://www.w3.org/1999/xlink" viewBox="0 0 6345.19 1369.09"><defs><style>.cls-1{fill:url(#未命名的渐变_93);}.cls-2{font-size:748.89px;font-family:MicrosoftYaHei-Bold, Microsoft YaHei;font-weight:700;letter-spacing:-0.03em;}.cls-3{letter-spacing:-0.03em;}.cls-4{letter-spacing:-0.02em;}.cls-5{letter-spacing:-0.03em;}.cls-6{letter-spacing:-0.02em;}</style><linearGradient id="未命名的渐变_93" x1="637.58" y1="297.94" x2="1347.07" y2="1526.81" gradientUnits="userSpaceOnUse"><stop offset="0" stop-color="#a5f4d3"/><stop offset="0.12" stop-color="#7ce395"/><stop offset="0.36" stop-color="#59c896"/><stop offset="0.54" stop-color="#55c596"/><stop offset="0.7" stop-color="#3eaa9b"/><stop offset="0.85" stop-color="#349d9e"/><stop offset="1" stop-color="#215273"/></linearGradient></defs><g id="图层_2" data-name="图层 2"><path class="cls-1" d="M1686.78,744.89c0-92.32-55.11-172.49-135.91-212.26,0,0-56.81-28.07-131-28.07s-173.4,90.34-173.4,90.34L958.24,883.4s-235.47,226.36-303.61,292.07S499.14,1222,499.14,1222a165.65,165.65,0,0,1-51.1-26c-31.86-24-47.46-59.77-52.28-99.22a140.45,140.45,0,0,1-1-16.14c-.28-46.89,17.82-89,55.39-116.57l68.77-50.54-21.36-15.7-62-45.54c-20-14.69-27.44-37.36-34.48-60.7A152,152,0,0,1,395,747.26c0-1.92,0-3.84.11-5.76,1.41-39.84,14-77.09,44.2-103.34s70.06-40.52,110.3-40.52c34.23,0,66,14.23,92.13,36.39a3.06,3.06,0,0,1,.39.34c1.73,1.48,3.37,3.08,5,4.62l10.09,10c1.12,1.2,2.3,2.34,3.4,3.56l21.94,21.51L868.26,854.81l66.59-63.66L748.29,607.55l-21.8-21.65c-1.24-1.08-2.39-2.24-3.61-3.35l-10.12-10c-1.56-1.66-3.19-3.28-4.68-5,0,0-.38-.37-.34-.38-22.47-25.8-36.89-57.13-36.89-90.91,0-39.71,14.39-79,41.06-108.84s64.36-42.23,104.73-43.62c1.94-.07,3.89-.11,5.84-.11a158,158,0,0,1,45,6c23.65,6.95,46.63,14.29,61.52,34q23.07,30.59,46.15,61.15L991,446l51.21-67.87c28-37.07,70.61-54.93,118.13-54.66a146.3,146.3,0,0,1,16.35,1c40,4.75,76.25,20.15,100.56,51.59a162.14,162.14,0,0,1,26.29,50.42l71.1-64.15c-40.25-79.88-121.43-134.52-215.09-134.52-65.55,0-125,26.78-168.55,70.21-43.59-43.43-103-70.21-168.55-70.21-133.69,0-242.07,111.24-242.07,248.46a222.38,222.38,0,0,0,2.75,34.6,229.89,229.89,0,0,0-33.57-2.52c-139.06,0-251.78,107-251.78,238.87,0,64.68,27.13,123.31,71.14,166.32-44,43-71.14,101.65-71.14,166.32,0,92.43,55.36,172.54,136.31,212.26,0,0,56.81,28.07,131,28.07s173.4-90.35,173.4-90.35L1022.4,946.71s239.82-231.69,308-297.39c65.77-63.42,149.34-47.69,155.08-46.52a165.85,165.85,0,0,1,51.1,25.94c31.85,24,47.46,59.77,52.27,99.23a140.29,140.29,0,0,1,1,16.13c.28,46.9-17.83,89-55.39,116.58l-68.78,50.53,21.37,15.7,62,45.54c20,14.69,27.45,37.36,34.49,60.7a152.76,152.76,0,0,1,6.09,44.38c0,1.92,0,3.85-.11,5.77-1.42,39.83-14,77.08-44.21,103.34s-70.06,40.52-110.29,40.52c-34.24,0-66-14.23-92.13-36.4,0,0-.39-.34-.39-.34-1.73-1.47-3.37-3.08-5-4.62l-10.1-10c-1.12-1.19-2.3-2.33-3.39-3.56l-22-21.51L1116.33,970l-66.59,63.65,186.55,183.6,21.8,21.66c1.25,1.08,2.4,2.24,3.61,3.35l10.12,10c1.57,1.66,3.19,3.27,4.69,5,0,0,.38.38.34.39,22.46,25.79,36.88,57.13,36.88,90.91,0,39.7-14.39,79-41.06,108.83S1208.31,1499.55,1168,1501c-2,.07-3.9.1-5.85.11a158.81,158.81,0,0,1-45-6c-23.65-7-46.62-14.3-61.51-34l-46.15-61.16-15.91-21.09-51.21,67.87c-28,37.07-70.62,54.94-118.14,54.66a146.45,146.45,0,0,1-16.35-1c-40-4.75-76.25-20.15-100.55-51.58a162.11,162.11,0,0,1-26.3-50.43l-71.1,64.16c40.26,79.88,121.44,134.51,215.1,134.51,65.54,0,125-26.78,168.55-70.2,43.58,43.42,103,70.2,168.54,70.2,133.7,0,242.07-111.23,242.07-248.45a221.07,221.07,0,0,0-2.75-34.6,231.43,231.43,0,0,0,33.58,2.51c139,0,251.78-106.94,251.78-238.87,0-64.68-27.14-123.31-71.15-166.32C1659.64,868.2,1686.78,809.57,1686.78,744.89Z" transform="translate(-297.81 -227.85)"/></g><g id="图层_3" data-name="图层 3"><text class="cls-2" transform="translate(1508.8 958.35) scale(1.01 1)">Flora P<tspan class="cls-3" x="2465.92" y="0">r</tspan><tspan class="cls-4" x="2760.94" y="0">o</tspan><tspan class="cls-5" x="3234.41" y="0">t</tspan><tspan class="cls-6" x="3522.48" y="0">ech</tspan></text><text x="-297.81" y="-227.85"/></g></svg>