<svg id="图层_1" data-name="图层 1" xmlns="http://www.w3.org/2000/svg" xmlns:xlink="http://www.w3.org/1999/xlink" viewBox="0 0 1918.63 618.66"><defs><style>.cls-1{fill:url(#未命名的渐变_93);}.cls-2{fill:#fff;}</style><linearGradient id="未命名的渐变_93" x1="151.19" y1="262.76" x2="470.93" y2="816.57" gradientUnits="userSpaceOnUse"><stop offset="0" stop-color="#a5f4d3"/><stop offset="0.12" stop-color="#7ce395"/><stop offset="0.36" stop-color="#59c896"/><stop offset="0.54" stop-color="#55c596"/><stop offset="0.7" stop-color="#3eaa9b"/><stop offset="0.85" stop-color="#349d9e"/><stop offset="1" stop-color="#215273"/></linearGradient></defs><path class="cls-1" d="M620.72,464c0-41.72-24.57-78-60.6-95.91a143.54,143.54,0,0,0-58.43-12.69c-33.09,0-77.32,40.82-77.32,40.82L295.86,526.57s-105,102.29-135.38,132-69.33,21-69.33,21a73.4,73.4,0,0,1-22.79-11.72C54.15,657,47.2,640.84,45.05,623a63.41,63.41,0,0,1-.46-7.29c-.13-21.19,7.95-40.2,24.7-52.68L100,540.21l-9.53-7.1q-13.82-10.29-27.64-20.57c-8.92-6.64-12.23-16.89-15.37-27.43a69.41,69.41,0,0,1-2.72-20.06c0-.87,0-1.73,0-2.6.63-18,6.26-34.84,19.71-46.7a74.69,74.69,0,0,1,49.18-18.31c15.27,0,29.43,6.43,41.08,16.45,0,0,.18.15.18.15.77.67,1.5,1.39,2.25,2.09l4.5,4.51c.5.54,1,1.06,1.51,1.61L173,432l82.79,81.68,29.69-28.77-83.19-83-9.72-9.78c-.55-.49-1.06-1-1.61-1.52l-4.51-4.5c-.7-.75-1.42-1.48-2.09-2.25,0,0-.17-.17-.15-.18-10-11.65-16.45-25.81-16.45-41.08A74.69,74.69,0,0,1,186,293.43c11.87-13.45,28.7-19.08,46.7-19.71.87,0,1.74-.05,2.61-.05a69.69,69.69,0,0,1,20,2.72c10.55,3.14,20.79,6.46,27.43,15.38l20.58,27.63,7.09,9.53,22.84-30.67c12.47-16.75,31.48-24.82,52.67-24.7a63.27,63.27,0,0,1,7.29.46c17.83,2.15,34,9.11,44.84,23.31a73.75,73.75,0,0,1,11.73,22.79l31.7-29c-17.95-36.1-54.15-60.79-95.91-60.79a105.43,105.43,0,0,0-75.16,31.73,105.41,105.41,0,0,0-75.15-31.73c-59.62,0-107.94,50.27-107.94,112.27a102.28,102.28,0,0,0,1.22,15.64,101.45,101.45,0,0,0-15-1.14c-62,0-112.27,48.33-112.27,107.94A105.43,105.43,0,0,0,33.1,540.21,105.41,105.41,0,0,0,1.37,615.36c0,41.77,24.69,78,60.79,95.92A143.62,143.62,0,0,0,120.58,724c33.09,0,77.32-40.82,77.32-40.82l126.57-128s106.94-104.7,137.32-134.39c29.33-28.66,66.6-21.55,69.16-21a73.49,73.49,0,0,1,22.78,11.73c14.21,10.83,21.16,27,23.31,44.83a63.55,63.55,0,0,1,.46,7.29c.13,21.19-8,40.21-24.7,52.68l-30.66,22.84,9.52,7.09,27.64,20.58c8.92,6.64,12.24,16.88,15.38,27.43a69.64,69.64,0,0,1,2.71,20c0,.87,0,1.74,0,2.61-.63,18-6.25,34.83-19.71,46.69a74.64,74.64,0,0,1-49.18,18.31c-15.26,0-29.42-6.43-41.08-16.44,0,0-.17-.16-.17-.16-.78-.66-1.51-1.39-2.26-2.08l-4.5-4.52c-.5-.54-1-1.05-1.51-1.61l-9.79-9.72L366.35,565.7l-29.69,28.76,83.19,83,9.72,9.79c.55.49,1.07,1,1.61,1.51l4.51,4.5c.7.75,1.42,1.48,2.09,2.26,0,0,.17.16.15.17,10,11.66,16.45,25.82,16.45,41.08a74.69,74.69,0,0,1-18.31,49.18c-11.86,13.46-28.7,19.08-46.7,19.71-.87,0-1.74,0-2.6,0A69.7,69.7,0,0,1,366.71,803c-10.54-3.14-20.79-6.46-27.43-15.38Q329,773.77,318.7,759.94l-7.09-9.52-22.84,30.66c-12.47,16.75-31.48,24.83-52.67,24.7a63.41,63.41,0,0,1-7.29-.46c-17.83-2.15-34-9.1-44.84-23.31a73.46,73.46,0,0,1-11.72-22.78l-31.71,29c18,36.09,54.15,60.78,95.91,60.78a105.46,105.46,0,0,0,75.16-31.72A105.46,105.46,0,0,0,386.77,849c59.61,0,107.94-50.27,107.94-112.27a102.38,102.38,0,0,0-1.23-15.64,101.45,101.45,0,0,0,15,1.14c62,0,112.27-48.32,112.27-107.94A105.44,105.44,0,0,0,589,539.14,105.46,105.46,0,0,0,620.72,464Z" transform="translate(-1.37 -230.34)"/><path class="cls-2" d="M836.22,307.55H748.05V371H829.2v43H748.05v97.42H695.43v-247H836.22Z" transform="translate(-1.37 -230.34)"/><path class="cls-2" d="M871.77,517.79v-254h51.34v254Z" transform="translate(-1.37 -230.34)"/><path class="cls-2" d="M958.66,430.42c-6-122.12,193-126,188.78-3C1153.54,551.35,954.33,555.31,958.66,430.42Zm52.14-.64c-4.9,70.91,90.13,71.64,84.34-1.44C1099,354.79,1005.39,363,1010.8,429.78Z" transform="translate(-1.37 -230.34)"/><path class="cls-2" d="M1296.19,394c-81.71-32.66-57.39,85.88-60.9,129.62h-51.5V347.27h51.5v33.17h.63c9-28.89,34.62-41.9,60.27-34.12Z" transform="translate(-1.37 -230.34)"/><path class="cls-2" d="M1326.49,352.13c15.09-8.93,48.75-15.13,66.16-15,100.9-5.83,69.2,117.88,74,180.64h-48.94V492.12h-.64c-25,48.26-111.24,36.31-107.94-23.12-3.47-56.73,63.79-60.4,108.89-65.53-.3-48.28-65.1-30.78-91.51-11.64Zm58.19,85.78c-25.49,1.55-36.41,25-21.13,41.14,11.72,10.32,34.32,6.88,44.25-5.11,10.2-9.87,10.8-26.39,10.2-40.33Z" transform="translate(-1.37 -230.34)"/><path class="cls-2" d="M751.46,724.82v86.09H698.84v-247c67.31.64,182.24-16.15,177.13,78.13C875.32,711.08,811.05,729.85,751.46,724.82Zm0-120.06v79.72c33.34,2,70.93-1.16,69.19-40.34C822.44,605.46,784.25,602.85,751.46,604.76Z" transform="translate(-1.37 -230.34)"/><path class="cls-2" d="M1020.75,681.29c-81.71-32.66-57.4,85.88-60.91,129.62h-51.5V634.57h51.5v33.17h.64c9-28.89,34.62-41.9,60.27-34.12Z" transform="translate(-1.37 -230.34)"/><path class="cls-2" d="M1034.62,723.54c-6-122.11,193-126,188.77-3C1229.49,844.47,1030.29,848.44,1034.62,723.54Zm52.13-.64c-4.9,70.91,90.14,71.64,84.35-1.43C1175,647.91,1081.35,656.11,1086.75,722.9Z" transform="translate(-1.37 -230.34)"/><path class="cls-2" d="M1363.54,808.84c-112,33-89.54-62.1-91.36-135.84h-29V634.57h29V595.83l51.18-14.67v53.41h40.18V673h-40.18v74.3c-1.26,27.74,20.54,34.23,40.18,23.11Z" transform="translate(-1.37 -230.34)"/><path class="cls-2" d="M1550.08,737.25H1434c-.39,49.75,69.78,48.4,100.93,26.63v37.78c-31.84,18.65-102.11,20.61-128.59-10.2-32-30.42-30.77-103.78,1.51-134.8,28.52-33.52,92.74-35.58,121.1-3.67C1548.42,671.28,1551.61,707.88,1550.08,737.25Zm-48-32.2c2.5-57-65.18-47.64-68.24,0Z" transform="translate(-1.37 -230.34)"/><path class="cls-2" d="M1715.74,804.37c-58.88,30-145.61-.2-142.7-77.32-4.37-78.56,79.4-116.08,142.86-88.49v44.16c-35.59-27.87-93.82-9.06-90.72,40.82-2.7,50.32,54.26,65.94,90.56,39.06Z" transform="translate(-1.37 -230.34)"/><path class="cls-2" d="M1918.86,810.91h-51.34V710.47q0-40.66-29.65-40.66c-21.56-.06-34.52,19.25-34.12,40.66V810.91h-51.5v-261h51.5V661h.63q20.25-30.76,54.53-30.77C1943.65,624,1913.77,758.24,1918.86,810.91Z" transform="translate(-1.37 -230.34)"/></svg>