<svg xmlns="http://www.w3.org/2000/svg" xmlns:xlink="http://www.w3.org/1999/xlink" viewBox="0 0 6518.19 1933.07"><defs><style>.cls-1{fill:url(#未命名的渐变_93);}.cls-2{font-size:849.01px;fill:#fff;font-family:MicrosoftYaHei-Bold, Microsoft YaHei;font-weight:700;letter-spacing:-0.02em;}.cls-3{letter-spacing:-0.03em;}.cls-4{letter-spacing:-0.02em;}.cls-5{letter-spacing:-0.03em;}.cls-6{letter-spacing:-0.03em;}</style><linearGradient id="未命名的渐变_93" x1="466.74" y1="487.31" x2="957.3" y2="1336.99" gradientUnits="userSpaceOnUse"><stop offset="0" stop-color="#a5f4d3"/><stop offset="0.12" stop-color="#7ce395"/><stop offset="0.36" stop-color="#59c896"/><stop offset="0.54" stop-color="#55c596"/><stop offset="0.7" stop-color="#3eaa9b"/><stop offset="0.85" stop-color="#349d9e"/><stop offset="1" stop-color="#215273"/></linearGradient></defs><g id="图层_2" data-name="图层 2"><path class="cls-1" d="M1192.18,796.35c0-63.84-38.1-119.27-94-146.77,0,0-39.28-19.41-90.6-19.41s-119.89,62.47-119.89,62.47L688.45,892.12s-162.81,156.51-209.93,201.94S371,1126.23,371,1126.23a114.36,114.36,0,0,1-35.33-17.94c-22-16.58-32.82-41.32-36.14-68.6a96.8,96.8,0,0,1-.72-11.16c-.19-32.42,12.32-61.52,38.3-80.6L384.67,913,369.9,902.13l-42.85-31.49c-13.83-10.16-19-25.83-23.85-42A105.75,105.75,0,0,1,299,798c0-1.33,0-2.66.08-4,1-27.54,9.7-53.3,30.56-71.45s48.45-28,76.26-28c23.67,0,45.63,9.84,63.71,25.17,0,0,.26.23.26.23,1.2,1,2.34,2.13,3.5,3.2l7,6.9c.77.83,1.59,1.62,2.34,2.47l15.18,14.87,128.37,125,46-44-129-126.94-15.07-15c-.86-.75-1.65-1.55-2.49-2.32l-7-6.89c-1.08-1.14-2.21-2.26-3.24-3.44,0,0-.26-.26-.24-.27-15.53-17.84-25.5-39.5-25.5-62.86a113.38,113.38,0,0,1,28.39-75.25c18.4-20.59,44.5-29.2,72.41-30.17,1.35,0,2.69-.07,4-.07a109.61,109.61,0,0,1,31.1,4.16c16.35,4.8,32.23,9.88,42.53,23.52q15.94,21.15,31.91,42.29l11,14.58q17.7-23.46,35.41-46.93c19.34-25.63,48.82-38,81.68-37.79a99.54,99.54,0,0,1,11.31.71c27.64,3.28,52.71,13.93,69.52,35.66a111.92,111.92,0,0,1,18.18,34.87l49.16-44.36c-27.83-55.23-84-93-148.72-93-45.32,0-86.4,18.52-116.54,48.54-30.14-30-71.22-48.54-116.54-48.54-92.44,0-167.37,76.91-167.37,171.79a153.78,153.78,0,0,0,1.9,23.92,160.45,160.45,0,0,0-23.22-1.74c-96.14,0-174.08,73.95-174.08,165.17,0,44.72,18.76,85.26,49.19,115-30.43,29.74-49.19,70.28-49.19,115,0,63.9,38.28,119.29,94.25,146.75,0,0,39.28,19.42,90.6,19.42s119.89-62.47,119.89-62.47l196.26-195.8S898.63,775.7,945.75,730.27c45.48-43.86,103.26-33,107.23-32.17A114.69,114.69,0,0,1,1088.31,716c22,16.58,32.81,41.33,36.14,68.61a96.62,96.62,0,0,1,.72,11.15c.19,32.43-12.33,61.52-38.3,80.6l-47.56,35,14.78,10.85,42.85,31.49c13.83,10.16,19,25.83,23.84,42a105.42,105.42,0,0,1,4.22,30.68c0,1.33,0,2.66-.08,4-1,27.54-9.7,53.3-30.57,71.46s-48.44,28-76.26,28c-23.67,0-45.62-9.84-63.7-25.17,0,0-.27-.23-.27-.23-1.19-1-2.33-2.13-3.49-3.2l-7-6.9c-.77-.83-1.59-1.61-2.35-2.46L926.13,1077,797.75,952l-46,44,129,126.94,15.08,15c.86.74,1.65,1.55,2.49,2.31l7,6.89c1.08,1.15,2.2,2.27,3.24,3.45,0,0,.26.26.23.26,15.54,17.84,25.51,39.51,25.51,62.86a113.36,113.36,0,0,1-28.39,75.25c-18.4,20.59-44.5,29.2-72.41,30.17-1.35,0-2.7.07-4,.07a109.25,109.25,0,0,1-31.1-4.15c-16.35-4.81-32.24-9.88-42.53-23.53q-15.94-21.15-31.91-42.29l-11-14.58q-17.7,23.47-35.41,46.93c-19.34,25.63-48.82,38-81.68,37.79a101.73,101.73,0,0,1-11.31-.7c-27.64-3.29-52.72-13.93-69.52-35.67a111.92,111.92,0,0,1-18.18-34.87l-49.16,44.36c27.83,55.23,84,93,148.72,93,45.32,0,86.4-18.51,116.54-48.54,30.14,30,71.22,48.54,116.54,48.54,92.44,0,167.37-76.91,167.37-171.79a153.78,153.78,0,0,0-1.9-23.92,159,159,0,0,0,23.21,1.74c96.15,0,174.09-74,174.09-165.17,0-44.71-18.76-85.25-49.19-115C1173.42,881.61,1192.18,841.07,1192.18,796.35Z" transform="translate(-231.81 471.44)"/></g><g id="图层_3" data-name="图层 3"><text class="cls-2" transform="translate(1035.23 1710.87) scale(1.01 1)">Flora P<tspan class="cls-3" x="2795.59" y="0">r</tspan><tspan class="cls-4" x="3130.05" y="0">o</tspan><tspan class="cls-5" x="3666.82" y="0">t</tspan><tspan class="cls-6" x="3993.4" y="0">ech</tspan></text><text x="-231.81" y="471.44"/><text x="-231.81" y="471.44"/></g></svg>