<svg xmlns="http://www.w3.org/2000/svg" fill="#fff" viewBox="0 0 425.2 283.5"><path d="M362.4 199.1v-1.5h-7.5v-13.8h-1.7v15.3h9.2zm-14.3-3.9l-.6-1.5h-7.9l-.6 1.5h9.1zm-4.2-10.1h-.6l5.9 14h1.8l-6.6-15.3h-1.5l-6.6 15.3h1.8l5.8-14zm-20.4 14V186l-.5.2 9.6 13h1.4v-15.3h-1.6V197l.5-.1-9.6-13H322v15.3h1.5zm-15.3-3c-.9-1.1-1.3-2.7-1.3-4.7s.4-3.6 1.3-4.7 2.1-1.6 3.7-1.6 2.8.5 3.7 1.6c.9 1.1 1.3 2.6 1.3 4.7s-.4 3.6-1.3 4.7-2.1 1.6-3.7 1.6-2.8-.5-3.7-1.6m7.3 2.3c1-.6 1.8-1.5 2.4-2.7.6-1.2.8-2.6.8-4.2s-.3-3-.8-4.2c-.5-1.2-1.3-2.1-2.4-2.7-1-.6-2.2-.9-3.6-.9s-2.6.3-3.7.9c-1 .6-1.8 1.5-2.4 2.7-.5 1.2-.8 2.6-.8 4.2s.3 3 .8 4.2c.6 1.2 1.3 2.1 2.4 2.7 1 .6 2.2.9 3.6.9 1.5 0 2.7-.3 3.7-.9m-13.6-14.6h-1.7v15.3h1.7v-15.3zm-9.1 15.3v-13.8h5.2v-1.5h-12.2v1.5h5.2v13.8h1.8zm-8.6-3.9l-.6-1.5h-7.9l-.6 1.5h9.1zm-4.2-10.1h-.6l5.9 14h1.8l-6.6-15.3H279l-6.6 15.3h1.8l5.8-14zm-20.4 14V186l-.5.2 9.6 13h1.3v-15.3h-1.6V197l.5-.1-9.6-13H258v15.3h1.6zm-14.5-13.8h4.1c1.2 0 2.1.2 2.6.7.6.5.8 1.2.8 2.1 0 .9-.3 1.7-.9 2.2-.6.5-1.4.7-2.6.7H245v-5.7zm0 13.8v-6.7h3.8c.7 0 1.2.1 1.7.3.4.2.7.6 1 1.3l1.9 5.1h1.8l-1.9-5.2c-.2-.7-.6-1.2-.9-1.5-.4-.3-.9-.5-1.4-.5l-1.6.3c1.6 0 2.8-.4 3.7-1.1.9-.8 1.3-1.8 1.3-3.1 0-1.4-.4-2.4-1.3-3.2-.9-.7-2.1-1.1-3.7-1.1h-6V199h1.6zm-4.6 0v-1.5h-7.8V192h7.4v-1.5h-7.4v-5.3h7.8v-1.5H231V199h9.5zm-16.8 0v-13.8h5.2v-1.5h-12.2v1.5h5.2v13.8h1.8zm-19.5 0V186l-.5.2 9.6 13h1.3v-15.3H213V197l.5-.1-9.6-13h-1.3v15.3h1.6zm-5.4-15.3h-1.7v15.3h1.7v-15.3zM351.4 176.2v-13.7l-.5.2 10 13.6h1.4v-16h-1.7V174l.5-.1-10-13.6h-1.4v16h1.7zm-16-3.2c-.9-1.2-1.4-2.8-1.4-4.9 0-2.1.5-3.7 1.4-4.9.9-1.1 2.2-1.7 3.9-1.7 1.7 0 2.9.6 3.9 1.7.9 1.1 1.4 2.8 1.4 4.9 0 2.1-.5 3.8-1.4 4.9-.9 1.1-2.2 1.7-3.9 1.7-1.7.1-2.9-.5-3.9-1.7m7.7 2.3c1.1-.7 1.9-1.6 2.5-2.8.6-1.2.9-2.7.9-4.4 0-1.7-.3-3.1-.9-4.3-.6-1.2-1.4-2.2-2.5-2.8-1.1-.7-2.3-1-3.8-1s-2.8.3-3.8 1c-1.1.7-1.9 1.6-2.5 2.8-.6 1.2-.9 2.7-.9 4.4 0 1.7.3 3.1.9 4.4.6 1.2 1.4 2.2 2.5 2.8 1.1.7 2.3 1 3.8 1 1.5-.1 2.7-.4 3.8-1.1m-14.2-15.1h-1.8v16h1.8v-16zm-9.5 16v-14.4h5.5v-1.6h-12.7v1.6h5.5v14.4h1.7zm-9-4.2l-.6-1.5h-8.2l-.6 1.5h9.4zm-4.4-10.5h-.7l6.1 14.6h1.8l-6.9-16h-1.6l-6.9 16h1.9l6.3-14.6zm-13.9 14.7l6.8-16H297l-6.1 14.5h.7l-6.1-14.5h-1.9l6.8 16h1.7zm-19.8-14.5h4.3c1.2 0 2.1.2 2.7.7.6.5.9 1.2.9 2.2s-.3 1.7-.9 2.2c-.6.5-1.5.8-2.7.8h-4.3v-5.9zm0 14.5v-7h3.9c.7 0 1.3.1 1.7.3.4.2.8.7 1 1.3l1.9 5.3h1.9l-2-5.4c-.3-.7-.6-1.2-1-1.5-.4-.3-.9-.5-1.5-.5l-1.6.3c1.7 0 2.9-.4 3.9-1.2s1.4-1.9 1.4-3.2c0-1.4-.5-2.5-1.4-3.3-.9-.8-2.2-1.1-3.9-1.1h-6.2v16h1.9zm-4.8 0v-1.5h-8.1v-5.8h7.7v-1.5h-7.7v-5.6h8.1v-1.5h-9.9v16h9.9zm-15.5-.4c.9-.4 1.5-.9 2-1.6.5-.7.7-1.5.7-2.4 0-.7-.2-1.4-.5-1.9s-.8-.9-1.3-1.2c-.5-.3-1.2-.6-1.9-.8-.7-.2-1.4-.4-2.2-.6-.7-.2-1.4-.4-1.9-.6-.6-.2-1-.5-1.3-.9-.3-.4-.5-.8-.5-1.4 0-.9.3-1.7 1-2.2.7-.5 1.6-.8 2.9-.8.9 0 1.7.1 2.5.5.8.3 1.5.8 2.2 1.4l.7-1.4c-.4-.4-.9-.8-1.5-1.1-.6-.3-1.2-.5-1.8-.7-.7-.2-1.3-.2-2.1-.2-1.2 0-2.2.2-3 .6-.9.4-1.5.9-2 1.6-.5.7-.7 1.5-.7 2.4 0 .8.1 1.4.4 1.9.3.5.7.9 1.2 1.3.5.3 1.1.6 1.8.8l2.1.6c.7.2 1.4.4 2 .6.6.2 1.1.5 1.4.8.3.3.5.8.5 1.3 0 .9-.3 1.6-1 2.1s-1.7.8-2.9.8c-1.1 0-2-.1-2.8-.4-.8-.3-1.6-.8-2.4-1.4l-.7 1.4c.5.4 1 .8 1.6 1.1.6.3 1.3.5 2 .7.7.1 1.5.2 2.3.2 1.3 0 2.3-.2 3.2-.5m-22.8.4v-13.7l-.5.2 10 13.6h1.4v-16h-1.7V174l.5-.1-10-13.6h-1.4v16h1.7zm-16-3.2c-.9-1.2-1.4-2.8-1.4-4.9 0-2.1.5-3.7 1.4-4.9.9-1.1 2.2-1.7 3.9-1.7 1.7 0 2.9.6 3.9 1.7.9 1.1 1.4 2.8 1.4 4.9 0 2.1-.5 3.8-1.4 4.9-.9 1.1-2.2 1.7-3.9 1.7-1.7.1-3-.5-3.9-1.7m7.7 2.3c1.1-.7 1.9-1.6 2.5-2.8.6-1.2.9-2.7.9-4.4 0-1.7-.3-3.1-.9-4.3-.6-1.2-1.4-2.2-2.5-2.8-1.1-.7-2.3-1-3.8-1s-2.8.3-3.8 1c-1.1.7-1.9 1.6-2.5 2.8-.6 1.2-.9 2.7-.9 4.4 0 1.7.3 3.1.9 4.4.6 1.2 1.4 2.2 2.5 2.8 1.1.7 2.3 1 3.8 1 1.4-.1 2.7-.4 3.8-1.1m-15.5.5c.9-.3 1.7-.8 2.4-1.5l-.7-1.4c-.7.7-1.5 1.1-2.2 1.4-.7.3-1.5.4-2.4.4-1.7 0-3.1-.6-4-1.7-.9-1.1-1.4-2.8-1.4-4.9 0-2.1.5-3.7 1.4-4.9.9-1.1 2.3-1.7 4-1.7.9 0 1.7.1 2.4.4.7.3 1.5.8 2.2 1.4l.7-1.4c-.7-.7-1.4-1.2-2.4-1.5-.9-.3-1.9-.5-3-.5-1.5 0-2.8.3-3.9 1s-1.9 1.6-2.5 2.8c-.6 1.2-.9 2.7-.9 4.4 0 1.7.3 3.2.9 4.4.6 1.2 1.4 2.2 2.5 2.8 1.1.7 2.4 1 3.9 1 1.1 0 2.1-.1 3-.5M361.5 148.5c1.6-.6 2.9-1.6 3.7-2.8.8-1.2 1.3-2.6 1.3-4.3 0-.9-.1-1.8-.4-2.6-.3-.8-.8-1.5-1.4-2.1-.7-.6-1.6-1.2-2.7-1.7-1.2-.5-2.6-.9-4.3-1.3-1.4-.3-2.5-.6-3.2-.9-.7-.3-1.2-.6-1.4-.9-.2-.3-.4-.7-.4-1 0-.8.4-1.4 1.1-1.9.7-.5 1.7-.7 2.9-.7s2.4.2 3.6.6c1.2.4 2.4 1 3.5 1.8l2-4.8c-.6-.6-1.4-1.1-2.4-1.5-1-.4-2.1-.7-3.3-1-1.2-.2-2.4-.3-3.6-.3-2.1 0-3.9.4-5.4 1.1-1.5.7-2.8 1.7-3.6 2.9-.9 1.2-1.3 2.6-1.3 4.2 0 1 .1 1.9.4 2.7.3.8.7 1.5 1.4 2.1.7.6 1.6 1.2 2.8 1.7 1.2.5 2.7.9 4.5 1.3 1.3.3 2.3.6 3 .8.7.3 1.2.6 1.4.9.3.3.4.7.4 1.1 0 .7-.4 1.2-1.1 1.7-.7.4-1.8.6-3.3.6-1.4 0-2.8-.2-4.1-.6-1.4-.4-2.7-1-3.9-1.8l-2.1 4.8c.8.6 1.7 1.1 2.8 1.5s2.3.7 3.5 1c1.2.2 2.5.3 3.7.3 2.3 0 4.3-.3 5.9-.9m-35.7.6v-16.7l-1 .9 12.4 15.8h4.9v-25.6h-6.2v16.7l1.1-.9-12.5-15.9h-4.8V149h6.1zm-9.6 0v-5.2h-11.4v-5.2h10.7v-5.2h-10.7v-4.8h11.4v-5.2h-17.9v25.6h17.9zm-38.7-20.2h3.2c4.9 0 7.3 2.5 7.3 7.4 0 2.5-.6 4.4-1.8 5.6s-3 1.9-5.5 1.9h-3.2v-14.9zm3.6 20.2c2.8 0 5.2-.5 7.2-1.5s3.5-2.5 4.6-4.4c1.1-1.9 1.6-4.2 1.6-6.9s-.5-4.9-1.6-6.8c-1.1-1.9-2.6-3.4-4.6-4.4-2-1-4.4-1.5-7.2-1.5h-10.2v25.6h10.2zm-28.9-20.5h4.2c1.4 0 2.5.2 3.1.6.6.4.9 1.1.9 2.1 0 .9-.3 1.6-.9 2.1-.6.4-1.6.7-3.1.7h-4.2v-5.5zm.1 20.5v-10h2.4c.6 0 1.1.1 1.6.3s.8.6 1.1 1.1l3.2 8.5h7l-3-7.6c-.4-1.1-1-1.8-1.7-2.4-.7-.5-1.5-.8-2.3-.8l-3 .6c2.8 0 5-.7 6.6-2.1 1.6-1.4 2.4-3.3 2.4-5.6 0-2.4-.8-4.3-2.3-5.7-1.5-1.3-3.8-2-6.8-2h-11.7V149h6.5zm-13.8-5.3l-2.5-5.1h-12.3l-2.6 5.1h17.4zm-7.7-14.9h-1.4l8.5 20.2h6.5l-11.8-25.6h-5.2l-11.7 25.6h6.6l8.5-20.2zm-22.4 20.3c1.1-.1 2.2-.4 3.3-.6 1-.3 2-.6 2.9-1.1v-12.8h-10.3v4.6h4.4v6.3l1.4-1.9c-.8.3-1.6.5-2.4.6-.8.1-1.6.2-2.3.2-2.4 0-4.1-.7-5.3-2-1.1-1.3-1.7-3.3-1.7-6.1 0-2.6.5-4.6 1.6-5.9 1.1-1.3 2.8-1.9 5-1.9 1.2 0 2.4.2 3.4.5 1.1.3 2.2.9 3.3 1.7l2.1-4.8c-1-.8-2.3-1.5-3.9-2s-3.3-.7-5.1-.7c-2.7 0-5 .5-6.9 1.6-2 1.1-3.5 2.6-4.6 4.5-1.1 2-1.6 4.3-1.6 6.9 0 2.7.5 5.1 1.6 7 1.1 2 2.6 3.5 4.6 4.5s4.4 1.6 7.1 1.6c1.1 0 2.3 0 3.4-.2M360.1 114.2c1.7-.5 3-1.3 4-2.2l-2.2-5.2c-1.2.9-2.3 1.5-3.4 1.9-1.1.4-2.3.6-3.4.6-2.2 0-3.8-.7-5-2.1-1.2-1.4-1.8-3.5-1.8-6.3s.6-4.9 1.8-6.3c1.2-1.4 2.8-2.1 5-2.1 1.2 0 2.3.2 3.4.6 1.1.4 2.3 1 3.4 1.9l2.2-5.2c-1-.9-2.3-1.7-4-2.2-1.7-.5-3.4-.8-5.1-.8-2.8 0-5.3.6-7.4 1.8-2.1 1.2-3.7 2.8-4.8 4.9-1.1 2.1-1.7 4.6-1.7 7.4 0 2.8.6 5.3 1.7 7.5 1.1 2.1 2.7 3.8 4.8 5 2.1 1.2 4.5 1.8 7.4 1.8 1.7-.2 3.4-.5 5.1-1M336.9 87h-7.1v27.6h7.1V87zm-29.6 27.6v-18l-1.1 1 13.3 17h5.3V87h-6.7v18l1.2-.9L305.9 87h-5.2v27.6h6.6zm-14.5-5.7l-2.7-5.5h-13.3l-2.8 5.5h18.8zm-8.3-16H283l9.1 21.7h7L286.5 87h-5.6l-12.6 27.6h7.1l9.1-21.7zm-20.4 21.7V92.9h8V87h-23.3v5.9h8v21.7h7.3zm-34.2-7.3c-1.2-1.4-1.7-3.6-1.7-6.5s.6-5 1.7-6.4c1.2-1.4 2.7-2.1 4.7-2.1s3.5.7 4.7 2.2c1.2 1.4 1.8 3.6 1.8 6.4 0 2.9-.6 5-1.8 6.5-1.2 1.4-2.8 2.2-4.7 2.2-2-.2-3.5-.9-4.7-2.3m11.9 5.9c2-1.2 3.6-2.8 4.7-4.9 1.1-2.1 1.6-4.6 1.6-7.5 0-2.9-.5-5.4-1.6-7.5-1.1-2.1-2.7-3.8-4.7-4.9-2-1.1-4.4-1.7-7.2-1.7s-5.2.6-7.2 1.7c-2 1.2-3.6 2.8-4.7 4.9-1.1 2.1-1.7 4.6-1.7 7.5 0 2.9.6 5.4 1.7 7.5 1.1 2.1 2.7 3.8 4.7 4.9 2 1.2 4.4 1.7 7.2 1.7 2.8.1 5.2-.5 7.2-1.7M202 92.5h5c1.3 0 2.2.2 2.9.6.6.4.9 1.1.9 2.1 0 .9-.3 1.6-.9 2-.6.4-1.6.6-2.9.6h-5v-5.3zm0 10.9h5.7c1.4 0 2.4.2 3 .7.6.5.9 1.2.9 2.2 0 1-.3 1.8-.9 2.2-.6.4-1.6.7-2.9.7H202v-5.8zm6.6 11.2c3 0 5.3-.7 7.1-2.1 1.7-1.4 2.6-3.2 2.6-5.5 0-1.8-.5-3.3-1.4-4.5-.9-1.2-2.3-2-4.1-2.4v.3c1.5-.4 2.7-1.2 3.5-2.3.8-1.1 1.2-2.4 1.2-3.9 0-2.2-.8-3.9-2.5-5.2-1.7-1.3-3.9-1.9-6.7-1.9h-13.1v27.6h13.4zM114.6 86.2c0 2.5.2 4.6.1 7-1.3.4-2.8-.4-4.1-.7-.7-.4-1.6-.3-2.1-1 .3-2.8 3.1-4.5 5.5-5.3h.6zM118.6 86.3c-.3 1-1.5 2-2.3 2.9h-.4c0-.9-.3-2.4.1-3.1 1-.1 1.9-.2 2.6.2zM102.1 88.8c-.5 1.4-2 2.8-3.3 3.9h-.3L97 88.9c1.3-1 3.8-1 5.1-.1zM97 91.4l2.7 7.6-.8.5-4.6 1.1c-1-.4-1.3-1.6-1.8-2.4-1-2.5-.1-5.4 1.2-7.4.7-.8 1.5-1.4 2.4-1.5l.9 2.1zM122.7 89.3l-.1.4-5.1 2c-.5 0-1.2.5-1.6.1l.1-1.5 4.5-2.4c.9-.6 1.6.8 2.2 1.4zM105.4 92c.1.8.9 2.1-.1 2.6l-5.1 2.1c-.6-.7-.9-1.9-1-2.9 1.8-1 3.3-2.2 4.9-3.3.9-.1.8 1 1.3 1.5zM130.4 89c.6.9 2.5 1.4 1.8 2.7-1.2-.4-2.3-1.6-3.4-2 .3-.4.9-.7 1.6-.7zM136.7 91c-.7.6-1.9.3-2.7.2-.3-.6.4-1.1.4-1.7 1-.3 1.4 1.1 2.3 1.5zM131.6 93.2c-.2.5-.2 1-.5 1.4l-5.6-1.3c-.7-.5.3-1.4.4-2 .9-1.8 2.3.3 3.4.4.8.4 1.6.7 2.3 1.5zM122.9 91.7c.1 1 .2 2.4-.6 3.1l-6.3.8c-.2-.6-.3-1.6-.1-2.4l.8-.3 5.3-1c.3-.3.6-.2.9-.2zM137.4 92.2c.5.2.6.8.6 1.2-1.6.1-3.2 0-4.7-.3-.3-.3 0-.8.3-1.1l3.8.2zM114.7 95.2l-.1 5-.1.3-5.1-.4-.2-.8-.6-5.2.4-.3 5.5 1zM86 95.9c-.6 1.5-1.5 3.1-3 4-.8-.9-1.5-1.6-2-2.7 1.4-1 3.2-1.5 5-1.3zM92 101.2c-1 1.5-2.9 2.7-4.3 4.1h-.4l-3.5-4.2.1-.4c1.3-1.2 2.4-2.7 3.4-4.2 2.3.6 3.7 2.9 4.7 4.7zM138.2 94.5c.2.6.3 1.6-.3 1.9l-4.1-.9c-.5-.3-2.1-.1-1.3-1.2l.4-.4 5.3.6zM106.3 96.3c-.1.8.8 1.9-.2 2.4l-4.8 1.6c-.4-.9-1-1.8-.9-2.9l4.7-1.4c.4.1 1.2-.4 1.2.3zM130.5 95.8c-.1 1.7-1 3.3-1.6 4.9l-4.9-1.3c0-1.5.4-3 .8-4.4l.3-.1c1.8.3 3.8.1 5.4.9zM122.1 96.4c.6.2.1.8.2 1.2l-.3.2h-5.9c-.5-.7.2-1.2.9-1.2l5.1-.2zM137.3 97.5c.4.3-.1.8-.2 1.2l-.3.4c-1.8-.5-3.5-1-5.1-2l.2-.9 1.4.2 4 1.1zM145.7 96.3c-.3 1.8.1 3.8.3 5.7-.1.4-.3.6-.6.8-1.7-1.5-2.2-4.2-3-6.3.9-.4 2.3-.6 3.3-.2zM83.1 102c-1.6.7-3.2 1.2-5 1.5-.6-.4-.1-1.3-.2-2l.5-.3c1.2-.1 2.3-.7 3.5-.9.5.7 1 1 1.2 1.7zM100.5 101l1.2 4.1c-1.3.7-2.6 1.3-4 1.9l-.7-.6-2.1-4.1v-.4c1.5-1 3.4-1.5 5.2-1.9l.4 1zM120.7 99c2.2-.5.8 2 .9 3l-.8 4.5-4.6.3-.3-.3V99l.1-.1 4.7.1zM135.8 100.1c.6.7-.5 1.3-.5 1.9-.9 1-1.4 4-3.3 2.2-.8-.4-1.7-.6-2.5-1.1l1.5-4.5.3-.5 4.5 2zM149.4 98c-.3.9-1.3 1.7-1.9 2.4-.5-1.1.3-2.1.5-3.1.4.1 1.1.2 1.4.7zM107.2 101v.4l-4 1.7c-.8.6-1-.4-1.2-.9 1.2-1 3.1-1.2 4.6-1.9.3 0 .5.4.6.7zM143.1 103.1l.9 1.1h-.4l-3.5-4c-.2-.4-.6-.8-.6-1.3l.4-.3.6.5 2.6 4zM128.6 101.8c-.2 1.2-.8 2.2-1.1 3.3-1.4-.3-2.9-.5-4.3-1-.1-1.1.2-2.3.6-3.4 1.6.1 3.2.4 4.8 1.1zM93.5 103.8c-1.4 1.2-2.9 2.5-4.4 3.4-.5 0-.6-.5-.8-.8l.6-.6 4-3c.3.1.6.6.6 1zM114.6 103.2c-1.6.2-3.2-.1-4.8-.1-.4-.2-.2-.7-.3-1.1l.2-.2h4.8l.1 1.4zM85.2 104.4l-.2.5-5.3 3.1c-.9.1-1.1-1-1.4-1.6v-.3l5.8-2.5c.6-.3.9.4 1.1.8zM143.3 105.1c-.7 1.2-1.8 2.5-2.7 3.4l-.5-.1-3.7-4-.1-.3 2.4-3.5 4.6 4.5zM108.5 109.1c-.1.6-1.1.8-1.6 1.1-.6.2-1.3.4-2 .4l-2.2-6.1c-.3-.9.8-.7 1.2-1 1.1-.4 2.2-.7 3.4-.8l1.2 6.4zM152.2 101.8v.4c-1.4.2-2.9.1-4.2-.3.1-.6.5-1.1 1.1-1.3 1.1.4 3.5-1 3.1 1.2zM92.4 112.8l.2.6c-.9 1.2-1.9 2.3-3.1 3.1l-.8-.3-8.1-7.1.6-.6 4.7-2.9h.4l6.1 7.2zM96.4 108.3c-.9 1.2-2.6 1.9-3.8 3H92l-2.4-3.2c1.2-1.2 3-1.7 4.4-2.8h.5l1.9 3zM114.7 104.5l-.1 5.1c.2.5-.4.5-.7.5l-3.4.5-.7-5.7c1.3-.7 3.1-.4 4.6-.7l.3.3zM152.4 104.3c.4.1.1.6 0 .8l-1.3-.1-4.2-1.6c-.2-.1-.4-.5 0-.5 1.9.3 3.6 1.4 5.5 1.4zM102.5 106.7c-1 1-2.6 1.6-3.9 2.1l-.6-1c.9-1.1 2.4-1.2 3.6-2 .6-.4.8.5.9.9zM133 105.7c-.3 1.1-1 2.5-1.8 3.5-1.2-.1-2.2-1-3.2-1.4.1-1.2.5-2.7 1.3-3.7l3.7 1.6zM74.2 108.3c0 2.3-1.2 4.4-1.6 6.4-.6.4-1.2-.2-1.8-.4-1.1-1.2-.2-3.4-1.1-4.7.2-1 1.5-1.2 2.4-1.6.7.1 1.6-.2 2.1.3zM127 106.3l-1.6 4.6c-1.1.3-2.6.3-3.8.2l.7-4.3c.1-.5.2-1 .5-1.3 1.5 0 2.9.1 4.2.8zM79.2 110.9l-.2.9-3.3 4.9c-.8.3-1.4-.6-2.1-.9.7-2.3 1.7-4.6 2-7 1.4-.1 2.4 1.3 3.6 2.1zM151.1 107.4l-.8.9-6.8 5.6-3.6-2.1c-.3-.1-.2-.5-.1-.7l5.7-6.5c1.8 1 3.7 1.9 5.6 2.8zM139.3 109.5c.2.7-.6 1.1-1 1.6-1.3-.8-2.4-2.2-4-2.9-.5-.6.3-1.2.6-1.8 1.7.8 3 2.1 4.4 3.1zM104.5 112.5c-.8.6-1.7 1.3-2.7 1.5-1.1-.9-1.4-2.4-2.3-3.5.9-1 2.4-1.8 3.7-1.9l1.3 3.9zM120.3 108.5c.4.9 0 2.1-.4 2.8-.3 0-.7.2-.8-.2l-2.9-.2c-.4-.9-.2-2-.1-2.9 1.4-.1 2.8.1 4.2.5zM98.7 112c-1 1-2.5 1.5-3.7 2.3-.6-.5-1.6-1.3-1.8-2.1 1.2-1 2.7-1.4 3.9-2.3 1 .1 1 1.4 1.6 2.1zM82 113.5l-3.3 5c-.9-.1-1.6-.6-2.2-1.2l.1-.6 3.6-4.8c.7.3 1.7.8 1.8 1.6zM68.5 114.4c-.6.5-1.4.9-2.3 1.1-.2-.8.2-1.8.7-2.3.5.3 1.4.5 1.6 1.2zM137.5 111.9v.3l-3.7 4.2c-1.3 0-2.5-1-4-1.2l.4-1.2 2.3-3.8c.4-1.1 1.3 0 1.9 0 .8.8 2.2.6 3.1 1.7zM157.3 108.7c-.1 2-.6 3.8-.6 5.8-.8.7-1.6 1.2-2.6 1.5l-1-1.5-1.7-4.3c1.2-1.8 3.9-2 5.9-1.5zM73.8 117.2l-3.3 3.8c-.7.2-1 1.5-1.8.9-1.4-1.1-2.8-2.7-2.5-4.8 1.2-.6 2.3-1.3 3.3-2.2 1.6.4 2.9 1.4 4.3 2.3zM83.9 114.5v.5l-3.1 4.5c-.3.3-.6 0-.9-.1l.1-.8 3-4.6c.4.1.7.3.9.5zM100.2 114.4c-1.1.8-2.4 1.3-3.7 1.8-.5-.1-.9-.7-1.1-1.2l.1-.3 3.6-1.6c.8-.1.7 1 1.1 1.3zM161.6 111.8c-.8.4-1.6 1.2-2.6 1.4.3-1 1.1-1.7 1.6-2.5.6.1.7.7 1 1.1zM152.9 116.7c-.1.2-.4.6-.8.5l-3.4-4.6c-.2-.6.5-.8.9-1.1l.7.6 2.6 4.6zM86.1 116.3c-.7 1.6-2.3 3-3.2 4.5-.3.1-.6 0-.7-.2l.3-.8 2.8-3.9c.3 0 .7.1.8.4zM141.8 115.3l-.6.7-3-2.7.3-.5c1.2.5 2.3 1.5 3.3 2.5zM76.3 118.6l-2.3 3.9c-.6.7-1.2 1.9-2.3 1-.3 0-.5-.3-.8-.4 1.2-1.7 2.3-3.6 3.8-5.3.6 0 1.2.5 1.6.8zM151.2 118c-1 .2-2.3 2.2-2.9.2l-2.3-3.6 1.4-1.3c1.4 1.2 2.8 3.1 3.8 4.7zM89.7 119.2l-3.1 3.8c-.9-.2-1.9-.8-2.8-1.2v-.6l3.4-3.8c.9.3 1.8 1 2.5 1.8zM139.9 117c-.3.3-.7.8-1.2.9l-2.2-2.6c-.1-.4.3-.9.7-1 1 .7 1.9 1.7 2.7 2.7zM163.3 113.6c.9 1.4 1.2 3.7.5 5.2-1.9-.9-3.6-1.8-5.2-3.3 1.1-1 2.6-2 4.1-2.5l.6.6zM83.2 122.4c-.3 1.6-.9 3.2-1.3 4.7h-.6l-6.7-2.6.2-1 2.1-4.2.4-.3 5.6 3.1.3.3zM148 119.5v.3l-5.1 3c-1.1.1-.9-1.2-1.6-1.7-.2-.7-2.4-1.3-.9-2.2l4-3.2.7.3 2.9 3.5zM162.3 120.9c0 .6-.6.8-1 1h-.5l-3.1-3.9c-.3-.7-1.7-1.3-.8-2l5.4 4.9zM92.2 121.5c-.6 1.1-1.9 1.9-2.8 3-.7.2-1.2-.4-1.7-.8 1-1.2 2.2-2.5 3.5-3.2.5.1.7.6 1 1zM159 122.5v.3l-4.4 1.5-.6-.5-2.3-4.2v-.5c1.2-.9 2.5-1.6 3.9-2l3.4 5.4zM85.4 123.5c-.1 1.6-.9 3-1 4.6-.5.1-.9 0-1.2-.4.2-1.5.6-3.1 1.1-4.5.5-.2.7.2 1.1.3zM70.8 126l.7 5.8v.4c-.9.1-1.9 0-2.7-.3l-1.3-6.4-.1-.9c1.3.2 3 0 3.4 1.4zM151 119.8c.9 1.5 1.4 3.3 2 5l-1.1.7-5.2 1.8c-1.1-.9-1.6-2.4-2.5-3.6l.5-.6 5.8-3.3h.5zM66.3 127.8l1.6 3.7-.3.2-6.6-1.2c-.5-.5.1-.9.1-1.4.7-1.4 1.6-2.9 3.1-3.9 1.1.4 1.5 1.7 2.1 2.6zM74.5 126.8l-.4 5.7c-.2.5-.6.3-1 .3l-.2-.3.3-6.1c.5-.2.9.1 1.3.4zM83.4 129.6l.2.3-.9 4.4-.9.1-6-1.2-.1-.9 1.4-4.7 1.7.4zM144.7 127.9c-.6-.1-.8-.9-1-1.4-.2-.8-.8-1.5-.6-2.3.8 1 1.3 2.5 1.6 3.7zM143.3 128.3c-.4.2-.9.5-1.3.3.2-1.4-.7-2.6-.2-3.8h.5l1 3.5zM166.8 126.2c-.6 1.4-1.3 2.8-1.8 4.2-1.2.1-2.4.7-3.6.4l1.4-4.5.6-1.4c1.4-.3 2.6.3 3.4 1.3zM161.6 126.6l-1.5 4.5c-.3.2-.7.2-1.1.3l-.1-.8 1.9-5.1c.3-.3.7-.5 1.2-.4l-.4 1.5zM62.8 132.7c-.5.7-.9 1.5-1.6 2.2-.6-.6-.6-1.8-.6-2.7.4-.9 1.4.1 2.2 0v.5zM158 130l-.6 1.7-5.2.9-.1-.9 1.2-4c.5-.6 1.7-.9 2.4-.7-.2 1.2-.8 2.5-.6 3.7 1.6-1.5.9-5.1 3.9-5h.7L158 130zM87.4 131.2l-1 3.8c-.7.2-1.3-.2-1.9-.3.3-1.5.3-3.2 1.1-4.4.5.4 1.4.2 1.8.9zM65.9 132.8c-.5 1.7-1.4 3.4-2.2 5.1-.7.1-1-.7-1.4-1.1l2.1-4.1c.6-.4 1.1-.2 1.5.1zM68.5 133.2c-.2 2.1-.6 3.9-1.1 5.8l-1.5-.3c.4-1.9.7-3.9 1.1-5.7.6-.1 1.1 0 1.5.2zM150.8 132.7c-2.2.6-4.4 1-6.7 1.3l-.3-.3c.2-1.4.1-2.9 1-4l5.7-1.6.5.1-.2 4.5zM74.7 134.1c.1 1.5 0 3.1-.1 4.8l-.8.2-4.5-.1-.2-.1.1-5.6.2-.1c1.9.1 3.5.8 5.3.9z"></path><path class="st0" d="M168.7 129.6c-.4.7-1.3.3-1.9.5-.1-.9.5-1.6 1.1-2.3.4.3.8 1 .8 1.8z"></path><path d="M77.1 134.7c-.2 1.3.3 3 0 4.3-.2.3-.5.3-.7 0-.5-1.5-.3-3.4-.2-4.7.3 0 .6.1.9.4zM80 135.1c1.6.4 3.3.3 4.8.9 0 1-.4 2.1-.6 3.1l-.4.2-5.8-.1c-.2-1.4-.2-3 0-4.4.7.2 1.6-.4 2 .3zM168.9 133.4c.7.2.3 1 .2 1.4-.4.7-1 1.4-1.7 1.7-1.4-.9-2.2-2.7-2.8-4.2 0-1 1.4-.6 2.1-.9 1.2-.1 1.2 1.6 2.2 2zM164.9 137.1c.2.1.1.4.1.6l-4.8.2-.3-.4-.6-4.7c1.4-.4 2.9-.8 4.4-.7l1.2 5zM157.8 133.4l.5 4.3-4.7.2-4.6-.2c-.1-1.1-.5-2.5 0-3.4l7.4-1.2c.5.1 1.3-.4 1.4.3zM147.6 137.6c-.6.2-1.5.3-1.8-.3.2-.9-.8-2.1.3-2.6 2.5-1.1 1.3 1.8 1.5 2.9zM70.6 147.3l-.2.3-5 .9-2-4.4c-.2-.3-.4-.7-.4-1.1 1.6-.9 3.5-1.3 5.5-1.2l2.1 5.5zM72.2 142.2l.9 4.8c-.4.1-.8.4-1.2.2l-1.2-5.3c.4-.4 1.5-.6 1.5.3zM77.9 141.5c.5 1.4.9 2.8 1.1 4.3-1.4.6-3.2.8-4.7.9l-.5-4.9.3-.3h3.8zM82.6 142c0 1.1.7 2.1.4 3.1-.9.1-1.9.5-2.6.3l-.1-4c.8 0 2.3-.6 2.3.6zM86.4 141.1c.1 1 .1 2.2-.1 3.2-.8.3-1.6.4-2.4.5-.4-1-.2-2.4-.4-3.6.9-.1 1.9-.1 2.9-.1zM64.3 148.2v.6c-1.2.2-2.4.7-3.7.6-.4-1.7-.2-3.7.8-5.1h.3l2.6 3.9zM146.6 140.4c0 1.6 0 3.2-.4 4.7-.7-.1-1.5.1-1.9-.6.6-1.6-2.3-4.1.8-4.3.5-.1 1 0 1.5.2zM153 141.4l-.9 4.3c-1.4.1-3 0-4.4-.3.3-1.7 0-3.5.6-5l4.5-.1.2 1.1zM160 140.5c-.3 2-.6 4.2-1.1 6.3h-1.2l-4.4-.7c.3-1.9 1.1-3.7 1.4-5.7l.3-.1 5 .2zM164.4 140.6c0 1.5-1 2.8-1.2 4.3-.4.9.2 3.2-1.8 2.4-.6-.2-1.4-.1-2-.4l.1-.9 1.5-4.6c.2-1.7 2.4-.6 3.4-.8zM86.9 149.3l-.2.4-5.9 1.9c-.9-1.2-1.5-2.8-1.9-4.3l.5-.3 5-1h.6l1.9 3.3zM168.2 142.2c0 .9-1.2 1.6-1.6 2.5-1 .8-1 3.7-2.9 2.8.6-2.1 1.3-4.3 2.6-6.1.8-.1 1.5.2 1.9.8zM78.6 149.6c.1.9.8 1.6.6 2.5-.3.2-.6.1-1 .1l-1.3-4.4c-.3-.5.3-.6.7-.5l1 2.3zM76.8 152.3c.2 1-1.1 1-1.7 1.3-1.7.4-3.3 1.2-5 1.5l-.3-1.3-.4-4.9c2-.8 4.3-.8 6.5-1.2l.9 4.6zM68.7 155.1c-.3 1.1-1.9.4-2.8.5l-.5-.2.7-5.7c.6-.4 1.6-.5 2.3-.5l.3 5.9zM64.7 149.9c.1 1.7-.5 3.3-.9 4.9-.6.3-1-.3-1.5-.8.5-1.2.9-2.5 1.3-3.8.2-.4.7-.3 1.1-.3zM166.8 148l-.9-.1c.4-1.3 1.6-2.8 2.9-3.8 1.8 1.8-1.4 2.6-2 3.9zM155.9 147.7l-1.4 4.2c-.7.3-1.5-.1-1.9-.4l-5.8-1.8-3.6-1.2c.3-.9 1-1.5 1.5-2.3l2.6.2 8.6 1.3zM86.7 155.4c-.3.1-.7.2-.7.5l-4 2.2c-.4.1-.6-.4-.7-.7l-.8-3.3 4.6-1.9c.6.9 1.4 2.1 1.6 3.2zM161.5 149.5l-1 4.4-.2.2-3.8-1.2c-.4-1.6-.1-3.4.5-4.9l4.6.6-.1.9zM169 149.7c.4.8-.3 1.6-.4 2.4l-1 1.1c-1-.3-1-1.7-1.7-2.4-1.2 1.1 1.3 4-1.4 4-.8-.1-2.1.5-2.2-.6.4-1.7-.1-3.8.7-5.3l6 .8zM79.5 156.2c.3.8 1.2 1.7 1.1 2.7l-4.7 2.7c-.8.2-1.7 1.6-2.4.4-.5-1.5-1.9-2.8-2.7-4.1 2.6-1 4.9-2.4 7.7-3l1 1.3zM91.2 158.4c-1 1.8-3.1 2.8-4.7 4.1H86l-2.6-3.5v-.6l4.6-2.6c0-.3.4-.3.5-.4h.6l2.1 3zM151.4 153.4c-.7 1.6-1.7 3-2.8 4.2-.4 0-.7-.2-.9-.6l2.7-3.7c.4-.1.6.3 1 .1zM155.5 155.1l-2.5 4.4c-.2.3-.7.3-.9.1-.8-.6-1.9-.8-2.6-1.6l2.9-4.1c1.1.2 2.1.6 3.1 1.2zM73.1 162.7c.2.9-1.1 1-1.7 1.5-1-.4-1.9-1.5-3-2l-1.1-.4c.3-1 .9-2.2 2-2.8 1.7.8 2.7 2.5 3.8 3.7zM84.5 163.7c-.3.7-1.2 1.1-1.8 1.5l-.5-.7-1.5-4.3c.1-.8 1.1-.9 1.7-1.1l2.1 4.6zM148.7 159l-2.8 3.3h-.4l-4.8-3.9c0-1 .9-2 1.4-2.9 2.3 1 4.5 2.1 6.6 3.5zM160.1 156.9l-.2.7-3.2 4.1c-.9.1-1.8-.8-2.6-1.2l.1-.7 2.5-3.6c.3-.8 1.2-.2 1.7-.1l1.7.8zM79.6 160.7c.9 1.7 1.3 3.6 1.9 5.3-.5.4-.9 1-1.6 1.3l-1.6-5.7c.1-.5.8-.8 1.3-.9zM76.8 162.3c.4 2.1.8 4.3 1.3 6.4-1.3 1.5-3.4 2.2-5.3 1.7-.5-1.7-.8-3.7-.5-5.5 1.4-.9 2.9-1.9 4.5-2.6zM162 158.7v.5l-3.3 3.6c-.5.1-.9-.3-1.4-.6l.2-.7 3.6-3.2c.5-.2.7.2.9.4zM151.4 160.4c-.8 1.3-1.8 2.7-2.8 4-.6.1-1-.5-1.5-.8v-.6l2.5-3.6c.7.2 1.3.6 1.8 1zM68.8 165.5c.1.5-.5.5-.8.8-.3.1-.6-.1-.7-.3v-.9c.5 0 1.1 0 1.5.4zM71 165.6c0 1.3-.3 2.6-.6 3.9-.7.2-1.6-.5-2.1-1.2-1.1-.7.2-1.4.7-1.7.8-.2 1.3-.9 2-1zM163.2 160.5c-.9.8-2 2-3.1 2.8-.3.2-.8.2-1.1-.2.9-1.1 2.4-2.3 3.7-3.1l.5.5zM157.1 163.4l-.8 1.6-1.7 4v.1l-.6-.2-4.1-3.1.1-.7 2.3-4.1.9.1zM164 162.6c.4 1.5-1.5 1.1-2.1 2-.4-.1-1-.1-1.1-.5.8-.9 1.9-1.5 3-1.9l.2.4zM160.1 165c-.5 1.3-.4 2.8-.5 4.2-.6.8-1.8.7-2.8.7-.3-2.1.7-4 1.3-5.8.8.1 1.3.4 2 .9zM163.1 166.7c-.4.8-1.2 1.7-2.1 1.9-.5-1-.5-2.2-.6-3.4.9.3 1.8.9 2.7 1.5z"></path><path d="M130.3 111.1c-1.3 2-2.1 5.2-5.2 5l-2.2 6.4-1.7 6.4c0 .8-.6 1.5 0 2.3l2.5-3 6.6-8.3c-.2-.8-.9-1.4-.7-2.2.9.1 2-.4 2.8.1l-.2.6-3.5 4.2-5.8 7.3-2.9 4.2-5 9.1c.2.8.5 1.7 1.1 2.2 1.5-1.4 2.8-3.3 3.9-5.1l2-5.3 2.2-4.5 3.8-5.8 6.7-7.9.9-.9c.8.8 1.4 1.9 1.9 3-1.4 1.5-3.7 3-5.9 2.2l-4.9 6.3-3.6 6.3-1.6 4.1c0 .2-.1.4.1.6l.7-.4 3.8-3.9c.6-.8 1.9-1.2 2.3-2.1l.9-.5 6.7-4.9c1.7-.3.4-2.1.9-3.1.3-.5.2-1.2.8-1.6 1.2.3 2.1 1.2 3.1 2l-.6.7-3.9 2.3-5.6 3.9-5.5 4.7-4 4.5-5 6.5c-.1.7-1.3 1.4-.5 2.2.4.6.7 1 1.3 1.3l4.7-4.5 1.2-2.9 3.3-6c1.1-1.8 3.3-3.6 4.8-4.9l5.8-4c1.2-.4 2.3-1.4 3.5-1.6.1 1-.2 2-.7 2.7-1-.2-2.1-1.8-3.1-.5l-4.4 3.1-3.1 2.5-2.8 3.5-2.9 5.3c-.1.5-.6.9-.1 1.3l5.6-4.4 4.6-2.8 4.2-1.9 2.1-.7c.7-1 .8-2.4 2.1-2.9v-.2l.6-.1c0 1.1 0 2.4-.5 3.4l-3.5.6-5.3 2.4-3.8 2.3-4.4 3.5-7.4 7.1c-.5.9-1.6 1.2-1.8 2.2.3.6.7 1 1.2 1.4l.5-.1 4.1-3.3 3.2-2.6 4.1-5.3 3.3-3.2c3.3-2.8 7.6-3.6 12-4.2.7.8.1 1.9-.2 2.7-1.6 0-2.9-.7-4-1.6l-4.2 1.2c-2.1 1-4 2.8-5.7 4.3l-3.7 4.7c0 .1.1.3-.1.4.8.4 1.5-.5 2.3-.6l5.4-1.8 4.5-.5c1.2.2 2.7-.2 3-1.5.2-.1.2-.5.6-.4.6.8 1.3 1.8 1.4 2.8l-4.7-.4-4.7.4-4.9 1.5-2.4 1.2-6.5 4.2c-1.6 1.5-3.4 2.4-4.5 4.3.4.8 1.2 1.5 1.9 2l3.6-2.3 1.7-1.1 2.9-4c1.5-1.7 3.4-3.4 5.5-4.2l4.3-1.2 3.3-.1 4.4.6c-.2.8-.8 1.4-1.5 2-1.1-.3-.3-2.3-1.9-2.1-4.4-.2-8.8.6-11.9 3.5l-3.3 3.9c-.1.3.2.2.3.4 2.5-.8 4.7-2.2 7.5-2.3 2.9-.9 5.7 1.9 8.1-.5 1.8-.2 3.5.1 4.8.8-.2 1-.7 2-.6 3.1 1.1-.6 1.3-3.4 3.1-2.5 0 .6 1.6.2.8 1.2l-2.5 3.2-1-.3-6.1-3.2c-2-1-4.5-1.4-7-1.3-2.2.3-4.4.9-6 2l-4.6 2.6-5.6 4c-.5.3-.8.9-.5 1.5l2.5 3.2c2.3.7 3.2-2 4.7-3.1l2.5-3.8c2.2-3.7 5.7-6.1 10.2-5.4.6.3 1.6.1 1.9.6 1.3.2 2.3 1.4 3.4 1.8l.2.2c-.4.8-1.4 1.4-2 2-1-.6-1.4-1.9-1.3-3.2-.6-.6-1.5-.5-2.1-1-1.4 0-3-.1-4.2.4-3.5 1-5.4 4.4-7 7.3l-3.7 4.2-.3 18.8-.1 12.7c.3.7.1 1.9.3 2.6l-6.8.3c-1.3-.3-2.7-.1-3.9-.6l.5-3.8v-15.8l.1-11.8-.1-2.3c-1.2-1-2.8-2-3.3-3.6l-1.8-4.3c-1.4-3-4.9-4.7-8.3-4.6-1.6.3-3.5.3-4.6 1.6.3 1.1.3 2.5-.5 3.2-.7-.8-1.8-1.2-2.3-2.2 1.9-1.6 4.2-2.8 7-2.9 3.3-.3 6.5.8 8.5 3.5 1.8 3.2 2.2 7.5 6.3 9l4.4 1c.5-.3 1.2-.2 1.6-.7l-.2-.7-4.4-5.4-4.7-4.2c-3.8-3.5-9.6-4.9-14.8-2.9L89 154l-1.1.7c-.6-.7-.7-1.9-.8-2.9 1.2-.7 3.1-.7 4.2 0 3.9-1.2 8.9-2 12.6-.7l.3-.3c-1.7-3.4-5.4-5.5-9.1-5.9-1.5-.1-3.3-.2-4.7.3-.4 1.1-.6 2.5-1.7 3.2h-.6l-2.4-2.6.5-.3 5.1-.9 4.4-.2c4.2.7 8.3 3.7 10.1 7.6l3.1 2.2 5.3 5c.7 1.7 1.9-.2 2.8-.5.5-.8-.7-1.2-.9-1.7l-2.8-2.9-6.3-5.4-5.3-3.6c-1.8-.9-3.7-1.5-5.7-1.7l-4.5.1c-1.2.2-2.7.4-3.9.4-.2-.6.5-1.4.9-1.8l1.4 1.1 5.9-.3c2.2.2 4.2 1.1 6.2 1.8.4-.6-.4-1-.6-1.6l-3.1-2.8-3.9-2.1c-1.6-.6-3.2-1.1-5.1-1-.6 1.2-2 2.2-3.5 2-.1-.9-.4-2.3 0-3.1l4.6.5c.8-.3 1.6.5 2.4.7l2.5.9 3.6 2.1 2.6 2.4 2.8 3.7 4.1 3.1 5.2 4.5c.5.6 1 1.4 1.8 1.2.4-.4 1.1-.7.8-1.5L110 147l-6.1-5.1-4.6-2.9-5-2.2c-2.2-1-4.9-.5-7-1.7.1-1 .9-1.8 1.4-2.6.6 0 .7.8.9 1.3-.4.9.5 1.6 1.2 1.6l4.8 1.5 4.1 1.9 3.8 2.4c.5.5 1 .8 1.8 1.1l.2-.3c-1.1-3.1-2.8-6.1-5.4-8.3.1-.6-.6-.3-.7-.7l-3.3-2.6-4.2-2.4c-1.4 1.3-3.5 1.2-5.3.9-.4-1.4 0-2.9.4-4.2l1.1.4 4.8 2.7L99 132c1.1 1.2 2.5 2.1 3.5 3.5l.3.1 2.1 3.9 1.7 4 5.4 5.2 2.8 3c.5 0 .9-.5 1.2-.9l-.2-.9-5.3-7.1-5.5-6.4c-.9-.6-1.7-2-2.7-2.5-.2-.2-.1-.7-.5-.6l-5.1-3.8-7-4.2.3-.3c.9-.5 1.8-1.2 3.1-1 .4.8-.2 1.6 0 2.4l6.3 4.1 3.7 2.9 4.9 5.2c.5 0 .4-.5.2-.8-.9-2.3-1.3-4.9-2.8-6.9l-5.1-7.4c-.8-.8-1.2-2-2.3-2.4-3 1.3-5.5-1.3-7.5-3.2.7-1.2 2-2.3 2.8-3.2l.4.1 4.7 5.7 5.7 7.7 2.4 3.9.9 2 2.3 6.8 4.7 6.1c.5.6.9-.3 1-.6l-.5-1.7-3.6-7.5c-.5-1.5-1.9-2.6-2.3-4.1l-1.1-1.5-8.7-11.5c-.6-.8-2-1.8-2.1-2.9l3.3-.7c.8.3.2 1.2.3 1.9-.3.9-1.3 2-.1 2.7l7.2 9.6c.6.7 1.1 1.8 1.8 2.4 0 .7.5 1.1 1 1.4.2-1.2-.2-2.3-.4-3.6l-2.4-7.6-2.4-6.3c-.6-.8-2.5-.4-2.4-1.6.5-.6 1-1.3 1.7-1.4l.6 1.1 4.1 11.7 1.7 5.8.7 4.5 2.6 5.3c.2.4.5.1.7-.1l.4-1-1.6-5.3c-.4-1-.6-2.1-1.1-3l-4-11.3-3.5-9.7v-.3c1-.3 2.2-.4 3.4-.5.6.8.2 1.9.1 2.8l-1.5 1.8 2 5.9 3.4 9.4.3.3.3-.4.5-6.9.2-9.4c-.8-.8-2.3-.7-2.8-1.9.9-.7 1.9-1.2 3.2-1.2l.1 3.1-.3 11.4-.5 5.8c-1 1.9.7 3.3 1 5.1l.3.2c.7-.9 1-2.2 1.4-3.3l-.8-7.1v-7.7l.3-6.3c1-.4 1.8.5 2.7.8-.2 1.2-1.8.8-2.4 1.7l-.1 11.1.3 4.9c.3.2 0 .6.3.7l.6-.7 4.2-10.9 1.6-3.9c.5-1.3-1.5-1.2-1.3-2.4.7-.5 1.8-.6 2.6-.6l-1.7 5-1.2 3.1-2.9 7.1-3.5 9.5c.1.8 0 1.7.6 2.3l.3-.1 4-6.7 1.4-7.4 2.6-8.5 3.2-8.4.2-.2 2.8 1.6.1.3zm-16.5 54.7l-2.3-.5c-.2.1-.4 1-.1 1.4l2.4-.5v-.4zm5.7.9c.3.1.5-.3.5-.3v-.9c0-.4-.5-.4-.7-.3-.2.1-1.7.7-1.7.7.4.6 1.6.7 1.9.8zm-6.3.9c2.7 1.4 5-.2 5-.2v-.3l-.7-.2c-.6-.4-1.9-.6-2.1-.5-.2.1-.7.3-1.1.3-.3.1-1.1.5-1.3.8l.2.1zm-1.8.3c-.2.2-.4.4-.2 1.3v.4l.8.1s1-.3 1.2-.4c.2-.1.6-.3.6-.7l-2.4-.7zm5.8.8c0 .3 1 .6 1.2.6.2 0 .2.1.6.3.4.2.8 0 .8-.2s.3-1 .3-1c0-.7-.7-.6-.8-.6-.2 0-1.9.6-2.1.7v.2zm-3.4 1.9l1.8.6c.2-.2 1.4-.4 1.4-.4.9-.2 1.3-.7 1.3-.7-2-1-3.1-.9-3.1-.9l-1 .3c-.9.1-1.1.5-1.2.7 0 0 .5.4.8.4zm-2.5.2c-.2.1-.2.9 0 1.6 0 0 .7.1 1.7-.3l.8-.3v-.3l-1.3-.6s-1-.2-1.2-.1zm5.8.8v.2l2.6.8c.2-.1.3-.5.2-.9 0-.4 0-.7-.3-.9-.3-.2-.6 0-.7.1l-1.8.7zm-4.1 1.6s1.5.6 1.8.7c.3.2.5.1.5.1l2.7-.8v-.3c-2.2-1.5-4.4-.4-5.1-.1l.1.4zm-1.6.2c-.1.2-.5 1.2 0 1.8 0 0 1.7-.3 2.4-.7 0 0-.3-.6-1.2-.8-.9-.1-1.2-.3-1.2-.3zm6.5 1.7c.1 0 .9.3 1 .4 0 0 1.3.4 1.1-.4-.2-.7.1-.6 0-1.3-.1-.7-.9-.1-.9-.1-1.8.4-1.9.7-2.1.9 0 0 .8.5.9.5zm-4 1.4s1.6.6 1.7.5c.1-.1 1.3-.5 2.1-.7.9-.2.1-.6.1-.6-.8-.1-1-.3-1.2-.4-1.3-1.1-3.7.4-4 .5-.1.1 1.3.7 1.3.7zm4.1 1.6c.7.3 1.6.4 1.8.3l.1-1.5-.3-.4-.9.2c-1.2.1-1.7.6-1.9.8l1.2.6zm-5.7-.1c1.1-.2 1.4-.7 1.4-.7-2-1-2.4-.8-2.4-.8-.2.3-.2 1.3.1 1.7l.9-.2zm3.6 2c.1-.2 1-.4 1-.4 1-.2 1.3-.7 1.3-.7-3.6-1.9-5.1-.6-5.7-.2-.2.2 3.2 1.5 3.4 1.3zm-2.5-.1l-2.2-.6c-.2.1-.2 1.8.1 2.2l2.8-.9-.7-.7zm5.6 1.5c.3.1.8.1.8.1s.3-1 .2-1.4c0-.4-.4-.7-1.1-.5-1.7.5-1.8 1-1.8 1 .6.4 1.6.7 1.9.8zm-6 .7c2.6 1.7 5.2.2 5.2.2v-.5l-.7-.2c-.6-.4-1.9-.6-2.1-.5-.2.1-.7.2-1.1.3-.3.1-1.2.2-1.4.5l.1.2zm-.5.6c-.5-.2-1.2-.1-1.2-.1-.2.2 0 .6-.1 1.4l.3.4.6-.1s.8-.2.9-.2c.2-.1 1-.2 1-.5 0 0-1-.8-1.5-.9zm5 1.1c.3.1 1 .5 1.1.5.2 0 .6.1 1 .2.2 0 .2-.9.2-1.1 0-.2-.1-.4-.1-.4-.5-.4-1.1.1-1.3.1-.2 0-1 .6-1.2.6 0-.1.1 0 .3.1zm-3.7 1.8c1.2.6 2.1.5 2.1.5.5-.1 1.4-.5 1.4-.5.6-.3 1.1-.5 1.1-.5-1.1-1.3-3.2-1-3.2-1l-1.1.2c-.6.3-1.3.4-1.5.6.1 0 .4.3 1.2.7zm-2.3-.2c-.2.1-.3 1.3-.1 2.1 0 0 .8-.2 1.9-.6l.8-.3v-.3l-1.4-.6c0 .1-1.1-.4-1.2-.3zm5.5 1.1v.2l2.6.8c.2-.1.3-.5.2-.9 0-.4 0-.7-.3-.9-.3-.2-.6 0-.7.1l-1.8.7zm-4 1.7s1.5.6 1.8.8c.3.2.5.1.5.1l2.7-.8v-.3c-2.2-1.5-4.4-.4-5.1-.1l.1.3zm-1.6.3c-.1.2-.5 1.2 0 1.8 0 0 1.7-.3 2.4-.7 0 0-.3-.6-1.2-.8-.9-.2-1.2-.3-1.2-.3zm6.4 1.6c.1 0 1.1.2 1.2.2 0 0 .7.2.7-.2 0-.3.3-.4.2-1.1-.1-.4-.7-.3-.7-.3-1 .3-1.5.6-1.7.8-.1.1.2.6.3.6zm-3.9 1.5s1.6.6 1.7.5c.1-.1 1.3-.5 2.1-.7.9-.2.1-.6.1-.6-.8-.1-1-.3-1.2-.4-1.3-1.1-3.7.4-4 .5-.1.1 1.3.7 1.3.7zm4.1 1.6c.7.3 1.6.4 1.8.3l.1-1.5-.3-.4-.9.2c-1.2.1-1.7.6-1.9.8 0 0 .6.2 1.2.6zm-5.7-.2c1.1-.2 1.4-.7 1.4-.7-2-1-2.4-.8-2.4-.8-.2.3-.2 1.3.1 1.7l.9-.2zm5.7 3.4c.7.3 1.6.4 1.8.3l.1-1.5-.3-.4-.9.2c-1.2.1-1.7.6-1.9.8l1.2.6zm-5.7-.1c1.1-.2 1.4-.7 1.4-.7-2-1-2.4-.8-2.4-.8-.2.3-.2 1.3.1 1.7l.9-.2zm3.6-1.2c.1-.1 1-.4 1-.4 1-.2 1.3-.7 1.3-.7-3.6-1.9-5.1-.6-5.7-.2-.2.2 3.2 1.4 3.4 1.3zm-4.9 3.1l5 .3 3.2-.1c.9-.1 1-.8.4-1.1l-1.5-.6c-1.5-1-3-.7-3.4-.5-.4.2-3.2 1.3-3.9 1.3.1.1-.1.6.2.7z"></path><path d="M115.6 206.4c-34.9 0-63.4-28.4-63.4-63.4 0-34.9 28.4-63.4 63.4-63.4 34.9 0 63.4 28.4 63.4 63.4 0 34.9-28.5 63.4-63.4 63.4zm0-123.8c-33.3 0-60.4 27.1-60.4 60.4s27.1 60.4 60.4 60.4S176 176.3 176 143s-27.1-60.4-60.4-60.4z"></path></svg>