<svg xmlns="http://www.w3.org/2000/svg" viewBox="0 0 170 42" xml:space="preserve"><path fill="#fff" class="logo__letter" d="M11.7 28.4c-1.1-.2-1.8-.3-3-.3-3.9 0-5.3 2-5.3 4.5 0 1.8 1.1 3.2 3.5 3.2.6 0 1 0 1.5-.1l.7-4.1h3.2l-1.2 6.7c-1.2.3-3 .6-4.3.6C2.4 38.8 0 36 0 33.1c0-5.5 3.6-8 8.9-8 1.4 0 2.5.2 3.6.5l-.8 2.8M19.8 31.9c-.1 0-.3-.1-.5-.1-1.2 0-2.6 1.2-3.3 5.8l-.2 1h-3.3l1.7-9.7h3.1l-.3 1.7c.5-1 1.3-1.9 3-1.9.2 0 .4 0 .6.1l-.8 3.1M25.9 31.1c-1 0-1.9.4-2.4 1.5 2.4.1 3.4-.3 3.4-.9 0-.4-.4-.6-1-.6zm-2.7 3.8c0 1 .8 1.5 2.3 1.5.7 0 1.6-.2 2.5-.6l.7 2c-1.1.6-2.6.9-3.7.9-3.4 0-4.9-1.7-4.9-4.1 0-3.8 2.6-6 5.8-6 2.6 0 3.8 1.2 3.8 2.6.1 2.5-2 3.8-6.5 3.7zM36 31.1c-1 0-1.9.4-2.4 1.5 2.4.1 3.4-.3 3.4-.9 0-.4-.4-.6-1-.6zm-2.7 3.8c0 1 .8 1.5 2.3 1.5.7 0 1.6-.2 2.5-.6l.7 2c-1.1.6-2.6.9-3.7.9-3.4 0-4.9-1.7-4.9-4.1 0-3.8 2.6-6 5.8-6 2.6 0 3.8 1.2 3.8 2.6.1 2.5-2 3.8-6.5 3.7zM50.5 32.9l-1 5.7h-3.3l.9-5.2c.1-.3.1-.6.1-.8 0-.6-.2-1-.8-1-.9 0-2 1-2.8 6l-.2 1h-3.2l1.7-9.7H45l-.3 1.7c.6-.9 1.8-1.9 3.1-1.9 2 0 2.8 1.2 2.8 3.1.1.3 0 .7-.1 1.1M56.7 27.2h-3.2l.4-2.5h3.2l-.4 2.5zm-2 11.4h-3.3l1.7-9.7h3.2l-1.6 9.7zM66.8 32.9l-1 5.7h-3.3l.9-5.2c.1-.3.1-.6.1-.8 0-.6-.2-1-.8-1-.9 0-2 1-2.8 6l-.2 1h-3.2l1.7-9.7h3.1l-.3 1.7c.6-.9 1.8-1.9 3.1-1.9 2 0 2.8 1.2 2.8 3.1 0 .3 0 .7-.1 1.1M74 31.1c-1.8 0-2.5 2.2-2.5 3.5 0 .6.1 1.2.7 1.2 1.3 0 2.4-1.8 2.8-4.3v-.2c-.3-.2-.7-.2-1-.2zm3.3 5.5c-.7 3.8-2.5 5.4-6.6 5.4-.8 0-1.9-.2-3.1-.6l.6-2.1c.9.3 1.7.4 2.4.4 1.6 0 2.6-.4 3.1-2 .2-.5.2-.6.4-1.4-.7 1.3-1.8 2-3 2-2.3 0-2.9-1.9-2.9-3.6 0-2.6 1.9-6 5.2-6 .8 0 1.5.4 1.9.8l.1-.7h3.3l-1.4 7.8zM98.9 28.9l-2.2 4.7h2.8l-.6-4.7zm1.3 9.7-.4-2.5h-4.4L94 38.6h-3.5l7.3-13.3h3.2l2.6 13.3h-3.4zM113.1 38.6H110l.3-1.7c-.6.9-1.8 1.9-3.1 1.9-2 0-2.8-1.2-2.8-3.1 0-.4 0-.8.1-1.2l1-5.7h3.3l-.9 5.2c-.1.3-.1.6-.1.8 0 .6.2 1 .8 1 1 0 2-1 2.8-6l.2-1h3.2l-1.7 9.8M122.6 31.5c-.7-.2-2-.4-3.1-.4s-1.2.3-1.2.5c0 .3.1.4 1.6 1.1 2.3 1.1 2.7 1.5 2.7 2.8 0 1.9-1.1 3.3-4.9 3.3-1.1 0-2.5-.3-3.5-.8l.6-2.1c1.1.4 2.3.5 3.2.5 1.2 0 1.4-.2 1.4-.6 0-.2-.1-.4-1-.9-2.2-1.2-3.2-1.7-3.2-3.2 0-2.4 1.5-3 4.6-3 1 0 2.5.2 3.3.5l-.5 2.3M129.9 30.9h-1.6l-.7 4.1c-.2.9-.1 1.3.5 1.3.3 0 .5-.1.8-.1l.5 2.1c-.5.3-1.4.5-2.1.5-2.5 0-3.4-1.6-3.1-3.3l.8-4.6h-1.2l.4-2h1.2l.5-2.7h3.2l-.5 2.7h1.6l-.3 2M137.7 31.9c-.1 0-.3-.1-.5-.1-1.2 0-2.6 1.2-3.3 5.8l-.2 1h-3.3l1.7-9.7h3.1l-.3 1.7c.5-1 1.3-1.9 3-1.9.2 0 .4 0 .6.1l-.8 3.1M143.4 31.1c-1.8 0-2.5 2.3-2.5 3.9 0 .6.1 1.2.7 1.2 1.3 0 2.6-2.3 2.8-4.8v-.2c-.3 0-.6-.1-1-.1zm3 7.5h-3.3l.3-1.8c-.6 1.1-1.8 1.9-3 1.9-2.3 0-2.9-1.9-2.9-3.6 0-2.9 1.9-6.5 5.2-6.5.8 0 1.6.4 2 .9l.1-.7h3.3l-1.7 9.8zM151.3 38.8c-1.8 0-3.1-.8-3.1-2.6 0-.3 0-.6.1-.9l1.8-9.9h3.2l-1.7 9.6c0 .3-.1.5-.1.6 0 .5.2.8.7.8.3 0 .6-.1.8-.2l.6 2.1c-.5.2-1.3.5-2.3.5M159.2 27.2H156l.4-2.5h3.2l-.4 2.5zm-1.8 11.4h-3.3l1.7-9.7h3.2l-1.6 9.7zM165 31.1c-1.8 0-2.5 2.3-2.5 3.9 0 .6.1 1.2.7 1.2 1.3 0 2.6-2.3 2.8-4.8v-.2c-.2 0-.6-.1-1-.1zm3 7.5h-3.3l.3-1.8c-.6 1.1-1.8 1.9-3 1.9-2.3 0-2.9-1.9-2.9-3.6 0-2.9 1.9-6.5 5.2-6.5.8 0 1.6.4 2 .9l.1-.7h3.3l-1.7 9.8z"/><path fill="#74B943" class="logo__tree" d="M86.1 25.1c.2-1.2.6-2.4 1.2-3.5.1-.2.3-.4.4-.6.2-.2.6-.6 1.6-.7.8-.1 1.8.1 2.8 1 1.1 1.1 1.9 2.5 1.9 2.5.2.2.9 1.2 1.1 1.2.3 0 .9-1.5 1-1.7 1.5-2.9 2.6-6 2.7-9.3C99.3 8.4 93 2.1 88 .5c-.8.2 2.7 6.6-.8 5.3-1.8-.8-2.2-1.2-1.3-3 .6-1.3 1.4-1.8-.3-2.2-3.1-.8-7.7 1.8-10.2 3.9-2.4 1.9-6.5 5.4-7 8.6-.5 3.4 1.7 7.7 3.5 10.4.5.8 2.2 3.8 2.7 1.8.4-1.7.9-3.1 1.9-4.4 2-2.6 5.2-4.4 8.6-4 2.2.3 1.7 1.7.8 2.9-.7 1-1.3 1.8-2 2.9-.5.8-1 1.8-1 1.8-1.3-1.6-2.4-2.7-3.3-3.4-.4-.3-.7-.6-1.2-.6-.2 0-.4.1-.5.3 0 .3 1.8 1.3 3.2 4.5 1.9 4.4.8 15.7.8 15.7 2-1.7 5-3.2 7.2-3.3.8-.1-1.7-1.3-2.9-5.2-.4-1.5-.7-3.3-.6-5.1"/><path fill="#74B943" class="logo__tree" d="M85.8 28.1c.1-2.5 1.6-3.1 1.7-3.2h.2l.1-.1s.2-.1.5 0c0 0 .1 0 .1.1.4.2 1.2.5 1.9.2.6-.3 1.3-1.5 1.9-1.9.7-.5 0-.7 0-.7-.6-.2-1.5-.5-2.2-.5h-.4c-.7.2-1.2.5-1.7 1.7 0 .1-.1.2-.1.2-.1.1-.2.3-.3.4-.5.3-1.2.6-1.6.9l-1.1.3"/></svg>