<svg xmlns:dc="http://purl.org/dc/elements/1.1/" xmlns:cc="http://creativecommons.org/ns#" xmlns:rdf="http://www.w3.org/1999/02/22-rdf-syntax-ns#" xmlns:svg="http://www.w3.org/2000/svg" xmlns="http://www.w3.org/2000/svg" viewBox="100 0 192 100" height="60" width="240" xml:space="preserve" id="svg2" version="1.1"><metadata id="metadata8"><rdf:rdf><cc:work rdf:about=""><dc:format>image/svg+xml</dc:format><dc:type rdf:resource="http://purl.org/dc/dcmitype/StillImage"></dc:type></cc:work></rdf:rdf></metadata><title>Department of Planning, Industry and Environment</title><defs id="defs6"></defs><g transform="matrix(1.3333333,0,0,-1.3333333,0,99.506667)" id="g10"><g transform="scale(0.1)" id="g12"><path id="path14" style="fill:#ffffff;fill-opacity:1;fill-rule:nonzero;stroke:none" d="m 899.855,0 c -3.593,0 -6.503,2.91016 -6.503,6.50391 V 671.234 c 0,3.594 2.91,6.504 6.503,6.504 3.594,0 6.504,-2.91 6.504,-6.504 V 6.50391 C 906.359,2.91016 903.449,0 899.855,0 v 0"></path><path id="path16" style="fill:#ffffff;fill-opacity:1;fill-rule:nonzero;stroke:none" d="M 623.336,297.91 593.406,169.258 561.984,297.91 H 518.766 L 486.824,170.723 457.793,297.91 h -47.23 L 462.828,97.0117 h 46.481 L 539.977,224.102 571.152,97.0117 h 45.657 l 0.457,1.711 52.629,199.1873 z M 190.195,169.543 80.8672,297.93 H 34.5469 V 96.9844 H 79.6602 V 225.078 L 188.684,96.9844 h 46.609 V 297.93 H 190.195 V 169.543"></path><path id="path18" style="fill:#ffffff;fill-opacity:1;fill-rule:nonzero;stroke:none" d="m 29.7422,35.3516 v 0.1679 c 0,17.4219 13.3242,32.1563 32.0664,32.1563 10.8555,0 17.5078,-3.0078 23.9141,-8.4375 l -6.9258,-8.2617 c -4.8125,4.1015 -9.5196,6.6718 -17.4219,6.6718 -11.457,0 -20.168,-10.0312 -20.168,-21.9453 v -0.1836 c 0,-12.7851 8.4336,-22.207 21.1446,-22.207 5.8672,0 11.1992,1.8633 15.0195,4.7148 V 29.668 H 61.457 v 9.5117 H 87.9492 V 13.0586 C 81.8125,7.8125 73.0156,3.35938 62,3.35938 42.5469,3.35938 29.7422,17.2266 29.7422,35.3516"></path><path id="path20" style="fill:#ffffff;fill-opacity:1;fill-rule:nonzero;stroke:none" d="m 148.125,35.3516 v 0.1679 c 0,12.0977 -8.801,22.1289 -21.156,22.1289 -12.352,0 -20.953,-9.8554 -20.953,-21.9453 v -0.1836 c 0,-12.0898 8.789,-22.1211 21.132,-22.1211 12.356,0 20.977,9.875 20.977,21.9532 m -53.5781,0 v 0.1679 c 0,17.5078 13.5121,32.1563 32.6011,32.1563 19.118,0 32.434,-14.461 32.434,-31.9727 v -0.1836 c 0,-17.4922 -13.5,-32.16012 -32.613,-32.16012 -19.098,0 -32.4221,14.48442 -32.4221,31.99222"></path><path id="path22" style="fill:#ffffff;fill-opacity:1;fill-rule:nonzero;stroke:none" d="m 158.797,66.6328 h 12.078 l 18.75,-47.8125 18.656,47.8125 h 11.817 L 194.246,3.97656 h -9.601 L 158.797,66.6328"></path><path id="path24" style="fill:#ffffff;fill-opacity:1;fill-rule:nonzero;stroke:none" d="M 227.469,66.6328 H 273.59 V 56.8477 H 238.398 V 40.6758 h 31.2 v -9.7774 h -31.2 V 14.1992 h 35.641 V 4.43359 h -46.57 V 66.6328"></path><path id="path26" style="fill:#ffffff;fill-opacity:1;fill-rule:nonzero;stroke:none" d="m 311.563,35.793 c 7.812,0 12.8,4.0898 12.8,10.3984 v 0.1758 c 0,6.6601 -4.8,10.3047 -12.898,10.3047 H 295.566 V 35.793 Z m -26.918,30.8398 h 27.714 c 7.825,0 13.957,-2.3242 17.95,-6.2226 3.296,-3.3789 5.148,-7.9961 5.148,-13.4063 v -0.207 c 0,-10.2149 -6.125,-16.336 -14.832,-18.8281 L 337.422,4.43359 H 324.531 L 309.25,26.1055 H 295.566 V 4.43359 H 284.645 V 66.6328"></path><path id="path28" style="fill:#ffffff;fill-opacity:1;fill-rule:nonzero;stroke:none" d="m 345.105,66.6328 h 10.098 l 33.332,-43 v 43 h 10.758 V 4.43359 h -9.164 L 355.832,48.6914 V 4.43359 H 345.105 V 66.6328"></path><path id="path30" style="fill:#ffffff;fill-opacity:1;fill-rule:nonzero;stroke:none" d="m 410.387,66.6328 h 11.64 L 440.953,37.207 459.879,66.6328 H 471.52 V 4.43359 H 460.594 V 49.0352 L 440.953,19.707 h -0.355 L 421.152,48.8594 V 4.43359 H 410.387 V 66.6328"></path><path id="path32" style="fill:#ffffff;fill-opacity:1;fill-rule:nonzero;stroke:none" d="m 481.941,66.6328 h 46.106 v -9.7851 h -35.18 V 40.6758 h 31.192 V 30.8984 H 492.867 V 14.1992 h 35.645 V 4.43359 H 481.941 V 66.6328"></path><path id="path34" style="fill:#ffffff;fill-opacity:1;fill-rule:nonzero;stroke:none" d="m 539.258,66.6328 h 10.133 l 33.316,-43 v 43 h 10.75 V 4.43359 h -9.144 L 550.016,48.6914 V 4.43359 H 539.258 V 66.6328"></path><path id="path36" style="fill:#ffffff;fill-opacity:1;fill-rule:nonzero;stroke:none" d="M 621.844,56.4844 H 602.121 V 66.6328 H 652.59 V 56.4844 H 632.871 V 4.43359 H 621.844 V 56.4844"></path><path id="path38" style="fill:#ffffff;fill-opacity:1;fill-rule:nonzero;stroke:none" d="m 247.715,124.961 26.539,31.777 c 18.375,-15.156 37.621,-24.785 60.953,-24.785 18.379,0 29.469,7.297 29.469,19.25 v 0.594 c 0,11.367 -7.004,17.199 -41.137,25.949 -41.117,10.496 -67.652,21.863 -67.652,62.402 v 0.586 c 0,37.039 29.75,61.532 71.457,61.532 29.738,0 55.117,-9.336 75.836,-25.946 l -23.328,-33.84 c -18.102,12.551 -35.891,20.129 -53.106,20.129 -17.199,0 -26.23,-7.871 -26.23,-17.793 v -0.586 c 0,-13.41 8.73,-17.785 44.027,-26.828 41.414,-10.781 64.75,-25.664 64.75,-61.238 v -0.578 c 0,-40.535 -30.906,-63.2891 -74.957,-63.2891 -30.922,0 -62.117,10.7891 -86.621,32.6641"></path><path id="path40" style="fill:#ffffff;fill-opacity:1;fill-rule:nonzero;stroke:none" d="m 704.664,438.352 c -0.18,9.269 -7.32,15.476 -11.41,18.898 -4.098,3.426 -23.137,17.254 -58.836,37.98 2.758,3.59 3.93,5.485 6.551,9.18 12.879,18.172 24.656,36.957 30.351,58.707 1.442,5.481 3.981,17.215 1.785,23.223 -2.675,7.308 -9.093,11.941 -15.691,13.723 -15.258,4.128 -70.187,0.761 -74.613,0.359 0.199,16.41 -0.442,43.34 -6.328,70.605 -1.516,6.141 -4.149,15.567 -10.879,18.364 -11.77,4.632 -24.699,-1.778 -35.098,-6.555 -14.18,-6.512 -24.68,-11.727 -39.828,-19.563 -6.957,24.602 -14.285,47.758 -16.852,53.618 -1.871,4.281 -4.617,12.07 -12.839,13.64 -8.372,1.598 -12.969,-1.738 -17.114,-4.281 -7.242,-4.437 -38.738,-26.746 -49.207,-35.434 -7.086,11.766 -11.437,20.067 -18.183,30.758 -2.606,4.114 -9.364,15.242 -14.27,20.18 -2.664,2.684 -5.574,4.547 -9.961,4.508 -4.222,0 -7.152,-1.895 -9.773,-4.539 -4.903,-4.934 -11.668,-16.063 -14.266,-20.18 -6.75,-10.688 -11.101,-18.988 -18.187,-30.758 -10.469,8.688 -41.969,30.996 -49.207,35.442 -4.149,2.539 -8.743,5.875 -17.118,4.277 -8.222,-1.566 -10.964,-9.359 -12.836,-13.637 -2.562,-5.867 -9.898,-29.019 -16.851,-53.625 -15.149,7.836 -25.695,13.082 -39.875,19.594 -10.399,4.777 -23.281,11.164 -35.051,6.523 -6.734,-2.796 -9.363,-12.218 -10.879,-18.363 -5.886,-27.266 -6.527,-54.187 -6.328,-70.605 -4.43,0.406 -59.3554,3.769 -74.6132,-0.356 -6.5976,-1.781 -13.0195,-6.418 -15.6953,-13.726 -2.1914,-6 0.3477,-17.739 1.7891,-23.223 5.6914,-21.746 17.4687,-40.531 30.3515,-58.707 2.6211,-3.691 3.793,-5.59 6.5508,-9.18 C 34.5508,474.473 15.5156,460.645 11.418,457.223 7.32422,453.801 0.1875,447.598 0.0078125,438.324 -0.0703125,434.219 0.363281,430.836 4.11719,425.551 10.9453,415.953 48.8438,379.535 133.746,366.539 119.191,355.93 122.117,342.734 124.27,337.422 c 1.695,-4.168 5.804,-9.012 14.097,-13.563 13.313,-7.304 29.832,-9.004 43.856,-9.269 20.129,-0.371 41.312,3.84 60.976,7.844 18.785,3.828 38.418,11.55 57.617,12.449 11.223,0.527 22.473,0.265 33.668,-0.606 3.942,-0.3 9.028,-0.925 17.973,-0.925 7.93,0.007 13.848,0.652 17.731,0.957 11.195,0.867 22.445,1.132 33.667,0.605 19.2,-0.898 38.833,-8.633 57.618,-12.453 19.66,-4.004 40.847,-8.223 60.976,-7.84 14.024,0.25 30.539,1.961 43.856,9.266 8.293,4.551 12.402,9.386 14.097,13.566 2.153,5.313 5.078,18.504 -9.476,29.11 84.902,13.003 122.801,49.417 129.629,59.019 3.754,5.281 4.187,8.664 4.109,12.77"></path><path id="path42" style="fill:#e5143c;fill-opacity:1;fill-rule:nonzero;stroke:none" d="m 482.262,620.375 c 1.777,-7.473 10.781,-53.977 10.781,-102.703 0,-35.285 -4.293,-66.594 -12.73,-93.102 -8.95,-27.918 -25.813,-45.882 -39.961,-56.695 36.312,1.184 68.859,23.746 91.906,63.84 30.019,52.539 36.433,118.492 37.379,166.719 1.066,54.91 -3.043,67.871 -4.637,73.187 -1.605,5.348 -3.812,7.477 -8.535,7.379 -9.25,-0.156 -48.313,-17.602 -84.824,-43.687 5.246,-2.743 8.847,-7.461 10.621,-14.938"></path><path id="path44" style="fill:#e5143c;fill-opacity:1;fill-rule:nonzero;stroke:none" d="m 382.941,360.441 c 25.946,0.547 68.789,21.457 83.661,68.567 7.929,24.676 10.675,49.254 11.953,88.66 1.535,47.332 -8.071,92.734 -8.633,95.383 -0.742,3.496 -2.031,8.922 -6.395,9.797 -4.066,0.816 -8.121,-3.692 -10.675,-5.84 -2.547,-2.149 -66.094,-57.578 -93.723,-126.231 -5.078,-14.218 -13.926,-28.851 -14.219,-72.789 -0.105,-15.82 1.469,-33.515 9.363,-43.441 4.446,-5.586 12.645,-14.449 28.668,-14.106"></path><path id="path46" style="fill:#e5143c;fill-opacity:1;fill-rule:nonzero;stroke:none" d="m 478.707,657.266 c -7.133,32.808 -13.941,55.136 -14,55.273 -1.508,4.004 -3.637,7.051 -6.75,7.57 -3.547,0.586 -5.684,-0.347 -9.16,-2.89 -4.492,-3.281 -36.082,-28.219 -46.402,-36.774 10.582,-19.609 19.082,-44.027 26.031,-63.472 15.594,12.289 24.961,23.179 50.281,40.293"></path><path id="path48" style="fill:#e5143c;fill-opacity:1;fill-rule:nonzero;stroke:none" d="m 661.492,575.176 c 0.321,3.644 0.008,7.871 -1.5,10.074 -2.031,2.965 -4.609,4.355 -11.015,5.156 -12.836,1.606 -66.11,-3.422 -66.11,-3.422 -0.547,-22.746 -2.445,-44.246 -5.664,-63.921 15.43,-5.879 29.867,-11.879 45.918,-19.84 31.309,39.496 37.738,64.804 38.371,71.953"></path><path id="path50" style="fill:#e5143c;fill-opacity:1;fill-rule:nonzero;stroke:none" d="m 690.523,438.137 c -0.23,5.218 -2.636,9.5 -11.148,15.195 -15.41,10.301 -54.539,36.055 -104.797,55.09 -6.418,-32.277 -16.453,-60.516 -29.824,-83.93 C 530.957,400.25 513.121,381.23 492.813,369 c 61.355,4.16 112.902,13.656 150.011,31.57 42.387,20.461 48.008,30.754 47.699,37.567"></path><path id="path52" style="fill:#e5143c;fill-opacity:1;fill-rule:nonzero;stroke:none" d="m 555.105,359.113 c -10.187,-0.285 -18.074,-1.953 -35.031,-4.777 -13.629,-2.273 -24.219,-2.988 -36.855,-2.664 -7.391,0.195 -23.926,0.367 -23.926,0.367 -7.73,0.18 -16.492,0.375 -25.258,0.375 h -0.012 c -18.261,0 -41.867,-0.742 -62.636,-6.523 -1.098,-0.332 -2.422,-0.696 -2.27,-1.953 0.121,-0.997 1.75,-1.028 3.34,-1.036 1.645,-0.019 16.875,1.055 24.391,1.055 27.152,0 45.703,-4.687 63.636,-9.219 16.856,-4.258 32.793,-8.281 54.938,-8.281 23.359,0 43.57,2.988 51.109,11.328 2.543,2.801 5.059,8.016 3.719,12.742 -1.687,5.989 -5.965,8.809 -15.145,8.586"></path><path id="path54" style="fill:#e5143c;fill-opacity:1;fill-rule:nonzero;stroke:none" d="m 172.418,431.715 c 23.043,-40.094 55.586,-62.656 91.898,-63.84 -14.144,10.813 -31.007,28.777 -39.961,56.695 -8.437,26.508 -12.726,57.817 -12.726,93.102 0,48.726 9.004,95.23 10.781,102.703 1.77,7.477 5.375,12.195 10.617,14.938 -37.004,27.437 -75.57,43.531 -84.824,43.687 -4.719,0.098 -6.926,-2.031 -8.527,-7.379 -1.598,-5.316 -5.711,-18.277 -4.641,-73.187 0.942,-48.227 7.36,-114.18 37.383,-166.719"></path><path id="path56" style="fill:#e5143c;fill-opacity:1;fill-rule:nonzero;stroke:none" d="m 251.816,617.008 c -2.55,2.148 -6.605,6.656 -10.671,5.84 -4.36,-0.875 -5.657,-6.301 -6.399,-9.797 -0.558,-2.649 -10.164,-48.051 -8.633,-95.383 1.282,-39.406 4.024,-63.984 11.953,-88.66 14.875,-47.11 58.196,-68.293 84.207,-68.293 0,0 7.442,-0.176 14.559,2.605 2.141,0.836 4.18,1.977 6.477,3.516 -1.926,2.59 -3.614,5.469 -5.168,8.707 -5.059,10.543 -7.653,23.348 -7.758,39.168 -0.293,43.937 15.113,76.867 15.41,77.789 -27.633,68.656 -91.426,122.359 -93.977,124.508"></path><path id="path58" style="fill:#e5143c;fill-opacity:1;fill-rule:nonzero;stroke:none" d="m 352.34,513.063 c 18.351,38.007 45.332,69.32 65.531,89.527 -12.621,46.476 -48.906,112.625 -60.281,128.777 -1.652,2.348 -2.949,3.906 -5.324,3.906 -2.434,0 -3.536,-1.558 -5.184,-3.906 C 335.703,715.215 299.426,649.066 286.797,602.59 307,582.383 333.98,551.07 352.332,513.063 v -0.02 c 0.004,0.004 0.004,0.004 0.004,0.004 0,0 0.004,0 0.004,-0.004 v 0.02"></path><path id="path60" style="fill:#e5143c;fill-opacity:1;fill-rule:nonzero;stroke:none" d="m 302.277,680.445 c -10.324,8.555 -41.91,33.493 -46.402,36.774 -3.477,2.543 -5.613,3.476 -9.16,2.89 -3.113,-0.519 -5.242,-3.566 -6.754,-7.57 -0.059,-0.137 -6.863,-22.465 -13.992,-55.273 25.316,-17.114 34.687,-28.004 50.277,-40.293 6.949,19.445 15.449,43.863 26.031,63.472"></path><path id="path62" style="fill:#e5143c;fill-opacity:1;fill-rule:nonzero;stroke:none" d="m 81.5508,503.223 c 16.0469,7.961 30.4882,13.961 45.9182,19.84 -3.219,19.675 -5.117,41.175 -5.664,63.921 0,0 -53.2737,5.028 -66.1097,3.422 -6.4062,-0.801 -8.9844,-2.191 -11.0156,-5.156 -1.5078,-2.203 -1.8203,-6.43 -1.5,-10.074 0.6289,-7.149 7.0625,-32.457 38.3711,-71.953"></path><path id="path64" style="fill:#e5143c;fill-opacity:1;fill-rule:nonzero;stroke:none" d="m 159.918,424.492 c -13.375,23.414 -23.406,51.653 -29.824,83.93 C 79.8359,489.387 40.7109,463.633 25.293,453.332 16.7852,447.637 14.3828,443.355 14.1484,438.137 13.8398,431.324 19.4609,421.031 61.8477,400.57 98.957,382.656 150.504,373.16 211.855,369 c -20.3,12.23 -38.144,31.25 -51.937,55.492"></path><path id="path66" style="fill:#e5143c;fill-opacity:1;fill-rule:nonzero;stroke:none" d="m 333.289,345.891 c -20.773,5.781 -44.383,6.523 -62.637,6.523 h -0.011 c -8.77,0 -17.536,-0.195 -25.262,-0.375 0,0 -16.535,-0.172 -23.926,-0.367 -12.637,-0.324 -23.223,0.391 -36.855,2.664 -16.961,2.824 -24.844,4.492 -35.032,4.777 -9.179,0.223 -13.453,-2.597 -15.144,-8.586 -1.34,-4.726 1.176,-9.941 3.723,-12.742 7.535,-8.34 27.746,-11.328 51.105,-11.328 22.145,0 38.082,4.023 54.938,8.281 17.933,4.532 36.484,9.219 63.636,9.219 7.52,0 22.75,-1.074 24.391,-1.055 1.59,0.008 3.215,0.039 3.34,1.036 0.148,1.257 -1.172,1.621 -2.266,1.953"></path><path id="path68" style="fill:#ffffff;fill-opacity:1;fill-rule:nonzero;stroke:none" d="m 1178.48,572.453 c 24.19,0 39.27,13.52 39.27,32.5 v 0.52 c 0,21.32 -15.34,32.5 -39.27,32.5 h -37.17 v -65.52 z m -69.16,94.641 h 71.77 c 42.64,0 69.16,-24.18 69.16,-60.844 v -0.516 c 0,-40.82 -32.76,-62.144 -72.8,-62.144 h -36.14 v -58.5 h -31.99 v 182.004"></path><path id="path70" style="fill:#ffffff;fill-opacity:1;fill-rule:nonzero;stroke:none" d="m 1271.57,674.895 h 31.46 V 485.09 h -31.46 v 189.805"></path><path id="path72" style="fill:#ffffff;fill-opacity:1;fill-rule:nonzero;stroke:none" d="m 1419.51,534.492 v 9.356 c -8.06,3.125 -18.72,5.465 -31.2,5.465 -20.29,0 -32.25,-8.579 -32.25,-22.883 v -0.52 c 0,-13.262 11.7,-20.801 26.79,-20.801 20.8,0 36.66,11.961 36.66,29.383 z m -94.12,-9.883 v 0.52 c 0,29.641 23.13,44.203 56.68,44.203 15.34,0 26.26,-2.34 36.92,-5.719 v 3.379 c 0,19.504 -11.96,29.903 -34.06,29.903 -15.34,0 -26.79,-3.383 -39.27,-8.582 l -8.32,24.699 c 15.09,6.765 29.9,11.183 51.75,11.183 20.54,0 35.88,-5.465 45.5,-15.343 10.14,-9.875 14.82,-24.438 14.82,-42.383 V 485.09 h -30.68 v 17.156 c -9.37,-11.176 -23.66,-20.019 -44.72,-20.019 -25.74,0 -48.62,14.824 -48.62,42.382"></path><path id="path74" style="fill:#ffffff;fill-opacity:1;fill-rule:nonzero;stroke:none" d="m 1477.49,622.375 h 31.45 v -21.062 c 8.84,12.742 21.58,23.921 42.9,23.921 30.95,0 48.89,-20.8 48.89,-52.523 V 485.09 h -31.47 v 78 c 0,21.324 -10.66,33.543 -29.37,33.543 -18.2,0 -30.95,-12.742 -30.95,-34.063 v -77.48 h -31.45 v 137.285"></path><path id="path76" style="fill:#ffffff;fill-opacity:1;fill-rule:nonzero;stroke:none" d="m 1629.07,622.375 h 31.45 v -21.062 c 8.84,12.742 21.59,23.921 42.9,23.921 30.95,0 48.89,-20.8 48.89,-52.523 V 485.09 h -31.46 v 78 c 0,21.324 -10.67,33.543 -29.38,33.543 -18.2,0 -30.95,-12.742 -30.95,-34.063 v -77.48 h -31.45 v 137.285"></path><path id="path78" style="fill:#ffffff;fill-opacity:1;fill-rule:nonzero;stroke:none" d="m 1782.46,622.375 h 31.45 V 485.09 h -31.45 z m -1.3,50.961 h 33.8 v -29.902 h -33.8 v 29.902"></path><path id="path80" style="fill:#ffffff;fill-opacity:1;fill-rule:nonzero;stroke:none" d="m 1845.38,622.375 h 31.45 v -21.062 c 8.84,12.742 21.58,23.921 42.9,23.921 30.95,0 48.89,-20.8 48.89,-52.523 V 485.09 h -31.47 v 78 c 0,21.324 -10.66,33.543 -29.37,33.543 -18.2,0 -30.95,-12.742 -30.95,-34.063 v -77.48 h -31.45 v 137.285"></path><path id="path82" style="fill:#ffffff;fill-opacity:1;fill-rule:nonzero;stroke:none" d="m 2100.96,560.488 v 0.524 c 0,22.359 -18.46,37.699 -40.3,37.699 -21.84,0 -39,-15.078 -39,-37.699 v -0.524 c 0,-22.359 17.42,-37.699 39,-37.699 21.84,0 40.3,15.34 40.3,37.699 z m -104.26,-101.14 11.7,23.66 c 14.82,-9.102 30.16,-14.559 48.87,-14.559 28.09,0 43.43,14.559 43.43,42.117 v 10.664 c -11.45,-14.824 -25.74,-25.222 -48.36,-25.222 -32.25,0 -62.4,23.926 -62.4,64.222 v 0.524 c 0,40.559 30.42,64.48 62.4,64.48 23.14,0 37.44,-10.664 48.1,-23.402 v 20.543 h 31.46 V 513.168 c 0,-23.137 -5.98,-40.301 -17.42,-51.742 -12.48,-12.481 -31.72,-18.457 -56.43,-18.457 -22.61,0 -43.68,5.719 -61.35,16.379"></path><path id="path84" style="fill:#ffffff;fill-opacity:1;fill-rule:nonzero;stroke:none" d="m 2150.88,460.645 c 15.85,3.125 23.4,11.183 22.36,24.445 h -13.53 v 35.879 h 34.59 v -30.422 c 0,-28.856 -13.79,-41.078 -40.05,-43.418 l -3.37,13.516"></path><path id="path86" style="fill:#ffffff;fill-opacity:1;fill-rule:nonzero;stroke:none" d="m 1111.15,427.094 h 31.98 V 245.09 h -31.98 v 182.004"></path><path id="path88" style="fill:#ffffff;fill-opacity:1;fill-rule:nonzero;stroke:none" d="m 1178.48,382.371 h 31.46 v -21.058 c 8.84,12.742 21.58,23.921 42.9,23.921 30.95,0 48.89,-20.8 48.89,-52.527 V 245.09 h -31.47 v 77.996 c 0,21.328 -10.66,33.547 -29.37,33.547 -18.21,0 -30.95,-12.746 -30.95,-34.063 v -77.48 h -31.46 v 137.281"></path><path id="path90" style="fill:#ffffff;fill-opacity:1;fill-rule:nonzero;stroke:none" d="m 1434.07,313.469 v 0.515 c 0,26.524 -18.73,43.946 -39.79,43.946 -21.58,0 -39.52,-16.641 -39.52,-43.946 v -0.515 c 0,-26.524 18.21,-43.938 39.52,-43.938 21.06,0 39.79,17.676 39.79,43.938 z m -111.03,0 v 0.515 c 0,45.508 30.94,71.25 63.7,71.25 22.62,0 36.92,-11.179 46.8,-24.179 v 73.84 h 31.47 V 245.09 h -31.47 v 22.879 c -10.14,-14.305 -24.43,-25.742 -46.8,-25.742 -32.24,0 -63.7,25.742 -63.7,71.242"></path><path id="path92" style="fill:#ffffff;fill-opacity:1;fill-rule:nonzero;stroke:none" d="m 1493.34,295.012 v 87.359 h 31.45 v -78.004 c 0,-21.32 10.67,-33.281 29.39,-33.281 18.2,0 30.93,12.48 30.93,33.809 v 77.476 h 31.73 V 245.09 h -31.73 v 21.316 c -8.83,-12.996 -21.57,-24.179 -42.9,-24.179 -30.93,0 -48.87,20.8 -48.87,52.785"></path><path id="path94" style="fill:#ffffff;fill-opacity:1;fill-rule:nonzero;stroke:none" d="m 1635.3,263.027 14.03,21.321 c 15.09,-11.184 30.95,-16.895 44.99,-16.895 13.52,0 21.32,5.711 21.32,14.813 v 0.519 c 0,10.664 -14.56,14.305 -30.68,19.246 -20.29,5.715 -42.9,14.035 -42.9,40.305 v 0.516 c 0,26 21.58,41.859 48.87,41.859 17.17,0 35.89,-5.981 50.45,-15.598 l -12.48,-22.367 c -13.26,8.07 -27.3,13 -38.74,13 -12.22,0 -19.25,-5.711 -19.25,-13.516 v -0.515 c 0,-10.149 14.83,-14.309 30.95,-19.504 20.02,-6.238 42.64,-15.34 42.64,-40.039 v -0.527 c 0,-28.856 -22.36,-43.153 -50.96,-43.153 -19.5,0 -41.08,7.012 -58.24,20.535"></path><path id="path96" style="fill:#ffffff;fill-opacity:1;fill-rule:nonzero;stroke:none" d="m 1771.01,283.047 v 72.285 h -17.42 v 27.039 h 17.42 v 37.703 h 31.47 v -37.703 h 36.92 v -27.039 h -36.92 v -67.344 c 0,-12.215 6.24,-17.156 16.89,-17.156 7.02,0 13.26,1.551 19.5,4.676 v -25.742 c -7.79,-4.422 -16.37,-7.02 -28.34,-7.02 -23.14,0 -39.52,10.145 -39.52,40.301"></path><path id="path98" style="fill:#ffffff;fill-opacity:1;fill-rule:nonzero;stroke:none" d="m 1861.76,382.371 h 31.46 v -30.945 c 8.58,20.547 24.44,34.59 48.62,33.547 v -33.282 h -1.81 c -27.57,0 -46.81,-17.941 -46.81,-54.347 V 245.09 h -31.46 v 137.281"></path><path id="path100" style="fill:#ffffff;fill-opacity:1;fill-rule:nonzero;stroke:none" d="m 2054.67,382.371 h 32.77 l -54.6,-141.187 c -10.92,-28.079 -23.15,-38.477 -45.25,-38.477 -12.99,0 -22.88,3.113 -32.5,8.32 l 10.66,23.399 c 5.72,-3.117 11.96,-5.196 18.47,-5.196 8.83,0 14.29,3.895 19.5,15.594 l -57.21,137.547 h 33.81 l 38.74,-101.922 35.61,101.922"></path><path id="path102" style="fill:#ffffff;fill-opacity:1;fill-rule:nonzero;stroke:none" d="m 2266.82,389.652 v 0.524 c 0,16.117 -12.48,28.597 -28.85,28.597 -18.46,0 -31.46,-13 -31.46,-29.378 v -0.524 c 0,-11.437 4.93,-20.277 21.06,-37.445 26,8.32 39.25,21.066 39.25,38.226 z m 8.32,-106.867 -53.82,55.645 c -28.85,-9.883 -41.6,-26.778 -41.6,-44.465 v -0.516 c 0,-22.101 17.69,-39.258 42.65,-39.258 20.27,0 37.7,10.918 52.77,28.594 z m 8.59,-8.84 c -17.16,-20.019 -37.18,-31.453 -61.62,-31.453 -31.99,0 -55.9,20.797 -55.9,50.438 v 0.519 c 0,24.442 17.41,42.383 47.06,53.297 -13.78,15.344 -20.29,26.527 -20.29,41.609 v 0.516 c 0,23.406 18.99,41.344 45.5,41.344 23.67,0 41.87,-17.68 41.87,-39.52 v -0.519 c 0,-22.621 -16.91,-37.442 -44.72,-47.071 l 47.83,-49.14 c 8.85,12.48 16.64,27.57 23.67,44.211 l 12.22,-4.942 c -8.32,-18.722 -17.16,-35.109 -27.04,-48.371 l 33.54,-34.578 -10.66,-8.84 -31.46,32.5"></path><path id="path104" style="fill:#ffffff;fill-opacity:1;fill-rule:nonzero;stroke:none" d="m 1109.32,187.09 h 134.95 v -28.594 h -102.96 v -47.324 h 91.25 V 82.5703 h -91.25 V 33.6914 h 104.26 V 5.08984 H 1109.32 V 187.09"></path><path id="path106" style="fill:#ffffff;fill-opacity:1;fill-rule:nonzero;stroke:none" d="m 1270.26,142.375 h 31.47 v -21.066 c 8.83,12.746 21.58,23.925 42.9,23.925 30.94,0 48.88,-20.8 48.88,-52.527 V 5.08984 h -31.46 V 83.0859 c 0,21.3281 -10.66,33.5471 -29.39,33.5471 -18.19,0 -30.93,-12.746 -30.93,-34.0627 V 5.08984 h -31.47 V 142.375"></path><path id="path108" style="fill:#ffffff;fill-opacity:1;fill-rule:nonzero;stroke:none" d="m 1403.64,142.375 h 33.81 l 36.91,-100.8906 37.19,100.8906 h 33.02 L 1488.4,4.04297 h -28.33 L 1403.64,142.375"></path><path id="path110" style="fill:#ffffff;fill-opacity:1;fill-rule:nonzero;stroke:none" d="m 1563.54,142.375 h 31.47 V 5.08984 h -31.47 z m -1.3,50.957 h 33.8 V 163.43 h -33.8 v 29.902"></path><path id="path112" style="fill:#ffffff;fill-opacity:1;fill-rule:nonzero;stroke:none" d="m 1626.45,142.375 h 31.47 v -30.949 c 8.58,20.547 24.44,34.59 48.62,33.547 v -33.282 h -1.82 c -27.57,0 -46.8,-17.941 -46.8,-54.3472 V 5.08984 h -31.47 V 142.375"></path><path id="path114" style="fill:#ffffff;fill-opacity:1;fill-rule:nonzero;stroke:none" d="m 1826.93,72.9492 v 0.5196 c 0,24.1796 -17.42,44.1992 -42.13,44.1992 -25.21,0 -41.34,-19.7578 -41.34,-43.6836 v -0.5156 c 0,-23.918 17.43,-43.9375 41.87,-43.9375 25.48,0 41.6,19.7578 41.6,43.4179 z m -114.93,0 v 0.5196 c 0,39.2652 31.2,71.7652 73.33,71.7652 42.12,0 73.06,-31.98 73.06,-71.2496 v -0.5156 c 0,-39.004 -31.21,-71.50396 -73.59,-71.50396 -41.85,0 -72.8,31.98046 -72.8,70.98436"></path><path id="path116" style="fill:#ffffff;fill-opacity:1;fill-rule:nonzero;stroke:none" d="m 1880.75,142.375 h 31.45 v -21.066 c 8.84,12.746 21.59,23.925 42.9,23.925 30.95,0 48.89,-20.8 48.89,-52.527 V 5.08984 h -31.46 V 83.0859 c 0,21.3281 -10.67,33.5471 -29.38,33.5471 -18.2,0 -30.95,-12.746 -30.95,-34.0627 V 5.08984 h -31.45 V 142.375"></path><path id="path118" style="fill:#ffffff;fill-opacity:1;fill-rule:nonzero;stroke:none" d="m 2032.31,142.375 h 31.47 v -20.801 c 8.83,12.215 20.8,23.66 41.86,23.66 19.76,0 33.8,-9.617 41.09,-24.179 10.91,14.562 25.47,24.179 46.27,24.179 29.91,0 48.1,-18.984 48.1,-52.527 V 5.08984 h -31.45 V 83.0859 c 0,21.8481 -10.15,33.5471 -27.83,33.5471 -17.16,0 -29.38,-11.965 -29.38,-34.0627 V 5.08984 h -31.46 V 83.3516 c 0,21.3164 -10.4,33.2814 -27.82,33.2814 -17.42,0 -29.38,-13 -29.38,-34.0627 V 5.08984 h -31.47 V 142.375"></path><path id="path120" style="fill:#ffffff;fill-opacity:1;fill-rule:nonzero;stroke:none" d="m 2363.82,83.3516 c -2.08,20.2814 -14.04,36.1404 -34.84,36.1404 -19.24,0 -32.76,-14.824 -35.62,-36.1404 z M 2262.15,73.2148 v 0.5157 c 0,39.2575 27.83,71.5035 67.09,71.5035 43.69,0 65.79,-34.324 65.79,-73.8473 0,-2.8594 -0.27,-5.7226 -0.53,-8.8359 h -100.88 c 3.38,-22.3633 19.24,-34.8438 39.52,-34.8438 15.34,0 26.26,5.7227 37.18,16.3868 l 18.47,-16.3868 c -13,-15.5976 -30.95,-25.74216 -56.17,-25.74216 -39.78,0 -70.47,28.86716 -70.47,71.24996"></path><path id="path122" style="fill:#ffffff;fill-opacity:1;fill-rule:nonzero;stroke:none" d="m 2417.12,142.375 h 31.46 v -21.066 c 8.84,12.746 21.58,23.925 42.9,23.925 30.95,0 48.89,-20.8 48.89,-52.527 V 5.08984 H 2508.9 V 83.0859 c 0,21.3281 -10.65,33.5471 -29.38,33.5471 -18.2,0 -30.94,-12.746 -30.94,-34.0627 V 5.08984 h -31.46 V 142.375"></path><path id="path124" style="fill:#ffffff;fill-opacity:1;fill-rule:nonzero;stroke:none" d="m 2575.19,43.0469 v 72.2851 h -17.42 v 27.043 h 17.42 v 37.695 h 31.47 v -37.695 h 36.92 v -27.043 h -36.92 V 47.9883 c 0,-12.2149 6.24,-17.1563 16.89,-17.1563 7.02,0 13.26,1.5508 19.5,4.6758 V 9.76563 c -7.79,-4.42188 -16.37,-7.01954 -28.34,-7.01954 -23.14,0 -39.52,10.14451 -39.52,40.30081"></path></g></g></svg>