<?xml version="1.0" encoding="UTF-8"?>
<svg width="221px" height="357px" viewBox="0 0 221 357" version="1.1" xmlns="http://www.w3.org/2000/svg" xmlns:xlink="http://www.w3.org/1999/xlink">
    <!-- Generator: Sketch 59.1 (86144) - https://sketch.com -->
    <title>Fill 5</title>
    <desc>Created with Sketch.</desc>
    <defs>
        <linearGradient x1="24.5763566%" y1="25.7828754%" x2="69.1609977%" y2="78.386602%" id="linearGradient-1">
            <stop stop-color="#FEAC58" offset="0%"></stop>
            <stop stop-color="#FFDB78" offset="100%"></stop>
        </linearGradient>
    </defs>
    <g id="页面-1" stroke="none" stroke-width="1" fill="none" fill-rule="evenodd">
        <g id="画板备份-7" transform="translate(-1395.000000, -1682.000000)" fill="url(#linearGradient-1)" fill-rule="nonzero">
            <g id="编组-11" transform="translate(612.000000, 514.000000)">
                <path d="M1004,1454.9096 C991.330106,1459.09094 979.498236,1464.10854 965.830585,1465.61382 C960.161195,1466.28284 958.99676,1474.31101 953.829721,1476.31805 C951.662898,1477.32157 948.329325,1478.6596 948.329325,1479.49587 C947.493617,1486.68777 943.99568,1495.38496 939.662034,1495.88672 C928.327885,1497.0575 915.657991,1496.55574 903.490448,1497.89376 C897.656695,1498.56278 891.658578,1500.73707 888.32269,1505.75468 C887.324933,1507.25996 885.491467,1509.43426 886.658218,1511.94306 C884.655759,1512.27525 882.655615,1510.43778 881.655543,1510.93722 C875.488432,1514.45187 870.15703,1518.63321 864.154283,1523.14905 C861.32306,1525.15377 856.989415,1522.31278 852.65577,1524.31983 C847.155374,1526.66138 846.822016,1522.31278 841.32162,1520.97476 C841.152627,1522.48004 836.487939,1520.64025 837.321332,1522.31278 C835.318873,1518.80046 831.651943,1519.6344 828.318369,1519.6344 C829.654114,1514.45187 821.317865,1510.77229 825.987183,1505.58743 C826.484904,1504.91841 828.82072,1505.92193 829.318441,1505.25292 C831.9853,1501.90785 833.987759,1498.05869 833.154366,1493.71242 C832.985372,1492.7089 831.3209,1492.03989 831.151907,1491.03637 C830.818549,1488.52756 831.151907,1485.68425 831.485264,1483.17545 C832.487651,1473.47242 824.318081,1465.94833 820.984508,1457.25115 C817.819928,1449.22298 815.817469,1440.85797 812.319532,1432.83213 C810.817109,1429.15255 806.3191,1427.81452 803.985599,1424.6367 C799.48296,1418.95008 800.985383,1411.59092 797.818488,1405.73705 C794.151557,1399.21416 783.81748,1397.37437 783.315129,1388.50993 C783.150765,1386.67014 785.317588,1387.33915 786.817696,1387.1719 C786.817696,1389.34387 791.315705,1389.17894 789.317876,1392.35444 C790.64899,1390.34972 793.14917,1396.37085 792.651449,1392.52402 C792.149098,1387.50641 783.648486,1384.83035 785.815309,1379.47824 C786.150981,1379.14373 788.317804,1378.97648 789.317876,1379.64549 C792.651449,1381.81979 789.982276,1385.49937 790.64899,1388.50993 C794.982636,1384.9976 796.149386,1392.35444 799.816317,1391.01873 C796.985095,1387.50641 799.651953,1383.15782 798.151845,1379.47824 C795.816029,1373.28986 788.317804,1370.78105 785.981988,1364.92718 C781.984015,1354.72471 782.315057,1344.85675 785.148594,1333.81801 C785.317588,1333.48351 783.315129,1332.98175 783.150765,1332.47998 C782.484051,1325.9571 785.148594,1320.10322 788.14881,1314.4166 C789.815597,1317.59442 789.48224,1321.274 789.317876,1324.78632 C794.982636,1321.6085 793.482528,1313.74758 798.651881,1310.73702 C801.98314,1308.89723 805.819064,1307.2247 808.319244,1304.71589 C814.817397,1298.86202 820.486787,1292.67364 827.651655,1287.99054 C829.154078,1286.98701 822.65361,1291.0011 826.987255,1292.00462 C827.820648,1292.17187 828.651727,1290.83385 828.318369,1289.66307 C829.154078,1290.33209 829.987471,1291.0011 829.654114,1292.17187 C838.819125,1291.50286 845.988623,1285.14722 855.489307,1283.97645 C855.987028,1283.97645 855.15595,1282.47117 854.153563,1281.80215 C858.987244,1275.61377 866.654463,1280.29687 872.154859,1276.45004 C879.324357,1271.43243 887.489296,1268.25461 891.325221,1260.7282 C895.156515,1253.03454 906.993015,1248.35144 904.323842,1242.16306 C900.323554,1232.2951 903.490448,1223.2634 912.324418,1217.74404 C912.993447,1217.40953 912.160054,1215.23523 912.824454,1214.23171 C913.491168,1212.89368 915.991348,1213.22819 915.991348,1214.23171 C916.493699,1220.92185 922.494131,1225.60495 921.660738,1232.46235 C922.991853,1232.46235 924.825318,1232.79686 925.158675,1232.12784 C926.827777,1229.28453 921.327381,1226.60848 923.160846,1223.43066 C923.32521,1223.09615 924.660954,1223.09615 925.494348,1223.43066 C926.49442,1223.76516 927.161134,1224.60143 926.827777,1225.93946 C928.158891,1225.93946 929.327957,1225.93946 930.659071,1225.93946 C929.992357,1221.59087 925.661026,1219.08206 921.825102,1217.57678 C918.827201,1216.57326 920.324994,1211.72291 922.991853,1210.55213 C924.491961,1209.88312 926.827777,1209.71587 927.827849,1210.55213 C930.325714,1212.72643 932.825894,1213.06094 935.82611,1212.89368 C934.659359,1207.87608 939.326362,1206.37079 940.995464,1202.52396 C938.828641,1203.02572 936.328461,1206.20354 934.995032,1204.69826 C933.828281,1203.19298 933.659287,1199.34614 935.995104,1197.50635 C939.995392,1194.32854 942.993293,1190.1472 945.495788,1185.96586 C947.493617,1182.45353 951.662898,1180.11198 955.329829,1177.77043 C956.329901,1179.44297 955.494193,1181.95177 957.994373,1182.95529 C958.494409,1179.77748 958.99676,1178.27219 957.994373,1175.09438 C962.161339,1173.75635 960.661231,1168.90599 963.330405,1168.23698 C971.831017,1166.56444 978.9982,1174.09086 984.165239,1179.94473 C987.165455,1183.12255 981.331701,1190.1472 983.831881,1196.00107 C983.662888,1190.4817 988.99892,1187.63839 990.332349,1182.95529 C992.165815,1184.46058 994.499316,1183.79156 996.332781,1184.12607 L1004,1454.9096 Z" id="Fill-5"></path>
            </g>
        </g>
    </g>
</svg>